<svg width="57" height="57" viewBox="0 0 57 57" fill="none" xmlns="http://www.w3.org/2000/svg">
<path d="M5.54785 4.94387V4.64187V4.94387ZM5.54785 4.94387H11.2859H5.54785ZM5.54785 4.94387V10.6819V4.94387ZM5.54785 4.94387H5.24584H5.54785ZM5.54785 52.0561H11.2859H5.54785ZM5.54785 52.0561V46.3181V52.0561ZM5.54785 52.0561H5.24584H5.54785ZM5.54785 52.0561V52.3581V52.0561ZM52.0561 4.94387H46.3181H52.0561ZM52.0561 4.94387V4.64187V4.94387ZM52.0561 4.94387H52.3581H52.0561ZM52.0561 4.94387V10.6819V4.94387ZM6.10711 1.01785H50.8928C53.7036 1.01785 55.9821 3.2964 55.9821 6.10714V28.5C55.9821 43.678 43.6779 55.9821 28.5 55.9821H6.10711C3.29637 55.9821 1.01782 53.7036 1.01782 50.8928V6.10714C1.01782 3.2964 3.29637 1.01785 6.10711 1.01785Z" stroke="#0583C1" stroke-width="2" stroke-linecap="square"/>
<mask id="mask0_110_62" style="mask-type:alpha" maskUnits="userSpaceOnUse" x="16" y="35" width="9" height="11">
<path d="M16.2856 35.2916H24.4726V45.4571H16.2856V35.2916Z" fill="white"/>
</mask>
<g mask="url(#mask0_110_62)">
<path fill-rule="evenodd" clip-rule="evenodd" d="M23.5784 35.2916L22.4095 36.8556C21.8173 36.6916 21.1603 36.8937 20.7701 37.4152L16.5911 43.002C16.0843 43.6817 16.2221 44.643 16.9012 45.1515C17.5799 45.6589 18.5423 45.5205 19.0503 44.8402L23.2293 39.2536C23.6193 38.7321 23.6263 38.0454 23.3031 37.5243L24.4726 35.9616C24.1617 35.7575 23.8626 35.5338 23.5784 35.2916Z" fill="#0583C1"/>
</g>
<path fill-rule="evenodd" clip-rule="evenodd" d="M37.6097 28.5386C37.6068 28.3959 37.6008 28.2521 37.5923 28.1083C37.5611 27.6118 37.4853 27.1135 37.3619 26.6188C36.9182 26.7571 36.4693 26.8819 36.0159 26.9934C36.0285 27.0443 36.0405 27.0949 36.0516 27.1454C36.0739 27.2491 36.0928 27.3509 36.1121 27.4531C36.2069 28.0027 36.2344 28.5553 36.1976 29.0986C36.1924 29.1749 36.1876 29.2521 36.1798 29.3294C36.1712 29.4041 36.1616 29.4796 36.1519 29.5546C36.1106 29.8568 36.0504 30.1551 35.9706 30.4483C35.9427 30.5531 35.9122 30.6586 35.8772 30.7635C35.8468 30.8623 35.8122 30.9616 35.7751 31.0578C35.3797 32.1232 34.7245 33.0902 33.8531 33.8576C33.7981 33.9051 33.7428 33.9527 33.6862 33.9995L33.6851 33.9999C33.6305 34.046 33.5747 34.091 33.5171 34.1359L33.516 34.1363C33.4606 34.1798 33.402 34.2221 33.3433 34.2645C32.9289 34.564 32.4751 34.8249 31.9846 35.033C31.4472 35.2611 30.8961 35.4154 30.3454 35.5012C30.3212 35.5049 30.2975 35.5083 30.2744 35.5113C30.2268 35.5195 30.1778 35.5239 30.1291 35.5299C30.1064 35.5329 30.0823 35.5366 30.0577 35.5388C30.0102 35.544 29.9619 35.55 29.9125 35.5548C29.8883 35.557 29.8641 35.5577 29.8407 35.5596C28.6824 35.6532 27.5318 35.4522 26.4906 34.9966C26.3958 34.9561 26.3014 34.9114 26.2081 34.8654C26.1086 34.8174 26.0116 34.7658 25.9153 34.7138C25.7957 34.6465 25.6767 34.5789 25.5612 34.5057C25.42 34.4165 25.2828 34.3214 25.1472 34.2232C25.0873 34.1771 25.0253 34.1322 24.9666 34.0861C24.906 34.0378 24.8469 33.9876 24.7886 33.9386C24.7481 33.9033 24.7075 33.8709 24.6671 33.8357C24.2973 33.509 23.9624 33.1404 23.6648 32.7334C23.6035 32.6491 23.5444 32.5639 23.4868 32.4759C23.4266 32.3871 23.3697 32.2942 23.3129 32.2016C23.1527 31.9322 23.007 31.649 22.8814 31.3529C22.2764 29.9266 22.1865 28.4093 22.5273 27.0086C22.0743 26.8987 21.6257 26.7757 21.182 26.6385C20.7599 28.3324 20.8632 30.1712 21.596 31.898C21.9732 32.7874 22.4898 33.5771 23.107 34.253C23.2032 34.36 23.304 34.4637 23.4054 34.564C23.5422 34.6997 23.6848 34.8301 23.8298 34.9565C24.113 35.1991 24.411 35.4232 24.7224 35.6258C26.9711 37.0858 29.8812 37.4407 32.5294 36.3173C35.7319 34.9587 37.6443 31.8193 37.6097 28.5386Z" fill="#0583C1"/>
<mask id="mask1_110_62" style="mask-type:alpha" maskUnits="userSpaceOnUse" x="16" y="12" width="26" height="16">
<path d="M16.8317 12.2554H41.7125V27.3561H16.8317V12.2554Z" fill="white"/>
</mask>
<g mask="url(#mask1_110_62)">
<path fill-rule="evenodd" clip-rule="evenodd" d="M41.3637 21.2264C40.2194 19.5255 37.3668 19.438 36.2336 19.4741C36.017 20.6412 35.9187 22.0719 35.9187 22.0719L35.7589 19.5025C35.7349 18.8408 35.7305 18.1791 35.7698 17.5172C35.8026 16.9298 35.9427 16.3589 35.9558 15.7694C35.9821 14.7958 35.6933 13.7994 34.9296 13.153C34.269 12.5896 33.4051 12.3129 32.5474 12.2648C32.1187 12.2407 31.6877 12.2648 31.2918 12.3162C31.0926 12.5021 30.7384 12.5404 30.537 12.7406C30.2352 13.0403 30.3249 13.4942 30.6071 13.76C31.2261 14.3408 32.1909 14.471 32.9762 14.5913C32.9434 14.5957 32.9127 14.5848 32.8822 14.5968C32.4316 14.7794 31.7687 14.7215 31.2765 14.716C30.6771 14.7094 30.0994 14.5016 29.6423 14.1166C29.1807 13.7272 28.8046 13.2372 28.3275 12.8653C28.1263 12.7067 27.8069 12.4737 27.4853 12.3479C27.4153 12.3381 27.3453 12.3282 27.2753 12.3194C27.1571 12.3042 27.0347 12.291 26.91 12.279C26.899 12.2834 26.8881 12.2856 26.8792 12.2888L26.8903 12.279C26.5992 12.2549 26.2973 12.2484 25.9978 12.2648C25.1402 12.3129 24.2761 12.5896 23.6132 13.153C22.8519 13.7994 22.561 14.7958 22.5871 15.7694C22.6026 16.3589 22.7403 16.9298 22.7753 17.5172C22.8126 18.1791 22.8082 18.8408 22.7842 19.5025L22.6245 22.0719C22.6245 22.0719 22.526 20.6412 22.3094 19.4741C21.1783 19.438 18.3235 19.5255 17.1815 21.2264C16.6587 22.0041 16.7573 22.7599 17.2428 23.5223C17.8116 24.4126 18.8814 25.3369 20.8152 26.0993C20.846 26.1113 20.8786 26.12 20.9114 26.1299C23.5716 26.9918 26.4286 27.3605 29.2726 27.3561C32.1143 27.3605 34.9736 26.9918 37.6337 26.1299C37.6643 26.12 37.6993 26.1113 37.7298 26.0993C39.6616 25.3369 40.7337 24.4126 41.3001 23.5223C41.7858 22.7599 41.8864 22.0041 41.3637 21.2264Z" fill="#0583C1"/>
</g>
<mask id="mask2_110_62" style="mask-type:alpha" maskUnits="userSpaceOnUse" x="23" y="27" width="13" height="4">
<path d="M29.5178 28.2126C29.5178 28.2126 33.5007 28.0908 35.6249 27.4821C35.6249 27.4821 34.9611 29.43 34.1645 30.0388C33.3679 30.6475 30.9782 30.5257 30.8454 30.5257C30.7127 30.5257 30.1816 29.1866 29.5178 29.1866C28.854 29.1866 28.3229 30.5257 28.1901 30.5257C28.0574 30.5257 25.6676 30.6475 24.871 30.0388C24.0745 29.43 23.4106 27.4821 23.4106 27.4821" fill="white"/>
</mask>
<g mask="url(#mask2_110_62)">
<path fill-rule="evenodd" clip-rule="evenodd" d="M29.5178 28.2126C29.5178 28.2126 25.5349 28.0908 23.4106 27.4821C23.4106 27.4821 24.0745 29.43 24.871 30.0388C25.6676 30.6475 28.0574 30.5257 28.1901 30.5257C28.3229 30.5257 28.854 29.1866 29.5178 29.1866C30.1816 29.1866 30.7127 30.5257 30.8454 30.5257C30.9782 30.5257 33.3679 30.6475 34.1645 30.0388C34.9611 29.43 35.6249 27.4821 35.6249 27.4821C33.5007 28.0908 29.5178 28.2126 29.5178 28.2126Z" fill="#0583C1"/>
</g>
</svg>
