<svg width="147" height="173" viewBox="0 0 147 173" fill="none" xmlns="http://www.w3.org/2000/svg">
<path d="M146.612 105.882C146.635 120.276 141.977 134.285 133.345 145.787C121.244 161.937 101.976 172.379 80.2759 172.379C58.576 172.379 39.3077 161.934 27.2063 145.784C18.5946 134.271 13.9395 120.27 13.9395 105.88C13.9395 91.49 18.5946 77.4883 27.2063 65.9757C39.3077 49.8269 58.5829 39.3817 80.2759 39.3817C101.969 39.3817 121.244 49.8269 133.345 65.9785C141.977 77.4802 146.635 91.4887 146.612 105.882Z" fill="#29ABE2"/>
<path d="M133.346 46.5636V145.787C121.245 161.937 101.976 172.379 80.2766 172.379C58.5767 172.379 39.3084 161.934 27.207 145.784V37.1892C27.207 34.5581 28.2497 32.0347 30.1056 30.1742C31.9616 28.3137 34.4787 27.2684 37.1034 27.2684H114.104L133.346 46.5636Z" fill="#DCF8FF"/>
<path d="M133.346 46.5636H124C121.375 46.5636 118.858 45.5184 117.002 43.6579C115.146 41.7974 114.104 39.274 114.104 36.6428V27.2739L133.346 46.5636Z" fill="#C7E0E5"/>
<path d="M109.889 132.634L106.118 136.365L110.566 140.883L114.337 137.152L109.889 132.634Z" fill="#2D2D60"/>
<path d="M141.806 161.941C141.643 161.706 141.459 161.487 141.257 161.284L127.159 146.97L118.818 138.499C118.243 137.915 117.532 137.485 116.748 137.249C115.964 137.013 115.134 136.978 114.333 137.147L110.561 140.879C110.381 141.679 110.405 142.513 110.631 143.302C110.857 144.091 111.278 144.81 111.855 145.393L120.239 153.907L134.292 168.179C134.49 168.382 134.706 168.566 134.938 168.729C135.876 169.4 137.02 169.718 138.169 169.627C139.318 169.536 140.397 169.041 141.218 168.23C142.038 167.418 142.547 166.343 142.654 165.193C142.761 164.043 142.46 162.892 141.803 161.942L141.806 161.941ZM108.435 77.5702C92.8622 61.7613 67.3675 61.5961 51.5934 77.2041C35.8193 92.812 35.6573 118.371 51.2255 134.185C61.3182 144.435 75.582 148.109 88.6651 145.174C95.1223 143.731 101.12 140.701 106.12 136.357L109.891 132.626C114.563 127.359 117.766 120.95 119.177 114.045C121.788 101.3 118.217 87.5116 108.435 77.5757V77.5702ZM105.551 131.998C100.125 137.379 93.1504 140.915 85.6116 142.106C74.3381 143.896 62.3891 140.408 53.7765 131.661C39.5936 117.257 39.7433 93.9722 54.1101 79.7572C68.4769 65.5422 91.7035 65.6908 105.886 80.0917C114.197 88.5274 117.585 100.013 116.079 110.94C114.986 118.934 111.284 126.341 105.55 132.004L105.551 131.998Z" fill="#636393"/>
<path style="mix-blend-mode:multiply" d="M116.078 110.946C115.006 118.729 111.465 125.961 105.979 131.573C100.492 137.185 93.3516 140.88 85.6103 142.112L85.5801 142.083C85.4918 141.996 85.4165 141.896 85.3563 141.787C85.2484 141.726 85.1491 141.65 85.0612 141.563C84.9395 141.345 84.7604 141.166 84.5435 141.044C84.4566 140.956 84.3818 140.857 84.3211 140.749C84.2124 140.69 84.113 140.615 84.0259 140.526C83.9385 140.438 83.8633 140.338 83.8021 140.229C83.6944 140.169 83.5955 140.095 83.5083 140.007C83.4212 139.919 83.346 139.819 83.2845 139.711C83.1773 139.65 83.0785 139.575 82.9907 139.488C82.9032 139.4 82.828 139.301 82.7669 139.193C82.5493 139.072 82.3699 138.892 82.2493 138.674C82.1416 138.612 82.0423 138.537 81.9541 138.449C81.8675 138.362 81.7931 138.263 81.7331 138.155C81.6249 138.093 81.5252 138.018 81.4365 137.93C81.3492 137.843 81.2747 137.744 81.2155 137.636C81.1073 137.575 81.008 137.499 80.9203 137.412C80.8317 137.325 80.7568 137.225 80.6978 137.116C80.5898 137.055 80.4904 136.98 80.4027 136.893C80.3145 136.805 80.2392 136.705 80.1789 136.597C80.0705 136.537 79.9715 136.462 79.885 136.374C79.7976 136.286 79.7223 136.186 79.6613 136.078C79.5536 136.018 79.4547 135.943 79.3674 135.856C79.2468 135.638 79.0669 135.458 78.8484 135.337C78.7621 135.249 78.6874 135.149 78.626 135.041C78.518 134.98 78.4188 134.905 78.3308 134.817C78.2442 134.729 78.1694 134.63 78.1084 134.523C78.0004 134.461 77.9011 134.386 77.8132 134.298C77.6907 134.081 77.5118 133.902 77.2956 133.779C77.2081 133.692 77.1337 133.592 77.0746 133.483C76.966 133.423 76.8663 133.348 76.778 133.26C76.6902 133.173 76.6153 133.073 76.5556 132.965C76.4482 132.904 76.3493 132.829 76.2618 132.742C76.1734 132.654 76.0981 132.554 76.038 132.446C75.9302 132.385 75.8313 132.309 75.7442 132.221C75.656 132.134 75.5806 132.035 75.5204 131.927C75.3035 131.805 75.1244 131.625 75.0028 131.408C74.8941 131.348 74.7946 131.273 74.7076 131.185C74.588 130.966 74.4084 130.786 74.1899 130.666C74.0674 130.449 73.8885 130.27 73.6723 130.147C73.5849 130.059 73.5096 129.959 73.4485 129.851C73.2317 129.729 73.0526 129.55 72.9309 129.332C72.8235 129.271 72.7243 129.196 72.6357 129.109C72.5494 129.021 72.4751 128.921 72.4147 128.813C72.3061 128.753 72.2063 128.677 72.1181 128.589C72.0312 128.502 71.9568 128.403 71.8971 128.295C71.7894 128.233 71.6902 128.157 71.6019 128.07C71.5137 127.984 71.4388 127.884 71.3795 127.776C71.2713 127.715 71.172 127.639 71.0843 127.551C70.9962 127.464 70.9208 127.364 70.8605 127.255C70.7524 127.195 70.6535 127.12 70.5667 127.032C70.4796 126.944 70.4044 126.844 70.3429 126.737C70.2352 126.677 70.1363 126.602 70.0491 126.515C69.9619 126.426 69.8866 126.326 69.8253 126.218C69.7176 126.157 69.6183 126.083 69.5301 125.996C69.4437 125.907 69.369 125.808 69.3077 125.7C69.0908 125.578 68.9117 125.399 68.79 125.181C68.6821 125.12 68.5828 125.045 68.4949 124.957C68.3723 124.74 68.1934 124.561 67.9772 124.438C67.8902 124.35 67.8158 124.251 67.7562 124.142C67.6477 124.082 67.5479 124.007 67.4596 123.919C67.3715 123.832 67.2966 123.732 67.2372 123.623C67.1298 123.562 67.031 123.487 66.9434 123.4C66.8551 123.313 66.7797 123.213 66.7196 123.104C66.6118 123.043 66.5129 122.968 66.4258 122.88C66.3376 122.793 66.2622 122.694 66.202 122.585C66.0937 122.525 65.9944 122.449 65.9068 122.361C65.8199 122.273 65.7451 122.174 65.6844 122.067C65.5759 122.007 65.4765 121.932 65.3892 121.844C65.3022 121.755 65.2274 121.655 65.1668 121.546C65.0583 121.487 64.9588 121.412 64.8716 121.325C64.6142 121.067 64.4696 120.717 64.4696 120.352C64.4696 119.987 64.6142 119.637 64.8716 119.378L78.335 105.882L64.8716 92.3839C64.7375 92.2577 64.63 92.1057 64.5557 91.937C64.4813 91.7684 64.4415 91.5864 64.4386 91.402C64.4358 91.2176 64.4699 91.0345 64.539 90.8636C64.6081 90.6927 64.7108 90.5374 64.8409 90.4071C64.9711 90.2767 65.126 90.1739 65.2966 90.1047C65.4671 90.0356 65.6498 90.0015 65.8337 90.0045C66.0177 90.0074 66.1992 90.0475 66.3674 90.1221C66.5356 90.1968 66.6871 90.3046 66.813 90.4392L67.3292 90.9567L80.275 103.936L93.7384 90.4392C93.9958 90.1811 94.345 90.0362 94.709 90.0362C95.0731 90.0362 95.4223 90.1811 95.6797 90.4392C95.7671 90.5274 95.8424 90.6269 95.9035 90.7351C96.0113 90.7948 96.1102 90.8694 96.1973 90.9567C96.2845 91.0456 96.3598 91.1455 96.4211 91.254C96.5286 91.3142 96.6275 91.3887 96.715 91.4756C96.8356 91.6942 97.0155 91.8741 97.2339 91.9944C97.3203 92.0832 97.395 92.1827 97.4564 92.2904C97.5641 92.3519 97.6634 92.4273 97.7516 92.5147C97.8382 92.6024 97.9125 92.7015 97.9726 92.8092C98.0805 92.8712 98.1801 92.9466 98.2692 93.0336C98.3898 93.2513 98.5686 93.431 98.7854 93.5525C98.8735 93.6398 98.9484 93.7394 99.0078 93.8484C99.1159 93.9089 99.2152 93.9839 99.303 94.0714C99.3901 94.1599 99.4653 94.2593 99.5268 94.3673C99.7452 94.49 99.9253 94.671 100.047 94.8903C100.155 94.9507 100.254 95.0262 100.341 95.1147C100.429 95.202 100.504 95.3011 100.565 95.4092C100.673 95.4698 100.772 95.5448 100.86 95.6322C100.947 95.7207 101.021 95.8202 101.082 95.9281C101.191 95.9883 101.29 96.0634 101.378 96.1511C101.465 96.2395 101.54 96.3395 101.6 96.4483C101.708 96.5081 101.808 96.5827 101.895 96.6699C101.982 96.7584 102.057 96.8579 102.119 96.9658C102.226 97.027 102.325 97.102 102.413 97.1888C102.5 97.2766 102.575 97.3762 102.635 97.4847C102.743 97.5459 102.842 97.6208 102.93 97.7077C103.018 97.7958 103.092 97.8954 103.153 98.0036C103.261 98.0645 103.359 98.14 103.447 98.228C103.535 98.315 103.61 98.4142 103.67 98.5225C103.887 98.6445 104.066 98.824 104.188 99.0414C104.296 99.1031 104.395 99.1785 104.483 99.2658C104.571 99.3537 104.645 99.4533 104.706 99.5617C104.814 99.6212 104.914 99.6963 105.001 99.7846C105.122 100.002 105.301 100.181 105.518 100.302C105.605 100.391 105.68 100.491 105.742 100.599C105.85 100.66 105.949 100.734 106.036 100.821C106.157 101.04 106.337 101.22 106.555 101.34C106.64 101.428 106.714 101.527 106.775 101.634C106.882 101.696 106.982 101.771 107.07 101.859C107.157 101.947 107.231 102.046 107.291 102.153C107.399 102.215 107.499 102.29 107.588 102.378C107.675 102.465 107.749 102.564 107.809 102.672C107.916 102.734 108.015 102.809 108.104 102.897C108.192 102.984 108.267 103.084 108.326 103.192C108.434 103.253 108.534 103.328 108.621 103.415C108.709 103.504 108.784 103.603 108.845 103.711C108.953 103.772 109.051 103.847 109.139 103.934C109.226 104.023 109.301 104.122 109.363 104.23C109.471 104.291 109.57 104.366 109.657 104.455C109.744 104.542 109.82 104.641 109.88 104.749C109.988 104.81 110.087 104.884 110.176 104.971C110.262 105.06 110.337 105.16 110.398 105.268C110.616 105.389 110.796 105.569 110.916 105.788C111.024 105.848 111.123 105.923 111.211 106.01C111.333 106.227 111.512 106.406 111.728 106.529C111.815 106.617 111.89 106.716 111.949 106.825C112.058 106.885 112.158 106.96 112.246 107.048C112.333 107.136 112.408 107.235 112.468 107.344C112.685 107.466 112.864 107.645 112.986 107.862C113.201 107.985 113.38 108.163 113.502 108.379C113.61 108.44 113.709 108.516 113.797 108.603C113.884 108.691 113.959 108.79 114.02 108.898C114.128 108.958 114.228 109.034 114.315 109.122C114.402 109.21 114.477 109.309 114.538 109.418C114.646 109.478 114.745 109.553 114.833 109.641C114.92 109.729 114.995 109.829 115.057 109.937C115.164 109.996 115.263 110.071 115.35 110.158C115.471 110.376 115.65 110.556 115.868 110.677C115.949 110.757 116.019 110.848 116.078 110.946Z" fill="url(#paint0_linear_458_2387)"/>
<path d="M94.7104 121.729C94.3463 121.729 93.9971 121.584 93.7397 121.326L64.8716 92.3839C64.7375 92.2577 64.63 92.1057 64.5557 91.937C64.4813 91.7684 64.4415 91.5864 64.4386 91.402C64.4358 91.2176 64.4699 91.0345 64.539 90.8636C64.6081 90.6927 64.7108 90.5374 64.8409 90.4071C64.9711 90.2767 65.126 90.1739 65.2966 90.1047C65.4671 90.0356 65.6498 90.0015 65.8337 90.0045C66.0177 90.0074 66.1992 90.0475 66.3674 90.1221C66.5356 90.1968 66.6871 90.3046 66.813 90.4392L95.6811 119.378C95.873 119.571 96.0038 119.816 96.0567 120.083C96.1097 120.35 96.0825 120.627 95.9786 120.878C95.8747 121.13 95.6988 121.345 95.473 121.496C95.2473 121.647 94.9819 121.728 94.7104 121.728V121.729Z" fill="#29ABE2"/>
<path d="M65.8424 121.729C65.5709 121.729 65.3055 121.648 65.0798 121.497C64.8541 121.346 64.6781 121.131 64.5742 120.88C64.4703 120.628 64.4431 120.351 64.4961 120.084C64.549 119.818 64.6798 119.572 64.8717 119.38L93.7398 90.4405C93.8657 90.306 94.0172 90.1982 94.1854 90.1235C94.3536 90.0488 94.5351 90.0088 94.7191 90.0058C94.903 90.0028 95.0857 90.0369 95.2562 90.1061C95.4268 90.1752 95.5817 90.278 95.7119 90.4084C95.842 90.5388 95.9447 90.694 96.0138 90.8649C96.0829 91.0358 96.117 91.2189 96.1142 91.4034C96.1113 91.5878 96.0715 91.7697 95.9971 91.9384C95.9228 92.1071 95.8153 92.259 95.6812 92.3853L66.8131 121.325C66.6858 121.453 66.5345 121.554 66.3679 121.624C66.2014 121.693 66.0228 121.729 65.8424 121.729Z" fill="#29ABE2"/>
<path d="M35.5753 16.9319C35.4057 16.9319 35.2429 16.8644 35.1229 16.7441C35.003 16.6238 34.9355 16.4607 34.9355 16.2905V0.641348C34.9432 0.476202 35.014 0.320351 35.1333 0.206187C35.2525 0.0920222 35.4111 0.0283203 35.576 0.0283203C35.741 0.0283203 35.8995 0.0920222 36.0188 0.206187C36.1381 0.320351 36.2089 0.476202 36.2165 0.641348V16.2905C36.2162 16.4608 36.1484 16.6239 36.0282 16.7442C35.908 16.8644 35.7452 16.9319 35.5753 16.9319Z" fill="#29ABE2"/>
<path d="M21.9101 22.6067C21.7401 22.6066 21.5771 22.5387 21.457 22.4182L10.4196 11.3536C10.3066 11.2317 10.2451 11.0706 10.2482 10.9043C10.2512 10.7379 10.3185 10.5791 10.4358 10.4615C10.5532 10.3438 10.7116 10.2763 10.8776 10.2733C11.0435 10.2703 11.2042 10.3319 11.3258 10.4452L22.3631 21.5098C22.4541 21.5994 22.5163 21.7143 22.5418 21.8396C22.5674 21.9649 22.555 22.095 22.5063 22.2132C22.4577 22.3314 22.375 22.4324 22.2687 22.5033C22.1625 22.5741 22.0376 22.6116 21.9101 22.6109V22.6067Z" fill="#29ABE2"/>
<path d="M16.2489 36.3056H0.643742C0.479003 36.2979 0.323539 36.227 0.209656 36.1074C0.0957718 35.9878 0.0322266 35.8288 0.0322266 35.6635C0.0322266 35.4982 0.0957718 35.3392 0.209656 35.2196C0.323539 35.1001 0.479003 35.0291 0.643742 35.0214H16.2489C16.3356 35.0174 16.4221 35.031 16.5033 35.0615C16.5845 35.0919 16.6587 35.1386 16.7214 35.1986C16.7841 35.2586 16.834 35.3308 16.8681 35.4107C16.9022 35.4906 16.9198 35.5766 16.9198 35.6635C16.9198 35.7504 16.9022 35.8364 16.8681 35.9163C16.834 35.9962 16.7841 36.0684 16.7214 36.1284C16.6587 36.1884 16.5845 36.2351 16.5033 36.2655C16.4221 36.296 16.3356 36.3096 16.2489 36.3056Z" fill="#29ABE2"/>
<defs>
<linearGradient id="paint0_linear_458_2387" x1="-35.1111" y1="-9.79009" x2="189.18" y2="213.948" gradientUnits="userSpaceOnUse">
<stop offset="0.08"/>
<stop offset="0.24" stop-color="#535353"/>
<stop offset="0.43" stop-color="#AFAFAF"/>
<stop offset="0.56" stop-color="#E9E9E9"/>
<stop offset="0.62" stop-color="white"/>
</linearGradient>
</defs>
</svg>
