<svg width="525" height="392" viewBox="0 0 525 392" fill="none" xmlns="http://www.w3.org/2000/svg">
<g clip-path="url(#clip0_112_490)">
<g style="mix-blend-mode:multiply">
<path d="M441.784 361.397C441.784 378.296 361.518 392 262.507 392C163.497 392 83.2159 378.296 83.2159 361.397C83.2159 344.499 163.482 330.809 262.507 330.809C361.532 330.809 441.784 344.499 441.784 361.397Z" fill="#DADADA"/>
</g>
<path d="M110.722 165.876H102.469V201.938H110.722V165.876Z" fill="#181F38"/>
<path d="M110.722 209.879H102.469V227.909H110.722V209.879Z" fill="#181F38"/>
<path d="M420.235 359.742C420.237 360.845 420.021 361.938 419.6 362.958C419.179 363.978 418.561 364.904 417.781 365.685C417.001 366.466 416.074 367.085 415.054 367.508C414.034 367.93 412.941 368.148 411.837 368.148H114.994C112.763 368.148 110.623 367.262 109.045 365.686C107.467 364.11 106.581 361.972 106.581 359.742V146.655C106.585 144.428 107.473 142.294 109.05 140.721C110.628 139.148 112.765 138.264 114.994 138.264H411.837C414.064 138.264 416.2 139.148 417.776 140.722C419.351 142.295 420.235 144.43 420.235 146.655V359.742Z" fill="#181F38"/>
<path d="M420.235 151.562H106.61V350.219H420.235V151.562Z" fill="#08AFD7"/>
<path d="M289.65 359.307C289.65 359.583 289.596 359.856 289.49 360.11C289.383 360.365 289.228 360.596 289.032 360.79C288.836 360.984 288.604 361.138 288.348 361.242C288.093 361.347 287.819 361.399 287.543 361.397H239.273C238.998 361.399 238.725 361.346 238.47 361.242C238.215 361.138 237.984 360.984 237.789 360.789C237.595 360.595 237.441 360.364 237.336 360.109C237.232 359.855 237.179 359.582 237.181 359.307C237.179 359.031 237.231 358.758 237.336 358.502C237.44 358.247 237.594 358.015 237.788 357.819C237.983 357.623 238.214 357.468 238.469 357.362C238.724 357.256 238.997 357.202 239.273 357.202H287.572C287.85 357.2 288.124 357.253 288.381 357.358C288.637 357.463 288.87 357.618 289.066 357.814C289.262 358.01 289.418 358.243 289.523 358.499C289.628 358.755 289.681 359.03 289.679 359.307H289.65Z" fill="white"/>
<path d="M279.522 145.494C279.524 145.754 279.475 146.013 279.376 146.254C279.278 146.495 279.132 146.714 278.949 146.899C278.765 147.084 278.547 147.231 278.306 147.331C278.065 147.431 277.807 147.483 277.546 147.483H249.299C249.038 147.483 248.779 147.431 248.537 147.331C248.296 147.231 248.076 147.085 247.891 146.9C247.707 146.716 247.56 146.496 247.46 146.255C247.36 146.014 247.308 145.755 247.308 145.494C247.308 145.233 247.36 144.975 247.46 144.735C247.56 144.494 247.707 144.276 247.892 144.093C248.077 143.909 248.297 143.764 248.538 143.666C248.78 143.567 249.038 143.518 249.299 143.519H277.546C278.07 143.519 278.573 143.727 278.944 144.098C279.314 144.468 279.522 144.97 279.522 145.494Z" fill="white"/>
<path d="M372.59 260.574C372.586 261.291 372.298 261.978 371.789 262.484C371.28 262.99 370.591 263.274 369.873 263.274H298.877C298.16 263.274 297.473 262.989 296.966 262.483C296.459 261.977 296.174 261.29 296.174 260.574V232.874C296.174 232.157 296.459 231.468 296.965 230.96C297.471 230.451 298.159 230.163 298.877 230.16H369.873C370.593 230.16 371.285 230.446 371.794 230.955C372.304 231.464 372.59 232.154 372.59 232.874V260.574Z" fill="#181F38"/>
<path d="M314.657 243.066C314.523 243.078 314.388 243.059 314.262 243.011C314.136 242.964 314.023 242.888 313.931 242.79C313.79 242.607 313.718 242.381 313.727 242.151V237.651C313.737 237.382 313.649 237.119 313.48 236.91C313.386 236.815 313.272 236.742 313.147 236.694C313.021 236.647 312.887 236.626 312.754 236.634C312.618 236.625 312.481 236.645 312.353 236.692C312.226 236.74 312.109 236.814 312.013 236.91C311.848 237.121 311.765 237.384 311.78 237.651C311.774 238.568 311.832 239.485 311.954 240.394C312.059 241.165 312.219 241.926 312.434 242.674C312.626 243.339 312.854 243.993 313.117 244.633L313.872 246.463L314.643 248.335C314.907 249.02 315.135 249.718 315.326 250.426C315.542 251.237 315.702 252.061 315.805 252.894C315.927 253.896 315.986 254.904 315.979 255.914C315.989 256.327 315.909 256.738 315.747 257.118C315.604 257.466 315.379 257.775 315.093 258.019C314.795 258.276 314.449 258.473 314.076 258.599C313.649 258.736 313.202 258.805 312.754 258.803C311.891 258.852 311.041 258.578 310.371 258.033C310.085 257.761 309.863 257.431 309.717 257.065C309.572 256.7 309.507 256.307 309.528 255.914V250.774C309.524 250.684 309.555 250.595 309.615 250.528C309.643 250.49 309.681 250.461 309.725 250.443C309.768 250.425 309.816 250.419 309.862 250.426H310.821C310.955 250.415 311.09 250.434 311.216 250.482C311.341 250.529 311.455 250.605 311.548 250.702C311.714 250.901 311.802 251.154 311.795 251.413V255.914C311.778 256.176 311.861 256.435 312.027 256.639C312.123 256.737 312.239 256.812 312.367 256.86C312.495 256.908 312.632 256.926 312.768 256.915C312.904 256.928 313.042 256.909 313.17 256.861C313.298 256.814 313.414 256.738 313.509 256.639C313.669 256.432 313.752 256.175 313.742 255.914C313.759 254.653 313.652 253.393 313.422 252.154C313.235 251.169 312.978 250.198 312.652 249.25C312.332 248.379 311.998 247.537 311.635 246.753C311.272 245.969 310.937 245.127 310.632 244.256C310.292 243.311 310.03 242.34 309.848 241.353C309.63 240.136 309.527 238.901 309.542 237.665C309.535 237.253 309.609 236.844 309.76 236.46C309.914 236.118 310.136 235.812 310.414 235.56C310.709 235.297 311.055 235.1 311.431 234.979C311.861 234.833 312.314 234.765 312.768 234.776C313.626 234.726 314.472 235 315.137 235.546C315.425 235.815 315.651 236.145 315.799 236.511C315.948 236.877 316.014 237.271 315.994 237.665V242.804C315.997 242.895 315.965 242.982 315.907 243.051C315.876 243.086 315.838 243.113 315.795 243.13C315.752 243.148 315.706 243.156 315.66 243.153L314.657 243.066Z" fill="white"/>
<path d="M328.534 249.177C328.526 248.92 328.608 248.669 328.766 248.466C328.856 248.367 328.966 248.289 329.089 248.236C329.212 248.183 329.344 248.158 329.478 248.161H330.452C330.498 248.159 330.544 248.167 330.586 248.185C330.629 248.203 330.667 248.229 330.699 248.263C330.757 248.337 330.788 248.43 330.786 248.524V255.783C330.807 256.176 330.742 256.569 330.597 256.935C330.451 257.301 330.228 257.631 329.943 257.902C329.273 258.447 328.423 258.722 327.56 258.672C327.111 258.676 326.665 258.607 326.238 258.469C325.863 258.346 325.517 258.148 325.221 257.888C324.934 257.644 324.71 257.335 324.567 256.988C324.404 256.607 324.325 256.196 324.334 255.783V237.578C324.315 237.185 324.381 236.793 324.526 236.427C324.672 236.062 324.894 235.731 325.177 235.458C325.847 234.914 326.697 234.639 327.56 234.689C328.009 234.679 328.457 234.747 328.882 234.892C329.26 235.009 329.607 235.207 329.9 235.473C330.186 235.717 330.41 236.025 330.553 236.373C330.716 236.754 330.795 237.164 330.786 237.578V245.054C330.79 245.145 330.759 245.233 330.699 245.301C330.669 245.338 330.632 245.366 330.588 245.384C330.545 245.402 330.498 245.408 330.452 245.403H329.507C329.373 245.414 329.238 245.395 329.113 245.347C328.987 245.3 328.873 245.224 328.781 245.127C328.614 244.928 328.526 244.675 328.534 244.416V237.534C328.548 237.268 328.466 237.005 328.301 236.794C328.204 236.698 328.088 236.624 327.96 236.576C327.833 236.529 327.696 236.509 327.56 236.518C327.426 236.51 327.292 236.53 327.167 236.578C327.042 236.626 326.928 236.699 326.834 236.794C326.665 237.003 326.577 237.266 326.587 237.534V255.797C326.57 256.06 326.653 256.319 326.819 256.523C326.914 256.622 327.03 256.697 327.158 256.745C327.286 256.793 327.424 256.811 327.56 256.799C327.694 256.81 327.829 256.791 327.955 256.743C328.08 256.696 328.194 256.62 328.287 256.523C328.374 256.425 328.441 256.31 328.484 256.185C328.526 256.061 328.543 255.929 328.534 255.797V249.177Z" fill="white"/>
<path d="M343.035 234.892C343.079 234.892 343.122 234.902 343.162 234.919C343.202 234.937 343.238 234.962 343.268 234.994C343.322 235.061 343.357 235.141 343.369 235.226L345.389 258.12C345.395 258.17 345.39 258.22 345.375 258.268C345.36 258.315 345.335 258.359 345.302 258.396C345.257 258.442 345.202 258.478 345.142 258.5C345.082 258.523 345.017 258.532 344.953 258.527H344.125C343.872 258.537 343.623 258.455 343.427 258.294C343.259 258.137 343.152 257.927 343.122 257.699L342.933 254.491H341.233L341.059 257.699C341.031 257.931 340.917 258.143 340.739 258.294C340.545 258.459 340.295 258.542 340.042 258.527H339.228C339.164 258.532 339.099 258.523 339.039 258.5C338.979 258.478 338.924 258.442 338.879 258.396C338.846 258.359 338.821 258.315 338.806 258.268C338.791 258.22 338.786 258.17 338.792 258.12L340.797 235.357C340.81 235.272 340.845 235.191 340.899 235.125C340.929 235.093 340.965 235.067 341.005 235.05C341.045 235.032 341.088 235.023 341.132 235.023L343.035 234.892ZM341.335 252.531H342.788L342.047 239.973L341.335 252.531Z" fill="white"/>
<path d="M359.498 234.892C359.546 234.891 359.594 234.899 359.639 234.917C359.684 234.934 359.725 234.96 359.76 234.994C359.818 235.068 359.849 235.161 359.847 235.255V258.12C359.851 258.211 359.82 258.299 359.76 258.367C359.727 258.404 359.687 258.432 359.641 258.45C359.596 258.467 359.547 258.474 359.498 258.469H358.568C358.323 258.488 358.08 258.416 357.885 258.265C357.732 258.113 357.635 257.914 357.609 257.699C357.585 257.382 357.542 257.067 357.478 256.756C357.391 256.276 357.289 255.667 357.159 254.97C357.028 254.273 356.883 253.518 356.737 252.662L356.258 250.136C356.098 249.294 355.953 248.481 355.822 247.711C355.691 246.942 355.56 246.259 355.473 245.708L355.633 257.481C355.649 257.614 355.635 257.748 355.592 257.874C355.549 258 355.478 258.115 355.384 258.21C355.291 258.304 355.177 258.377 355.052 258.422C354.926 258.467 354.792 258.483 354.659 258.469H353.73C353.681 258.474 353.632 258.467 353.586 258.45C353.541 258.432 353.5 258.404 353.468 258.367C353.44 258.333 353.419 258.293 353.407 258.251C353.394 258.208 353.39 258.164 353.395 258.12V235.328C353.388 235.235 353.413 235.142 353.468 235.066C353.503 235.033 353.544 235.007 353.589 234.989C353.633 234.972 353.681 234.964 353.73 234.965H354.659C354.908 234.956 355.151 235.039 355.342 235.197C355.43 235.27 355.501 235.361 355.551 235.464C355.601 235.566 355.629 235.678 355.633 235.792C355.633 235.967 355.72 236.344 355.793 236.896C355.866 237.447 355.967 238.101 356.098 238.87C356.229 239.639 356.345 240.467 356.49 241.382C356.636 242.296 356.795 243.153 356.941 244.024C357.086 244.895 357.231 245.708 357.377 246.448C357.522 247.189 357.653 247.813 357.754 248.306L357.595 235.821C357.592 235.705 357.614 235.589 357.659 235.481C357.704 235.374 357.771 235.277 357.856 235.197C358.06 235.041 358.311 234.959 358.568 234.965L359.498 234.892Z" fill="white"/>
<path d="M268.218 320.444L269.598 307.944C269.598 301.092 263.539 296.737 257.189 294.152C246.727 289.928 222.766 280.39 222.766 280.39C222.766 280.39 220.311 295.415 206.667 295.415C194.243 295.415 190.93 280.39 190.93 280.39C190.93 280.39 165.487 289.013 156.522 294.152C150.579 297.579 143.445 302.181 143.445 305.403L145.392 320.444H268.218Z" fill="white"/>
<path d="M222.767 280.419C222.767 280.419 220.994 295.691 206.594 295.691C193.313 295.691 190.93 280.419 190.93 280.419V264.842H222.767V280.419Z" fill="#E78B7D"/>
<path d="M240.77 246.898C240.77 258.933 224.699 275.396 206.856 275.396C189.681 275.396 172.971 261.154 172.971 246.898L171.619 220.476C171.623 211.142 175.337 202.191 181.945 195.592C188.553 188.993 197.513 185.286 206.856 185.286C216.198 185.286 225.159 188.993 231.766 195.592C238.374 202.191 242.088 211.142 242.092 220.476L240.77 246.898Z" fill="#F39886"/>
<path d="M246.262 236.591C246.117 240.685 243.545 243.922 240.45 243.85C237.355 243.777 235.059 240.351 235.205 236.257C235.35 232.163 237.907 228.998 240.944 228.998C243.981 228.998 246.393 232.511 246.262 236.591Z" fill="#F39886"/>
<path d="M178.39 235.894C178.521 239.988 176.167 243.385 173.13 243.487C170.094 243.588 167.522 240.336 167.318 236.228C167.115 232.119 169.527 228.737 172.578 228.635C175.63 228.534 178.26 231.8 178.39 235.894Z" fill="#F39886"/>
<path d="M282.516 320.444C274.916 302.703 263.059 297.216 263.059 297.216C263.059 297.216 263.059 305.824 263.132 320.444H282.516Z" fill="white"/>
<path d="M151.64 320.444C151.64 305.723 151.713 297.012 151.713 297.012C141.262 301.981 132.706 310.203 127.33 320.444H151.64Z" fill="white"/>
<path d="M207.815 250.861H207.292C207.151 250.847 207.023 250.778 206.933 250.669C206.843 250.56 206.8 250.421 206.812 250.281C206.813 250.207 206.83 250.135 206.862 250.068C206.894 250.002 206.939 249.944 206.996 249.897C207.053 249.85 207.119 249.816 207.19 249.797C207.261 249.778 207.335 249.775 207.408 249.787C208.498 249.889 209.326 249.569 209.413 249.337C209.5 249.105 209.413 248.858 208.454 248.234C205.722 246.39 205.417 239.959 205.388 239.683C205.388 239.538 205.444 239.398 205.544 239.293C205.644 239.187 205.78 239.124 205.926 239.117C205.997 239.113 206.068 239.123 206.135 239.148C206.202 239.172 206.263 239.21 206.315 239.259C206.366 239.308 206.407 239.367 206.435 239.433C206.464 239.498 206.478 239.568 206.478 239.639C206.565 241.338 207.161 246.071 209.05 247.348C210.256 248.147 210.706 248.945 210.503 249.7C210.299 250.455 208.977 250.861 207.815 250.861Z" fill="#181F38"/>
<path d="M189.739 235.357C189.349 235.35 188.962 235.428 188.606 235.586C188.249 235.744 187.932 235.978 187.675 236.271C187.232 236.805 186.995 237.48 187.007 238.173C186.981 238.546 187.032 238.921 187.158 239.274C187.284 239.626 187.481 239.949 187.738 240.221C187.994 240.494 188.304 240.711 188.649 240.858C188.993 241.005 189.364 241.08 189.739 241.077C190.135 241.086 190.528 241.008 190.889 240.847C191.251 240.687 191.573 240.448 191.831 240.148C192.288 239.614 192.536 238.933 192.529 238.231C192.551 237.855 192.495 237.479 192.364 237.126C192.232 236.773 192.029 236.451 191.767 236.181C191.504 235.91 191.189 235.697 190.839 235.556C190.49 235.414 190.115 235.346 189.739 235.357Z" fill="#181F38"/>
<path d="M223.871 235.357C224.261 235.35 224.647 235.428 225.004 235.586C225.36 235.744 225.678 235.978 225.934 236.271C226.377 236.805 226.614 237.48 226.603 238.173C226.629 238.546 226.577 238.921 226.451 239.274C226.326 239.626 226.128 239.949 225.872 240.221C225.615 240.494 225.305 240.711 224.961 240.858C224.616 241.005 224.245 241.08 223.871 241.077C223.475 241.086 223.082 241.008 222.72 240.847C222.358 240.687 222.037 240.448 221.778 240.148C221.327 239.612 221.084 238.931 221.096 238.231C221.071 237.856 221.125 237.48 221.255 237.127C221.384 236.774 221.586 236.452 221.847 236.181C222.109 235.911 222.424 235.698 222.772 235.556C223.12 235.414 223.495 235.346 223.871 235.357Z" fill="#181F38"/>
<path d="M230.395 228.229C230.395 228.229 227.329 224.44 220.514 226.777" stroke="#181F38" stroke-width="1.06" stroke-linecap="round" stroke-linejoin="round"/>
<path d="M183.97 228.229C183.97 228.229 187.036 224.44 193.851 226.777" stroke="#181F38" stroke-width="1.06" stroke-linecap="round" stroke-linejoin="round"/>
<path d="M198.268 258.802C198.558 261.166 199.704 263.343 201.489 264.921C203.275 266.499 205.576 267.37 207.96 267.37C210.344 267.37 212.645 266.499 214.43 264.921C216.216 263.343 217.361 261.166 217.652 258.802H198.268Z" fill="white"/>
<path d="M236.367 196.842C236.367 196.842 243.182 194.897 234.405 189.583C228.895 186.374 222.523 184.954 216.17 185.518C216.17 185.518 220.892 175.792 198.268 183.297C179.785 189.424 169.629 202.954 171.619 230.537C171.857 234.061 172.283 237.57 172.898 241.048C172.898 241.048 174.714 229.869 182.009 226.022C188.838 222.436 188.199 213.189 187.298 210.75C190.393 214.306 200.041 208.616 210.546 217.21C217.361 222.785 224.568 222.698 234.115 222.335C233.228 230.464 240.784 240.598 240.784 240.598C247.236 215.003 236.367 196.842 236.367 196.842Z" fill="#181F38"/>
<path d="M266.808 264.551V292.672H240.174" stroke="white" stroke-width="1.4" stroke-linecap="round" stroke-linejoin="round"/>
<path d="M149.097 203.462V175.066H182.793" stroke="white" stroke-width="1.4" stroke-linecap="round" stroke-linejoin="round"/>
<path d="M238.663 175.066H266.808V201.676" stroke="white" stroke-width="1.4" stroke-linecap="round" stroke-linejoin="round"/>
<path d="M177.519 292.672H149.097V259.006" stroke="white" stroke-width="1.4" stroke-linecap="round" stroke-linejoin="round"/>
<path d="M256.899 259.383V282.8H234.754" stroke="white" stroke-width="1.16" stroke-linecap="round" stroke-linejoin="round"/>
<path d="M159.007 208.572V184.967H187.036" stroke="white" stroke-width="1.16" stroke-linecap="round" stroke-linejoin="round"/>
<path d="M233.504 184.967H256.898V207.091" stroke="white" stroke-width="1.16" stroke-linecap="round" stroke-linejoin="round"/>
<path d="M182.648 282.8H159.007V254.767" stroke="white" stroke-width="1.16" stroke-linecap="round" stroke-linejoin="round"/>
<path d="M239.273 217.878C239.273 218.386 239.122 218.883 238.84 219.305C238.557 219.728 238.155 220.057 237.685 220.252C237.215 220.446 236.698 220.497 236.199 220.398C235.701 220.299 235.242 220.054 234.883 219.695C234.523 219.335 234.278 218.878 234.179 218.379C234.079 217.881 234.13 217.364 234.325 216.894C234.52 216.425 234.849 216.024 235.272 215.741C235.695 215.459 236.192 215.308 236.701 215.308C237.039 215.308 237.373 215.375 237.685 215.504C237.997 215.633 238.281 215.822 238.52 216.061C238.759 216.299 238.948 216.583 239.077 216.894C239.207 217.206 239.273 217.54 239.273 217.878Z" fill="white"/>
<path d="M179.03 219.562C179.033 220.074 178.883 220.575 178.601 221.001C178.318 221.428 177.916 221.762 177.443 221.96C176.971 222.157 176.45 222.211 175.948 222.113C175.445 222.014 174.983 221.77 174.62 221.409C174.256 221.048 174.009 220.587 173.908 220.086C173.807 219.584 173.857 219.064 174.052 218.591C174.248 218.118 174.579 217.713 175.005 217.429C175.431 217.144 175.931 216.992 176.443 216.992C177.127 216.992 177.782 217.262 178.267 217.744C178.752 218.225 179.026 218.879 179.03 219.562Z" fill="white"/>
<path d="M208.439 227.096C208.442 227.608 208.293 228.109 208.011 228.536C207.728 228.963 207.325 229.296 206.853 229.494C206.381 229.692 205.86 229.745 205.357 229.647C204.855 229.549 204.392 229.304 204.029 228.943C203.666 228.582 203.418 228.122 203.317 227.62C203.216 227.119 203.267 226.598 203.462 226.125C203.657 225.652 203.989 225.248 204.415 224.963C204.84 224.679 205.341 224.527 205.853 224.527C206.536 224.527 207.192 224.797 207.677 225.279C208.161 225.76 208.436 226.414 208.439 227.096Z" fill="white"/>
<path d="M174.496 242.151C174.496 242.659 174.345 243.156 174.063 243.579C173.78 244.001 173.379 244.33 172.909 244.525C172.439 244.719 171.922 244.77 171.423 244.671C170.924 244.572 170.466 244.327 170.106 243.968C169.746 243.609 169.501 243.151 169.402 242.652C169.303 242.154 169.354 241.637 169.548 241.168C169.743 240.698 170.073 240.297 170.496 240.014C170.919 239.732 171.416 239.581 171.924 239.581C172.607 239.581 173.261 239.852 173.743 240.334C174.225 240.816 174.496 241.469 174.496 242.151Z" fill="white"/>
<path d="M210.125 276.848C210.125 277.356 209.974 277.853 209.692 278.275C209.409 278.698 209.007 279.027 208.537 279.222C208.067 279.416 207.55 279.467 207.051 279.368C206.552 279.269 206.094 279.024 205.734 278.665C205.375 278.305 205.13 277.847 205.031 277.349C204.931 276.85 204.982 276.334 205.177 275.864C205.372 275.395 205.701 274.993 206.124 274.711C206.547 274.429 207.044 274.278 207.553 274.278C208.234 274.282 208.886 274.554 209.367 275.035C209.849 275.516 210.121 276.167 210.125 276.848Z" fill="white"/>
<path d="M209.108 251.079C209.108 251.59 208.956 252.09 208.672 252.515C208.388 252.94 207.984 253.271 207.511 253.467C207.039 253.662 206.518 253.713 206.017 253.614C205.515 253.514 205.054 253.268 204.692 252.906C204.331 252.545 204.084 252.085 203.985 251.583C203.885 251.082 203.936 250.562 204.132 250.09C204.328 249.618 204.659 249.215 205.084 248.931C205.51 248.647 206.01 248.495 206.521 248.495C207.207 248.495 207.865 248.767 208.35 249.252C208.835 249.737 209.108 250.394 209.108 251.079Z" fill="white"/>
<path d="M240 243.356C240 243.864 239.849 244.361 239.566 244.783C239.284 245.206 238.882 245.535 238.412 245.73C237.942 245.924 237.425 245.975 236.926 245.876C236.427 245.777 235.969 245.532 235.609 245.173C235.249 244.814 235.004 244.356 234.905 243.857C234.806 243.359 234.857 242.842 235.052 242.373C235.246 241.903 235.576 241.502 235.999 241.219C236.422 240.937 236.919 240.786 237.428 240.786C238.11 240.786 238.764 241.057 239.246 241.539C239.729 242.021 240 242.674 240 243.356Z" fill="white"/>
<path d="M185.22 263.927C185.217 264.435 185.064 264.93 184.779 265.351C184.495 265.771 184.092 266.098 183.622 266.291C183.152 266.483 182.635 266.532 182.137 266.431C181.639 266.33 181.182 266.084 180.824 265.724C180.466 265.365 180.222 264.907 180.124 264.409C180.026 263.911 180.078 263.395 180.273 262.926C180.468 262.457 180.798 262.057 181.221 261.775C181.643 261.493 182.14 261.343 182.648 261.343C182.987 261.343 183.323 261.41 183.635 261.54C183.948 261.67 184.233 261.861 184.472 262.101C184.711 262.341 184.9 262.626 185.028 262.939C185.157 263.253 185.222 263.589 185.22 263.927Z" fill="white"/>
<path d="M230.221 265.451C230.221 265.96 230.07 266.456 229.787 266.879C229.505 267.302 229.103 267.631 228.633 267.825C228.163 268.02 227.646 268.071 227.147 267.972C226.648 267.873 226.19 267.628 225.83 267.268C225.47 266.909 225.225 266.451 225.126 265.953C225.027 265.454 225.078 264.938 225.273 264.468C225.467 263.999 225.797 263.597 226.22 263.315C226.643 263.033 227.14 262.882 227.649 262.882C228.331 262.882 228.985 263.153 229.467 263.635C229.95 264.116 230.221 264.77 230.221 265.451Z" fill="white"/>
<path d="M182.648 263.942L207.553 276.862L227.649 265.451L237.297 243.719L236.701 217.878H176.647L171.924 242.122L182.648 263.942Z" stroke="white" stroke-width="0.42" stroke-miterlimit="10"/>
<path d="M182.648 263.942L206.013 252.226L227.649 265.451" stroke="white" stroke-width="0.42" stroke-miterlimit="10"/>
<path d="M206.013 249.439L205.853 227.096L236.701 217.878" stroke="white" stroke-width="0.42" stroke-miterlimit="10"/>
<path d="M236.846 242.514L205.853 226.414L173.029 241.57L206.521 251.079L236.701 243.719" stroke="white" stroke-width="0.42" stroke-miterlimit="10"/>
<path d="M183.534 262.911L205.853 227.096L175.572 219.925" stroke="white" stroke-width="0.42" stroke-miterlimit="10"/>
<path d="M227.431 264.261L205.853 227.096" stroke="white" stroke-width="0.42" stroke-miterlimit="10"/>
<path d="M207.553 276.862L206.521 251.079" stroke="white" stroke-width="0.42" stroke-miterlimit="10"/>
<g opacity="0.3">
<path opacity="0.3" d="M417.271 151.562H379.245L155.81 350.219H197.934L417.271 151.562Z" fill="#BCE3FA"/>
<path opacity="0.3" d="M363.509 151.562H311.736C311.736 151.562 106.857 327.107 106.61 327.107V350.204H136.194L363.509 151.562Z" fill="#BCE3FA"/>
</g>
<path d="M133.608 83.8963L190.146 135.695" stroke="white" stroke-width="1.15" stroke-linecap="round" stroke-linejoin="round" stroke-dasharray="2.31 3.08"/>
<path d="M216.518 63.0928V131.441" stroke="white" stroke-width="1.15" stroke-linecap="round" stroke-linejoin="round" stroke-dasharray="2.31 3.08"/>
<path d="M324.93 65.2123V127.623" stroke="white" stroke-width="1.15" stroke-linecap="round" stroke-linejoin="round" stroke-dasharray="2.31 3.08"/>
<path d="M400.009 90.2695L346.057 135.695" stroke="white" stroke-width="1.15" stroke-linecap="round" stroke-linejoin="round" stroke-dasharray="2.31 3.08"/>
<path d="M150.768 69.9886C150.768 77.3161 148.593 84.479 144.519 90.5716C140.444 96.6642 134.653 101.413 127.877 104.217C121.101 107.021 113.645 107.755 106.452 106.325C99.2588 104.896 92.6515 101.367 87.4655 96.1858C82.2795 91.0045 78.7478 84.4031 77.317 77.2164C75.8862 70.0297 76.6206 62.5805 79.4272 55.8107C82.2338 49.041 86.9867 43.2548 93.0847 39.1839C99.1828 35.1129 106.352 32.9401 113.686 32.9401C123.521 32.9401 132.953 36.8434 139.907 43.7913C146.861 50.7393 150.768 60.1627 150.768 69.9886Z" fill="white"/>
<path d="M132.096 47.6172C129.531 45.3384 126.256 44.0176 122.826 43.8795C119.397 43.7414 116.025 44.7945 113.285 46.8597C110.545 48.9249 108.605 51.8748 107.796 55.2074C106.987 58.5401 107.359 62.0499 108.848 65.1398L107.395 65.5898L107.467 69.5531L90.2196 89.2097L90.5683 95.0167L97.107 95.307L97.8772 92.9552L99.6789 92.7665L100.914 91.3147L101.147 89.7178L103.37 88.6145L103.631 88.3241L103.515 87.366L104.663 87.1482L104.866 86.9159L105.389 85.2174L107.395 83.9108L108.441 80.9057L111.187 79.7588L112.379 78.4087C112.509 77.799 112.916 76.5795 112.931 76.565L117.813 74.5326L118.089 72.9647C121.328 73.9086 124.792 73.7225 127.911 72.4371C131.029 71.1516 133.617 68.8435 135.248 65.8927C136.878 62.9419 137.455 59.5242 136.882 56.2024C136.309 52.8807 134.621 49.8527 132.096 47.6172ZM129.859 55.4857C129.205 56.2249 128.285 56.6746 127.3 56.7359C126.315 56.7971 125.346 56.4649 124.606 55.8123C123.866 55.1597 123.416 54.2401 123.355 53.2559C123.293 52.2717 123.626 51.3035 124.279 50.5643C124.602 50.1982 124.995 49.8994 125.434 49.6849C125.873 49.4704 126.35 49.3444 126.838 49.314C127.325 49.2837 127.814 49.3496 128.277 49.5081C128.739 49.6666 129.165 49.9145 129.532 50.2376C129.898 50.5608 130.197 50.9528 130.412 51.3915C130.627 51.8301 130.753 52.3067 130.783 52.794C130.813 53.2813 130.747 53.7698 130.589 54.2317C130.43 54.6935 130.182 55.1196 129.859 55.4857Z" fill="#F59B1A"/>
<path d="M253.6 37.0485C253.6 44.376 251.425 51.539 247.351 57.6316C243.276 63.7242 237.485 68.4728 230.709 71.2769C223.933 74.081 216.477 74.8147 209.284 73.3852C202.091 71.9556 195.484 68.4271 190.298 63.2458C185.112 58.0645 181.58 51.463 180.149 44.2763C178.718 37.0896 179.453 29.6404 182.259 22.8707C185.066 16.1009 189.819 10.3147 195.917 6.2438C202.015 2.17286 209.184 0 216.518 0C226.353 0 235.785 3.90332 242.739 10.8513C249.693 17.7992 253.6 27.2226 253.6 37.0485Z" fill="white"/>
<path d="M248.965 37.0921C248.965 37.0921 234.434 51.8563 216.518 51.8563C198.602 51.8563 184.072 37.0921 184.072 37.0921C184.072 37.0921 198.602 22.2262 216.518 22.2262C234.434 22.2262 248.965 37.0921 248.965 37.0921Z" fill="#91B7E2"/>
<path d="M229.857 37.0485C229.854 39.6837 229.07 42.2589 227.602 44.4486C226.135 46.6383 224.051 48.3442 221.613 49.3507C219.175 50.3572 216.494 50.619 213.907 50.1032C211.321 49.5873 208.945 48.3169 207.081 46.4525C205.217 44.5881 203.948 42.2134 203.435 39.6286C202.921 37.0438 203.186 34.365 204.196 31.9306C205.206 29.4963 206.916 27.4157 209.109 25.952C211.302 24.4882 213.881 23.707 216.518 23.707C218.271 23.707 220.007 24.0522 221.626 24.7228C223.246 25.3935 224.717 26.3764 225.956 27.6155C227.194 28.8546 228.177 30.3254 228.846 31.944C229.516 33.5626 229.859 35.2972 229.857 37.0485Z" fill="#6E96CE"/>
<path d="M223.217 37.0485C223.217 38.3722 222.824 39.6661 222.088 40.7667C221.352 41.8673 220.306 42.7251 219.082 43.2316C217.858 43.7382 216.511 43.8707 215.212 43.6125C213.912 43.3542 212.719 42.7168 211.782 41.7808C210.845 40.8449 210.207 39.6524 209.949 38.3542C209.69 37.0559 209.823 35.7103 210.33 34.4874C210.837 33.2645 211.695 32.2193 212.797 31.4839C213.898 30.7485 215.194 30.356 216.518 30.356C217.399 30.3541 218.27 30.5259 219.084 30.8615C219.898 31.1972 220.637 31.6901 221.259 32.3119C221.882 32.9337 222.375 33.6723 222.711 34.4851C223.047 35.298 223.219 36.1691 223.217 37.0485Z" fill="#040015"/>
<path d="M358.772 37.0485C358.772 44.3754 356.597 51.5378 352.523 57.6301C348.449 63.7224 342.659 68.471 335.884 71.2755C329.109 74.08 321.654 74.8146 314.461 73.3862C307.268 71.9579 300.661 68.4308 295.474 63.2509C290.288 58.071 286.755 51.471 285.322 44.2852C283.89 37.0995 284.622 29.6507 287.427 22.8807C290.231 16.1107 294.982 10.3235 301.078 6.25086C307.174 2.17817 314.342 0.00287388 321.675 2.84457e-06C326.546 -0.00190409 331.37 0.954983 335.87 2.81599C340.371 4.677 344.461 7.40567 347.905 10.8461C351.35 14.2866 354.083 18.3714 355.947 22.8673C357.812 27.3632 358.772 32.182 358.772 37.0485Z" fill="white"/>
<path d="M338.879 31.2125H333.314C333.314 12.5576 325.163 12.5576 321.69 12.5576C318.784 12.5576 310.066 12.5576 310.066 31.2125H304.486C304.486 23.0101 306.113 16.7822 309.31 12.6882C310.78 10.8348 312.664 9.35177 314.811 8.35835C316.959 7.36492 319.31 6.88883 321.675 6.96836C327.008 6.96836 331.164 8.76852 334.026 12.3108C337.296 16.3757 338.879 22.5456 338.879 31.2125Z" fill="#181F38"/>
<path d="M341.175 29.993H302.175V60.7265H341.175V29.993Z" fill="#F59B1A"/>
<path d="M326.805 43.3491C326.805 42.4707 326.583 41.6065 326.158 40.8376C325.733 40.0688 325.119 39.4205 324.374 38.9536C323.629 38.4868 322.778 38.2167 321.9 38.1687C321.023 38.1208 320.147 38.2965 319.356 38.6794C318.564 39.0624 317.884 39.64 317.377 40.358C316.871 41.0759 316.555 41.9107 316.46 42.784C316.365 43.6572 316.494 44.5403 316.834 45.3502C317.175 46.16 317.715 46.8702 318.406 47.414V55.1227H324.828V47.414C325.444 46.9295 325.941 46.3121 326.283 45.6081C326.626 44.9041 326.804 44.1317 326.805 43.3491Z" fill="#181F38"/>
<path d="M457.869 69.9886C457.869 77.3161 455.694 84.479 451.62 90.5716C447.545 96.6642 441.754 101.413 434.978 104.217C428.202 107.021 420.746 107.755 413.553 106.325C406.36 104.896 399.753 101.367 394.567 96.1858C389.381 91.0045 385.849 84.4031 384.418 77.2164C382.988 70.0297 383.722 62.5805 386.529 55.8107C389.335 49.041 394.088 43.2548 400.186 39.1839C406.284 35.1129 413.453 32.9401 420.788 32.9401C430.622 32.9401 440.054 36.8434 447.008 43.7913C453.962 50.7393 457.869 60.1627 457.869 69.9886Z" fill="white"/>
<path d="M420.541 97.9928C402.596 97.9928 394.938 58.665 394.938 58.665C396.57 58.9434 398.246 58.7911 399.8 58.2233C401.355 57.6555 402.734 56.6918 403.802 55.4276C406.019 52.7222 407.317 49.3815 407.507 45.8896H435.551C435.491 49.0275 436.322 52.1181 437.948 54.8034C440.752 59.5506 446.666 59.1586 446.666 59.1586C446.666 59.1586 439.14 97.9928 420.541 97.9928Z" fill="#181F38"/>
<path d="M420.599 92.1277C406.693 92.1277 400.765 61.6411 400.765 61.6411C402.029 61.8526 403.327 61.7308 404.53 61.2878C405.732 60.8448 406.799 60.0959 407.623 59.115C409.36 57.0325 410.379 54.4465 410.529 51.7402H432.238C432.202 54.1716 432.846 56.5648 434.098 58.6505C434.841 59.7415 435.85 60.6257 437.029 61.22C438.208 61.8142 439.52 62.099 440.84 62.0476C440.84 62.0476 434.998 92.1277 420.599 92.1277Z" fill="#91B7E2"/>
<path d="M421.093 173.861H419.422" stroke="white" stroke-width="1.15" stroke-linecap="round" stroke-linejoin="round"/>
<path d="M414.801 173.861H368.609" stroke="white" stroke-width="1.15" stroke-linecap="round" stroke-linejoin="round" stroke-dasharray="2.38 3.18"/>
<path d="M366.298 173.861H364.627L363.567 175.167" stroke="white" stroke-width="1.15" stroke-linecap="round" stroke-linejoin="round"/>
<path d="M360.384 179.131L356.389 184.081" stroke="white" stroke-width="1.15" stroke-linecap="round" stroke-linejoin="round" stroke-dasharray="2.63 3.5"/>
<path d="M354.79 186.07L353.744 187.377" stroke="white" stroke-width="1.15" stroke-linecap="round" stroke-linejoin="round"/>
<path d="M425.248 173.919C425.248 174.622 425.04 175.31 424.648 175.895C424.257 176.48 423.701 176.936 423.051 177.205C422.4 177.474 421.684 177.545 420.994 177.407C420.303 177.27 419.669 176.931 419.171 176.434C418.673 175.937 418.334 175.303 418.197 174.613C418.059 173.923 418.13 173.208 418.399 172.558C418.669 171.908 419.125 171.352 419.711 170.962C420.296 170.571 420.984 170.362 421.688 170.362C422.156 170.36 422.62 170.451 423.053 170.629C423.486 170.807 423.879 171.069 424.21 171.4C424.541 171.73 424.803 172.123 424.981 172.556C425.16 172.988 425.25 173.451 425.248 173.919Z" fill="white"/>
<path d="M357.319 187.362C357.319 188.066 357.11 188.753 356.719 189.338C356.327 189.923 355.771 190.379 355.121 190.648C354.47 190.917 353.755 190.988 353.064 190.851C352.374 190.713 351.739 190.375 351.241 189.877C350.743 189.38 350.404 188.746 350.267 188.056C350.13 187.366 350.2 186.651 350.47 186.001C350.739 185.351 351.195 184.796 351.781 184.405C352.366 184.014 353.054 183.805 353.759 183.805C354.703 183.805 355.608 184.18 356.276 184.847C356.944 185.514 357.319 186.419 357.319 187.362Z" fill="white"/>
<path d="M524.985 142.227H433.255V201.952H524.985V142.227Z" fill="white"/>
<path d="M453.002 159.314C453.002 159.547 444.705 151.78 444.705 151.78C445.754 150.624 447.035 149.701 448.465 149.071C449.894 148.44 451.439 148.117 453.002 148.121V159.314Z" fill="#91B7E2"/>
<path d="M464.205 159.314H453.002V148.121C455.973 148.121 458.822 149.301 460.923 151.4C463.024 153.499 464.205 156.346 464.205 159.314Z" fill="#F59B1A"/>
<path d="M441.784 159.402H453.002V170.609C450.027 170.609 447.173 169.428 445.07 167.326C442.966 165.225 441.784 162.374 441.784 159.402Z" fill="#048A97"/>
<path d="M453.002 159.314H441.784C441.775 156.528 442.812 153.84 444.69 151.78L453.002 159.314Z" fill="#181F38"/>
<path d="M453.002 159.402C453.002 159.169 461.284 166.936 461.284 166.936C460.239 168.095 458.962 169.021 457.534 169.654C456.107 170.287 454.563 170.612 453.002 170.609V159.402Z" fill="#F299C1"/>
<path d="M453.002 159.402H464.205C464.214 162.188 463.177 164.876 461.299 166.936L453.002 159.402Z" fill="#E64677"/>
<path d="M453.002 184.851C453.002 185.083 444.705 177.302 444.705 177.302C445.754 176.145 447.035 175.223 448.465 174.592C449.894 173.962 451.439 173.639 453.002 173.643V184.851Z" fill="#91B7E2"/>
<path d="M464.205 184.851H453.002V173.643C454.474 173.643 455.932 173.933 457.292 174.497C458.652 175.06 459.888 175.886 460.929 176.927C461.969 177.968 462.794 179.203 463.356 180.563C463.918 181.922 464.207 183.38 464.205 184.851Z" fill="#F59B1A"/>
<path d="M441.784 184.851H453.002V196.058C451.528 196.06 450.069 195.771 448.707 195.209C447.345 194.646 446.107 193.821 445.065 192.78C444.023 191.739 443.197 190.502 442.634 189.142C442.071 187.781 441.782 186.323 441.784 184.851Z" fill="#048A97"/>
<path d="M453.002 184.851H441.784C441.773 182.06 442.81 179.366 444.69 177.302L453.002 184.851Z" fill="#181F38"/>
<path d="M453.002 184.851C453.002 184.633 461.284 192.4 461.284 192.4C460.236 193.554 458.958 194.476 457.531 195.106C456.104 195.736 454.561 196.06 453.002 196.058V184.851Z" fill="#F299C1"/>
<path d="M453.002 184.851H464.205C464.213 187.641 463.176 190.334 461.299 192.4L453.002 184.851Z" fill="#E64677"/>
<path d="M516.471 151.243H471.223V153.507H516.471V151.243Z" fill="#181F38"/>
<path d="M516.471 158.197H471.223V160.461H516.471V158.197Z" fill="#181F38"/>
<path d="M516.471 165.165H471.223V167.43H516.471V165.165Z" fill="#181F38"/>
<path d="M515.802 176.764H470.554V179.029H515.802V176.764Z" fill="#181F38"/>
<path d="M515.802 183.718H470.554V185.983H515.802V183.718Z" fill="#181F38"/>
<path d="M515.802 190.687H470.554V192.951H515.802V190.687Z" fill="#181F38"/>
<path d="M421.093 301.643H419.422" stroke="white" stroke-width="1.15" stroke-linecap="round" stroke-linejoin="round"/>
<path d="M414.801 301.643H368.609" stroke="white" stroke-width="1.15" stroke-linecap="round" stroke-linejoin="round" stroke-dasharray="2.38 3.18"/>
<path d="M366.298 301.643H364.627L363.567 300.337" stroke="white" stroke-width="1.15" stroke-linecap="round" stroke-linejoin="round"/>
<path d="M360.384 296.374L356.389 291.409" stroke="white" stroke-width="1.15" stroke-linecap="round" stroke-linejoin="round" stroke-dasharray="2.63 3.51"/>
<path d="M354.79 289.434L353.744 288.128" stroke="white" stroke-width="1.15" stroke-linecap="round" stroke-linejoin="round"/>
<path d="M425.248 301.672C425.248 300.969 425.04 300.281 424.648 299.696C424.257 299.112 423.701 298.656 423.051 298.386C422.4 298.117 421.684 298.047 420.994 298.184C420.303 298.321 419.669 298.66 419.171 299.157C418.673 299.655 418.334 300.289 418.197 300.979C418.059 301.669 418.13 302.384 418.399 303.034C418.669 303.683 419.125 304.239 419.711 304.63C420.296 305.021 420.984 305.229 421.688 305.229C422.633 305.229 423.538 304.855 424.206 304.187C424.873 303.52 425.248 302.616 425.248 301.672Z" fill="white"/>
<path d="M357.319 288.113C357.316 287.41 357.104 286.724 356.712 286.141C356.319 285.558 355.762 285.104 355.111 284.837C354.46 284.571 353.745 284.502 353.055 284.641C352.366 284.78 351.733 285.12 351.236 285.618C350.74 286.116 350.402 286.75 350.266 287.439C350.13 288.129 350.201 288.843 350.471 289.492C350.741 290.141 351.197 290.696 351.782 291.086C352.367 291.476 353.055 291.684 353.759 291.684C354.227 291.684 354.691 291.592 355.124 291.412C355.557 291.233 355.95 290.969 356.281 290.638C356.612 290.306 356.874 289.912 357.052 289.479C357.23 289.046 357.32 288.581 357.319 288.113Z" fill="white"/>
<path d="M525 267.484H433.255V327.209H525V267.484Z" fill="white"/>
<path d="M453.002 286.865C453.002 287.082 444.705 279.316 444.705 279.316C445.754 278.16 447.035 277.237 448.465 276.606C449.894 275.976 451.439 275.653 453.002 275.657V286.865Z" fill="#91B7E2"/>
<path d="M464.205 286.865H453.002V275.657C454.474 275.657 455.932 275.947 457.292 276.511C458.652 277.074 459.888 277.9 460.929 278.941C461.969 279.982 462.794 281.217 463.356 282.577C463.918 283.937 464.207 285.394 464.205 286.865Z" fill="#F59B1A"/>
<path d="M441.784 286.865H453.002V298.072C450.027 298.072 447.173 296.891 445.07 294.79C442.966 292.688 441.784 289.837 441.784 286.865Z" fill="#048A97"/>
<path d="M453.002 286.865H441.784C441.776 284.074 442.812 281.381 444.69 279.316L453.002 286.865Z" fill="#181F38"/>
<path d="M453.002 286.865C453.002 286.632 461.284 294.414 461.284 294.414C460.236 295.568 458.958 296.49 457.531 297.12C456.104 297.75 454.561 298.075 453.002 298.072V286.865Z" fill="#F299C1"/>
<path d="M453.002 286.865H464.205C464.213 289.655 463.176 292.348 461.299 294.414L453.002 286.865Z" fill="#E64677"/>
<path d="M516.471 278.778H471.223V281.043H516.471V278.778Z" fill="#181F38"/>
<path d="M516.471 285.732H471.223V287.997H516.471V285.732Z" fill="#181F38"/>
<path d="M516.471 292.701H471.223V294.965H516.471V292.701Z" fill="#181F38"/>
<path d="M459.627 305.607H446.55V318.672H459.627V305.607Z" fill="#91B7E2"/>
<path d="M476.991 305.607H463.914V318.672H476.991V305.607Z" fill="#F59B1A"/>
<path d="M494.341 305.607H481.263V318.672H494.341V305.607Z" fill="#048A97"/>
<path d="M511.705 305.607H498.627V318.672H511.705V305.607Z" fill="#E64677"/>
<path d="M106.712 152.999H108.383" stroke="white" stroke-width="1.15" stroke-linecap="round" stroke-linejoin="round"/>
<path d="M113.003 152.999H159.196" stroke="white" stroke-width="1.15" stroke-linecap="round" stroke-linejoin="round" stroke-dasharray="2.38 3.18"/>
<path d="M161.492 152.999H163.177L164.223 154.306" stroke="white" stroke-width="1.15" stroke-linecap="round" stroke-linejoin="round"/>
<path d="M167.42 158.269L171.401 163.234" stroke="white" stroke-width="1.15" stroke-linecap="round" stroke-linejoin="round" stroke-dasharray="2.63 3.51"/>
<path d="M173 165.208L174.06 166.515" stroke="white" stroke-width="1.15" stroke-linecap="round" stroke-linejoin="round"/>
<path d="M102.556 152.999C102.556 153.703 102.765 154.39 103.156 154.975C103.547 155.56 104.103 156.016 104.754 156.285C105.404 156.555 106.12 156.625 106.81 156.488C107.501 156.351 108.135 156.012 108.633 155.514C109.131 155.017 109.47 154.383 109.607 153.693C109.745 153.003 109.674 152.288 109.405 151.638C109.135 150.988 108.679 150.433 108.094 150.042C107.508 149.651 106.82 149.443 106.116 149.443C105.172 149.443 104.266 149.817 103.599 150.484C102.931 151.151 102.556 152.056 102.556 152.999Z" fill="white"/>
<path d="M170.5 166.515C170.5 167.219 170.709 167.906 171.1 168.491C171.492 169.076 172.048 169.532 172.698 169.801C173.348 170.07 174.064 170.141 174.755 170.004C175.445 169.866 176.08 169.528 176.578 169.03C177.075 168.533 177.415 167.899 177.552 167.209C177.689 166.519 177.619 165.804 177.349 165.154C177.08 164.504 176.624 163.949 176.038 163.558C175.453 163.167 174.764 162.958 174.06 162.958C173.116 162.958 172.211 163.333 171.543 164C170.875 164.667 170.5 165.572 170.5 166.515Z" fill="white"/>
<path d="M94.5498 121.38H2.80444V181.105H94.5498V121.38Z" fill="white"/>
<path d="M24.571 162.436C24.571 162.668 32.8679 154.901 32.8679 154.901C31.8172 153.746 30.5361 152.824 29.1071 152.194C27.6782 151.564 26.133 151.24 24.571 151.243V162.436Z" fill="#91B7E2"/>
<path d="M13.3245 162.436H24.571V151.243C23.0967 151.239 21.6361 151.525 20.2727 152.086C18.9093 152.647 17.6699 153.47 16.6254 154.51C15.5809 155.549 14.7517 156.785 14.1853 158.144C13.6189 159.504 13.3264 160.963 13.3245 162.436Z" fill="#F59B1A"/>
<path d="M35.7595 162.45H24.571V173.658C27.5411 173.65 30.3868 172.466 32.4842 170.365C34.5817 168.264 35.7595 165.418 35.7595 162.45Z" fill="#048A97"/>
<path d="M24.571 162.436H35.7595C35.7614 159.651 34.7255 156.965 32.8534 154.901L24.571 162.436Z" fill="#181F38"/>
<path d="M24.5709 162.45C24.5709 162.218 16.274 169.999 16.274 169.999C17.3248 171.154 18.6059 172.076 20.0349 172.706C21.4638 173.336 23.009 173.66 24.5709 173.658V162.45Z" fill="#F299C1"/>
<path d="M24.571 162.45H13.3244C13.3174 165.241 14.3538 167.933 16.2305 169.999L24.571 162.45Z" fill="#E64677"/>
<path d="M85.8895 129.263H11.3192V131.528H85.8895V129.263Z" fill="#181F38"/>
<path d="M85.8895 136.217H11.3192V138.482H85.8895V136.217Z" fill="#181F38"/>
<path d="M85.8895 143.171H11.3192V145.436H85.8895V143.171Z" fill="#181F38"/>
<path d="M84.4365 157.703H41.6879V166.515H84.4365V157.703Z" fill="#91B7E2"/>
<path d="M84.4365 157.703H62.1467V166.515H84.4365V157.703Z" fill="#181F38"/>
<path d="M103.893 300.976H105.578" stroke="white" stroke-width="1.15" stroke-linecap="round" stroke-linejoin="round"/>
<path d="M110.199 300.976H156.391" stroke="white" stroke-width="1.15" stroke-linecap="round" stroke-linejoin="round" stroke-dasharray="2.38 3.18"/>
<path d="M158.702 300.976H160.373L161.419 299.669" stroke="white" stroke-width="1.15" stroke-linecap="round" stroke-linejoin="round"/>
<path d="M164.616 295.706L168.597 290.741" stroke="white" stroke-width="1.15" stroke-linecap="round" stroke-linejoin="round" stroke-dasharray="2.63 3.5"/>
<path d="M170.195 288.766L171.256 287.46" stroke="white" stroke-width="1.15" stroke-linecap="round" stroke-linejoin="round"/>
<path d="M99.7516 300.961C99.763 300.26 99.9815 299.578 100.38 299.001C100.778 298.424 101.338 297.977 101.989 297.717C102.64 297.456 103.354 297.394 104.041 297.538C104.728 297.682 105.357 298.025 105.849 298.525C106.341 299.024 106.674 299.658 106.807 300.346C106.939 301.035 106.866 301.747 106.595 302.393C106.324 303.04 105.867 303.592 105.283 303.98C104.699 304.369 104.013 304.576 103.312 304.576C102.839 304.576 102.371 304.482 101.936 304.3C101.5 304.117 101.105 303.85 100.773 303.514C100.442 303.177 100.181 302.778 100.006 302.34C99.8302 301.902 99.7439 301.433 99.7516 300.961Z" fill="white"/>
<path d="M167.696 287.445C167.699 286.743 167.91 286.056 168.303 285.473C168.696 284.89 169.253 284.437 169.904 284.17C170.554 283.903 171.27 283.834 171.959 283.973C172.649 284.112 173.282 284.452 173.778 284.95C174.275 285.448 174.612 286.082 174.749 286.771C174.885 287.461 174.813 288.175 174.544 288.824C174.274 289.473 173.817 290.028 173.232 290.418C172.647 290.808 171.96 291.017 171.256 291.017C170.787 291.017 170.323 290.924 169.89 290.745C169.457 290.565 169.064 290.302 168.734 289.97C168.403 289.638 168.141 289.244 167.963 288.811C167.785 288.378 167.694 287.914 167.696 287.445Z" fill="white"/>
<path d="M91.7308 266.816H0V326.555H91.7308V266.816Z" fill="white"/>
<path d="M25.3846 285.457C25.3846 285.689 33.6961 277.907 33.6961 277.907C32.6425 276.752 31.3589 275.83 29.9275 275.2C28.4962 274.57 26.9487 274.246 25.3846 274.249V285.457Z" fill="#91B7E2"/>
<path d="M14.1818 285.456H25.3847V274.249C22.4122 274.253 19.5627 275.435 17.4622 277.537C15.3616 279.638 14.1818 282.487 14.1818 285.456Z" fill="#F59B1A"/>
<path d="M36.6022 285.457H25.3846V296.664C26.8583 296.666 28.3178 296.377 29.6797 295.815C31.0415 295.252 32.2789 294.427 33.3209 293.386C34.3629 292.345 35.1891 291.108 35.7522 289.748C36.3152 288.387 36.6041 286.929 36.6022 285.457Z" fill="#048A97"/>
<path d="M25.3846 285.456H36.6021C36.6035 282.667 35.5679 279.977 33.6961 277.907L25.3846 285.456Z" fill="#181F38"/>
<path d="M25.3848 285.471C25.3848 285.239 17.1024 293.006 17.1024 293.006C18.1504 294.16 19.4289 295.082 20.8555 295.712C22.2821 296.342 23.825 296.666 25.3848 296.664V285.471Z" fill="#F299C1"/>
<path d="M25.3847 285.471H14.1817C14.1727 288.257 15.2097 290.946 17.0878 293.006L25.3847 285.471Z" fill="#E64677"/>
<path d="M65.358 285.456C65.358 285.689 73.6549 277.907 73.6549 277.907C72.6042 276.753 71.3231 275.831 69.8941 275.201C68.4652 274.571 66.92 274.246 65.358 274.249V285.456Z" fill="#91B7E2"/>
<path d="M54.1405 285.456H65.358V274.249C62.383 274.249 59.5297 275.43 57.426 277.532C55.3223 279.633 54.1405 282.484 54.1405 285.456Z" fill="#F59B1A"/>
<path d="M76.5756 285.457H65.358V296.664C66.8311 296.664 68.2898 296.374 69.6508 295.811C71.0118 295.248 72.2484 294.422 73.29 293.381C74.3317 292.341 75.1579 291.105 75.7217 289.745C76.2854 288.386 76.5756 286.928 76.5756 285.457Z" fill="#048A97"/>
<path d="M65.358 285.456H76.5756C76.5825 282.666 75.5461 279.974 73.6695 277.907L65.358 285.456Z" fill="#181F38"/>
<path d="M65.3581 285.471C65.3581 285.239 57.0612 293.006 57.0612 293.006C58.1119 294.16 59.393 295.082 60.822 295.712C62.2509 296.342 63.7961 296.667 65.3581 296.664V285.471Z" fill="#F299C1"/>
<path d="M65.358 285.471H54.1405C54.1386 288.256 55.1745 290.942 57.0466 293.006L65.358 285.471Z" fill="#E64677"/>
<path d="M84.5092 305.534H9.80811V315.029H84.5092V305.534Z" fill="#91B7E2"/>
<path d="M84.5092 305.534H32.3158V315.029H84.5092V305.534Z" fill="#181F38"/>
</g>
<defs>
<clipPath id="clip0_112_490">
<rect width="525" height="392" fill="white"/>
</clipPath>
</defs>
</svg>
