<svg width="564" height="564" viewBox="0 0 564 564" fill="none" xmlns="http://www.w3.org/2000/svg">
<path d="M138.38 91.4834C147.617 93.4819 156.454 97.079 164.626 102.142L160.673 108.181C160.363 108.67 160.229 109.292 160.363 109.869C160.496 110.446 160.807 110.935 161.34 111.29C169.733 116.797 176.794 123.769 182.345 131.985C182.789 132.607 183.455 132.962 184.21 132.962C184.654 132.962 185.054 132.829 185.454 132.562L191.449 128.521C196.556 136.559 200.242 145.308 202.463 154.589L195.402 156.055C194.203 156.321 193.448 157.476 193.67 158.675C195.712 168.578 195.757 178.482 193.847 188.163C193.714 188.74 193.847 189.362 194.203 189.85C194.513 190.339 195.046 190.694 195.624 190.783L202.729 192.16C200.731 201.441 197.134 210.234 192.071 218.406L186.031 214.453C185.676 214.231 185.232 214.098 184.832 214.098C184.699 214.098 184.521 214.098 184.388 214.142C183.811 214.276 183.322 214.586 182.967 215.119C177.46 223.513 170.488 230.574 162.272 236.125C161.784 236.436 161.428 236.969 161.34 237.546C161.206 238.123 161.34 238.745 161.695 239.234L165.425 244.785L165.736 245.229C157.698 250.336 148.949 254.022 139.668 256.242L138.202 249.181C137.98 248.116 137.048 247.405 136.026 247.405C135.893 247.405 135.715 247.405 135.582 247.449C130.564 248.471 125.457 249.004 120.35 249.004C115.553 249.004 110.713 248.515 106.05 247.627C105.917 247.583 105.783 247.583 105.606 247.583C105.162 247.583 104.717 247.716 104.362 247.982C103.874 248.293 103.518 248.826 103.43 249.403L102.053 256.509C92.8157 254.511 84.0227 250.913 75.8513 245.895L79.8038 239.855C80.1146 239.367 80.2479 238.745 80.1146 238.168C79.9814 237.591 79.6706 237.102 79.1376 236.747C70.7443 231.24 63.6387 224.268 58.0876 216.008C57.7767 215.519 57.2438 215.164 56.6665 215.075C56.5332 215.031 56.4 215.031 56.2224 215.031C55.7783 215.031 55.3342 215.164 54.9789 215.43L48.9836 219.471C43.8765 211.478 40.1906 202.729 38.0145 193.403L45.0756 191.938C46.2747 191.671 47.0296 190.517 46.8076 189.317C44.8091 179.459 44.7203 169.511 46.6299 159.785C46.7632 159.208 46.6299 158.586 46.2746 158.098C45.9638 157.609 45.4309 157.254 44.8535 157.165L37.748 155.788C39.7909 146.507 43.3436 137.714 48.4063 129.587L54.446 133.539C54.8013 133.761 55.2454 133.894 55.645 133.894C55.7783 133.894 55.9559 133.894 56.0891 133.85C56.6665 133.717 57.155 133.406 57.5102 132.873C63.017 124.48 69.9893 117.419 78.205 111.867C78.6936 111.557 79.0488 111.024 79.1376 110.446C79.2709 109.869 79.1376 109.247 78.7824 108.759L77.006 106.139L74.7411 102.763C82.8236 97.6119 91.5723 93.926 100.809 91.7499L102.275 98.811C102.497 99.8768 103.43 100.587 104.451 100.587C104.584 100.587 104.762 100.587 104.895 100.543C109.958 99.5215 115.109 98.9886 120.172 98.9886C124.968 98.9886 129.72 99.4327 134.383 100.365C134.516 100.41 134.649 100.41 134.827 100.41C135.271 100.41 135.715 100.277 136.071 100.01C136.559 99.6992 136.914 99.1663 137.003 98.5889L138.38 91.4834ZM120.128 218.095C135.049 218.095 148.86 210.634 157.076 198.155C170.399 177.815 164.715 150.415 144.375 137.048C137.181 132.296 128.832 129.809 120.216 129.809C105.295 129.809 91.4835 137.27 83.3121 149.704C69.9449 170.044 75.6293 197.444 95.9688 210.812C103.163 215.608 111.557 218.095 120.128 218.095ZM136.648 88.8633L134.827 98.1449C129.986 97.1678 125.057 96.7238 120.172 96.7238C114.887 96.7238 109.603 97.2567 104.451 98.3225L102.541 89.0853C91.5723 91.3502 81.0917 95.7467 71.6324 102.097L71.6768 102.186L75.1408 107.338L76.9172 109.958C68.657 115.509 61.3739 122.792 55.6006 131.585L47.6513 126.389C41.2564 136.115 37.0819 146.64 35.0391 157.431L44.3206 159.252C42.3666 169.378 42.4554 179.725 44.4983 189.673L35.2611 191.582C37.526 202.507 41.8781 213.032 48.2731 222.447L50.0495 221.292L56.1335 217.162C61.6847 225.422 68.9679 232.705 77.8054 238.523L72.6095 246.472C82.3351 252.867 92.8602 257.042 103.652 259.085L105.472 249.803C110.357 250.78 115.287 251.224 120.216 251.224C125.501 251.224 130.741 250.691 135.893 249.625L137.803 258.863C148.727 256.598 159.252 252.201 168.711 245.851H168.667L167.157 243.586L163.427 238.035C171.687 232.483 178.97 225.245 184.743 216.407L192.693 221.603C199.088 211.877 203.262 201.308 205.305 190.517L196.023 188.696C198.022 178.57 197.889 168.267 195.846 158.32L205.083 156.41C202.818 145.485 198.421 134.96 192.071 125.501L184.21 130.786C178.659 122.526 171.42 115.242 162.583 109.469L167.779 101.52C158.009 95.125 147.439 90.9061 136.648 88.8633ZM120.128 215.874C112.223 215.874 104.273 213.654 97.1679 208.991C77.8498 196.29 72.4318 170.355 85.1329 150.992C93.171 138.735 106.538 132.074 120.172 132.074C128.077 132.074 136.026 134.294 143.132 138.957C162.494 151.658 167.912 177.638 155.211 196.956C147.173 209.213 133.806 215.874 120.128 215.874Z" fill="#008BEC"/>
<path d="M427.707 43.6545C423.577 19.2737 386.096 8.30455 386.806 24.2031L214.853 25.2246C202.951 25.3134 193.27 36.016 193.27 49.1612L192.915 501.427C192.915 515.061 202.729 526.208 214.853 526.296L390.403 527.806C391.514 530.116 393.512 532.158 396.754 533.935C416.871 534.379 426.553 524.431 430.061 513.196C431.216 510.176 431.837 506.845 431.793 503.337C431.127 497.386 428.995 49.3833 427.707 43.6545Z" fill="#008BEC"/>
<path d="M394.889 533.979L193.403 532.691C180.835 532.603 170.666 521.145 170.666 507.156L171.42 42.0113C171.42 28.4665 181.457 17.4973 193.803 17.4529L391.38 16.8312C403.815 16.7868 413.985 27.7559 414.074 41.3452L417.671 508.621C417.76 522.699 407.59 534.068 394.889 533.979Z" fill="#408BFF"/>
<path d="M397.687 530.604C396.843 530.737 395.999 530.782 395.155 530.782L193.714 529.272C182.922 529.183 174.085 519.146 174.085 506.889L174.796 42.2778C174.796 30.4649 183.5 20.828 194.114 20.7836L391.691 19.9398C392.002 19.9398 392.313 19.9398 392.624 19.9398C397.598 20.1619 402.261 22.4267 405.725 26.2904C409.277 30.2428 411.231 35.4831 411.276 41.0787L414.829 508.799C414.873 519.901 407.545 529.272 397.687 530.604Z" fill="black"/>
<path d="M404.304 43.4768L407.723 509.554L180.791 508.222L181.368 43.4768H404.304Z" fill="#ABC9F4"/>
<path d="M294.479 113.333C294.435 113.288 294.435 113.288 294.39 113.244C283.288 125.146 265.569 134.871 246.606 139.046C246.606 140.334 246.562 147.351 246.428 179.681C246.251 222.847 287.285 243.897 293.68 247.139C274.939 171.332 289.639 125.501 294.479 113.333Z" fill="#F5F9FF"/>
<path d="M294.479 113.333C289.594 125.457 274.939 171.332 293.68 247.139C299.853 244.296 341.42 223.246 341.642 180.08C341.775 147.75 341.82 140.734 341.82 139.446C322.946 135.182 305.493 125.279 294.479 113.333Z" fill="#E3EEFF"/>
<path d="M293.68 248.027L293.325 247.849C280.89 241.543 272.186 234.082 267.034 228.931C252.734 214.631 245.54 198.022 245.629 179.636L245.806 138.38L246.428 138.247C264.947 134.205 282.666 124.657 293.813 112.667L294.39 112.045L295.056 112.756C306.159 124.791 323.656 134.472 341.953 138.646L342.575 138.78V139.401C342.575 140.512 342.53 145.841 342.441 167.912L342.397 180.036C342.219 224.312 298.92 245.54 293.991 247.805L293.68 248.027ZM247.405 139.712L247.227 179.681C247.05 218.095 279.38 238.923 293.68 246.25C299.942 243.319 340.621 222.491 340.798 180.08L340.843 167.957C340.931 148.683 340.976 142.155 340.976 140.112C322.901 135.849 305.582 126.3 294.39 114.399C283.155 126.167 265.702 135.582 247.405 139.712Z" fill="white"/>
<path d="M293.724 239.456L292.969 239.056C288.484 236.747 279.779 231.595 271.475 223.335C258.729 210.634 252.29 195.979 252.379 179.769L252.556 144.064L253.756 143.753C269.121 139.801 283.11 132.518 293.191 123.281L294.301 122.259L295.456 123.369C305.448 132.651 319.348 140.023 334.581 144.109L335.78 144.42L335.602 180.125C335.513 196.334 328.985 210.945 316.106 223.513C307.979 231.462 299.453 236.48 295.056 238.745L294.968 238.79C294.79 238.878 294.612 238.967 294.479 239.056L293.724 239.456ZM255.754 146.551L255.621 179.814C255.532 195.135 261.66 209.035 273.784 221.115C281.378 228.664 289.283 233.505 293.768 235.903C298.032 233.683 306.159 228.886 313.886 221.337C326.099 209.391 332.36 195.535 332.405 180.214L332.538 146.951C317.75 142.821 304.249 135.671 294.213 126.7C284.176 135.493 270.587 142.51 255.754 146.551Z" fill="#296ACC"/>
<path d="M275.117 173.819V202.152C275.117 205.305 313.62 205.305 313.62 202.152V173.819H275.117ZM296.3 188.873V196.912C296.3 197.977 295.412 198.866 294.346 198.866C293.28 198.866 292.392 197.977 292.392 196.912V188.873C290.749 188.118 289.594 186.475 289.594 184.521C289.594 181.901 291.726 179.769 294.346 179.769C296.966 179.769 299.098 181.901 299.098 184.521C299.142 186.475 297.988 188.118 296.3 188.873Z" fill="#296ACC"/>
<path d="M310.244 171.82H306.336V169.911C306.336 163.294 300.963 157.92 294.346 157.92C287.729 157.92 282.355 163.294 282.355 169.911V171.82H278.447V169.911C278.447 161.162 285.553 154.012 294.346 154.012C303.094 154.012 310.244 161.117 310.244 169.911V171.82Z" fill="#296ACC"/>
<path d="M348.17 269.61H236.88V291.592H348.17V269.61Z" fill="white"/>
<path d="M259.129 286.175C261.778 286.175 263.925 284.027 263.925 281.378C263.925 278.729 261.778 276.582 259.129 276.582C256.48 276.582 254.333 278.729 254.333 281.378C254.333 284.027 256.48 286.175 259.129 286.175Z" fill="#1D262D"/>
<path d="M275.605 286.175C278.254 286.175 280.402 284.027 280.402 281.378C280.402 278.729 278.254 276.582 275.605 276.582C272.956 276.582 270.809 278.729 270.809 281.378C270.809 284.027 272.956 286.175 275.605 286.175Z" fill="#1D262D"/>
<path d="M292.081 286.175C294.73 286.175 296.877 284.027 296.877 281.378C296.877 278.729 294.73 276.582 292.081 276.582C289.432 276.582 287.285 278.729 287.285 281.378C287.285 284.027 289.432 286.175 292.081 286.175Z" fill="#1D262D"/>
<path d="M308.557 286.175C311.206 286.175 313.353 284.027 313.353 281.378C313.353 278.729 311.206 276.582 308.557 276.582C305.908 276.582 303.761 278.729 303.761 281.378C303.761 284.027 305.908 286.175 308.557 286.175Z" fill="#1D262D"/>
<path d="M325.033 286.175C327.682 286.175 329.829 284.027 329.829 281.378C329.829 278.729 327.682 276.582 325.033 276.582C322.384 276.582 320.237 278.729 320.237 281.378C320.237 284.027 322.384 286.175 325.033 286.175Z" fill="#1D262D"/>
<path d="M307.003 322.546H277.204C272.985 322.546 269.565 319.126 269.565 314.907C269.565 310.689 272.985 307.269 277.204 307.269H307.003C311.222 307.269 314.641 310.689 314.641 314.907C314.641 319.126 311.222 322.546 307.003 322.546Z" fill="#296ACC"/>
<path d="M340.043 348.969H248.249V355.853H340.043V348.969Z" fill="#90AFD3"/>
<path d="M370.908 364.291H218.672V371.174H370.908V364.291Z" fill="#90AFD3"/>
<path d="M364.513 379.568H225.023V386.451H364.513V379.568Z" fill="#90AFD3"/>
<path d="M379.434 396.266C376.992 405.725 376.503 415.228 377.747 424.377L385.651 423.311C386.806 431.926 389.693 440.098 394 447.47L387.161 451.511C391.913 459.593 398.219 466.788 405.858 472.561L406.924 471.14L410.654 466.21C417.315 471.273 425.043 475.137 433.658 477.357L431.66 485.084C441.119 487.527 450.622 488.015 459.771 486.728L458.705 478.823C467.276 477.668 475.492 474.781 482.864 470.474L486.905 477.313C494.987 472.561 502.182 466.21 507.999 458.616H507.955L506.134 457.195L501.649 453.776C506.712 447.114 510.575 439.387 512.796 430.816L520.523 432.815C522.965 423.355 523.454 413.807 522.166 404.659L514.261 405.725C513.107 397.154 510.22 388.938 505.912 381.61L512.751 377.569C507.999 369.487 501.649 362.292 494.055 356.475L489.214 362.781C482.553 357.718 474.826 353.855 466.255 351.634L468.253 343.907C458.794 341.464 449.246 340.976 440.097 342.264L441.163 350.169C432.592 351.323 424.376 354.21 417.049 358.518L413.008 351.679C404.881 356.43 397.731 362.781 391.913 370.375L391.958 370.419L396.132 373.572L398.264 375.171C393.201 381.832 389.337 389.56 387.117 398.131L379.434 396.266ZM415.85 405.725C420.735 386.895 439.964 375.615 458.749 380.5C477.579 385.385 488.903 404.615 484.018 423.444C479.133 442.274 459.904 453.598 441.074 448.713C422.245 443.784 410.965 424.599 415.85 405.725Z" fill="#E3EEFF"/>
</svg>
