<svg width="476" height="446" viewBox="0 0 476 446" fill="none" xmlns="http://www.w3.org/2000/svg">
<path d="M307.968 445.685H4.64875C2.4061 445.685 0.594727 443.874 0.594727 441.631V37.5222C0.594727 35.2795 2.4061 33.4681 4.64875 33.4681H307.968C310.21 33.4681 312.022 35.2795 312.022 37.5222V441.631C312.022 443.874 310.21 445.685 307.968 445.685Z" fill="#008BEC"/>
<path d="M292.269 426.666H20.347C19.4413 426.666 18.665 425.932 18.665 424.984V54.1264C18.665 53.2207 19.3982 52.4444 20.347 52.4444H292.269C293.174 52.4444 293.951 53.1776 293.951 54.1264V424.984C293.951 425.932 293.174 426.666 292.269 426.666Z" fill="#D7E3F4"/>
<path d="M179.921 25.662C179.921 25.2738 179.964 24.8857 179.964 24.4975C179.964 11.4297 169.355 0.820251 156.287 0.820251C143.219 0.820251 132.61 11.4297 132.61 24.4975C132.61 24.8857 132.653 25.2738 132.653 25.662H97.8486V61.76H214.682V25.662H179.921Z" fill="#1A55B5"/>
<path d="M161.402 36.7517C168.173 33.9287 171.374 26.151 168.551 19.3797C165.728 12.6083 157.95 9.40754 151.179 12.2305C144.408 15.0535 141.207 22.8312 144.03 29.6026C146.853 36.3739 154.631 39.5747 161.402 36.7517Z" fill="#527EE9"/>
<path d="M214.725 61.7169H97.8916V64.2183H214.725V61.7169Z" fill="#CDE1F9"/>
<path d="M341.91 431.712H334.793V440.51H341.91V431.712Z" fill="#FFE0B6"/>
<path d="M334.836 438.526L338.545 439.647L342.039 438.526L345.144 445.642H316.334L327.16 442.062L334.836 438.526Z" fill="#2A294F"/>
<path d="M409.491 440.51H416.607L413.933 431.712H406.817L409.491 440.51Z" fill="#FFE0B6"/>
<path d="M415.96 438.526L412.251 439.647L408.801 438.526L405.653 445.642H434.462L423.637 442.062L415.96 438.526Z" fill="#2A294F"/>
<path d="M318.793 134.948C317.844 135.681 309.046 140.857 309.046 140.857L302.835 132.921L304.69 123.821L318.06 124.641L320.389 131.412C320.992 133.051 320 134.042 318.793 134.948Z" fill="#FE9280"/>
<path d="M318.06 124.641L320.087 130.592L313.92 133.094C312.755 133.611 311.418 133.697 310.211 133.352C307.493 132.619 305.725 129.988 306.07 127.185L306.458 123.907L318.06 124.641Z" fill="#F2C599"/>
<path d="M315.041 132.619L320.388 133.396L323.321 128.393C323.882 127.487 323.623 126.279 322.717 125.719C321.812 125.158 320.604 125.417 320.043 126.323L315.041 132.619Z" fill="#FFE0B6"/>
<path d="M305.423 154.27L294.382 157.073L290.415 189.031L303.353 189.548L305.423 154.27Z" fill="white"/>
<path d="M456.112 180.017L436.834 177.602L441.233 142.539L460.511 144.954C470.215 146.161 477.072 155.003 475.822 164.706C474.614 174.367 465.773 181.224 456.112 180.017Z" fill="#527EE9"/>
<path opacity="0.2" d="M457.104 172.038L437.826 169.623L436.834 177.602L456.112 180.017C465.816 181.225 474.657 174.367 475.865 164.707C476.037 163.326 476.037 161.989 475.908 160.652C473.105 168.157 465.428 173.073 457.104 172.038Z" fill="#777470"/>
<path d="M434.462 177.3L229.776 150.906L234.175 115.799L438.861 142.237L434.462 177.3Z" fill="#D8D8D8"/>
<path d="M193.291 128.479L229.777 150.906L234.176 115.799L193.291 128.479Z" fill="#FFF4DD"/>
<path opacity="0.2" d="M193.291 128.479L229.777 150.906L230.855 142.323L193.291 128.479Z" fill="#777470"/>
<path d="M205.453 124.727L193.291 128.479L204.159 135.164L205.453 124.727Z" fill="#008BEC"/>
<path d="M455.858 144.348L438.913 142.215L434.496 177.304L451.441 179.437L455.858 144.348Z" fill="#D3EAF5"/>
<path d="M456.001 142.842L450.224 142.115L445.43 180.199L451.207 180.927L456.001 142.842Z" fill="#D3EAF5"/>
<path opacity="0.2" d="M445.632 178.723L229.776 150.906L230.855 142.323L446.71 170.141L445.632 178.723Z" fill="#777470"/>
<path opacity="0.05" d="M448.953 152.199L233.098 124.382L234.176 115.799L450.031 143.617L448.953 152.199Z" fill="#777470"/>
<path opacity="0.15" d="M452.695 169.308L446.918 168.581L445.453 180.22L451.23 180.948L452.695 169.308Z" fill="#777470"/>
<path d="M379.776 264.332L382.665 256.828L392.412 256.051C394.224 255.836 395.776 256.914 395.949 258.467C396.121 260.019 394.828 261.399 393.016 261.615L379.776 264.332Z" fill="#F2C599"/>
<path d="M374.73 256.914L379.776 264.332L389.307 262.348L378.611 246.434L376.541 247.814C373.565 249.798 372.746 253.895 374.73 256.914Z" fill="#FFE0B6"/>
<path d="M382.665 254.369L415.141 220.342L398.019 216.374L378.654 246.434L382.665 254.369Z" fill="white"/>
<path d="M402.59 218.875C404.316 222.584 408.715 224.18 412.467 222.455C416.176 220.73 417.771 216.331 416.046 212.579C414.321 208.87 409.922 207.274 406.17 208.999C402.461 210.767 400.865 215.166 402.59 218.875Z" fill="white"/>
<path d="M405.092 221.851L415.141 211.155L380.121 169.623C377.102 165.526 371.194 165.052 367.571 168.631C363.948 172.168 364.293 184.718 368.347 187.823L405.092 221.851Z" fill="white"/>
<path d="M347.785 172.716L362.138 173.931L364.066 151.156L349.713 149.94L347.785 172.716Z" fill="#FFE0B6"/>
<path d="M296.194 184.157C292.614 184.416 289.94 187.478 290.156 191.058C290.414 194.637 293.477 197.311 297.056 197.096C300.636 196.837 303.31 193.775 303.094 190.195C302.835 186.615 299.773 183.942 296.194 184.157Z" fill="white"/>
<path d="M292.14 185.106L298.695 196.751L338.718 187.737C343.634 186.486 346.265 174.54 344.368 169.882C342.427 165.181 336.82 163.326 332.464 165.914L292.14 185.106Z" fill="white"/>
<path d="M374.859 251.049L379.215 174.842C380.25 170.788 377.49 166.733 373.349 166.173L337.639 164.879C333.499 164.318 329.747 167.51 329.661 171.693L322.372 264.332L374.859 251.049Z" fill="white"/>
<path d="M340.702 251.049L348.939 276.667L345.274 435.722H330.61L322.33 264.289L323.494 251.049H340.702Z" fill="#0B2E4D"/>
<path d="M340.702 251.049L348.723 282.532H354.503L406.256 435.722H418.289L381.846 271.836L374.859 251.049H340.702Z" fill="#0B2E4D"/>
<path d="M304.56 122.484L303.698 127.961C303.568 128.824 304.129 129.6 304.992 129.73L315.429 131.412C316.291 131.541 317.067 130.98 317.197 130.118L318.059 124.641L304.56 122.484Z" fill="#FFE0B6"/>
<path d="M346.524 165.181L356.961 165.569L352.691 171.909V222.541L346.567 235.436L340.917 219.867L348.81 171.478L346.524 165.181Z" fill="#1A55B5"/>
<path d="M375.032 132.49C374.687 129.04 373.393 125.676 371.236 123.045C369.209 120.63 366.492 118.775 363.517 117.826C362.05 117.352 360.67 117.093 359.161 117.266C357.306 117.481 355.365 117.654 353.597 116.878C351.096 115.756 349.284 113.6 347.042 112.177C346.524 111.875 345.92 111.573 345.317 111.4C342.901 110.408 339.796 110.71 337.554 112.306C336.432 113.082 335.527 114.161 334.923 115.368C334.319 116.576 333.888 117.87 333.758 119.25C333.543 121.967 334.276 124.727 335.699 127.056C337.036 129.126 338.847 130.98 341.004 132.145C340.918 132.706 340.831 133.266 340.831 133.87C340.357 143.358 347.689 151.423 357.177 151.897C363.818 152.199 370.201 148.577 373.264 142.668C374.773 139.52 375.377 135.94 375.032 132.49ZM339.063 129.255C338.244 128.306 337.467 127.315 336.82 126.236C335.483 124.166 334.578 121.751 334.707 119.25C334.837 116.834 335.915 114.29 337.855 112.737C338.589 112.133 339.451 111.745 340.4 111.487C339.969 111.702 339.494 111.961 339.106 112.306C337.209 113.859 336.475 116.403 336.346 118.646C336.044 123.39 337.812 127.875 341.176 130.937C341.176 130.98 341.176 131.067 341.133 131.11C340.4 130.549 339.71 129.902 339.063 129.255Z" fill="#262626"/>
<path d="M366.967 142.927C366.665 144.695 367.872 146.42 369.641 146.722C371.409 147.024 373.134 145.816 373.436 144.048C373.738 142.28 372.53 140.555 370.762 140.253C368.951 139.951 367.269 141.159 366.967 142.927Z" fill="#FFE0B6"/>
<path d="M352.95 124.641C345.316 124.511 342.384 130.937 342.384 130.937L341.952 133.18L341.607 135.164C341.607 135.25 341.607 135.336 341.607 135.423L341.564 135.379L340.615 140.943C339.322 148.62 344.195 156.253 351.872 157.677C359.635 159.1 367.053 153.924 368.39 146.118L369.554 139.304C369.597 139.304 371.754 125.934 352.95 124.641Z" fill="#FFE0B6"/>
<path d="M356.012 124.986C357.91 125.288 359.807 125.805 361.576 126.495C362.913 127.013 364.207 127.66 365.285 128.608C368.821 131.67 365.673 138.312 364.465 141.762C364.163 142.625 363.818 143.617 364.336 144.307C364.897 145.083 366.19 144.954 366.924 144.307C367.657 143.703 368.045 142.754 368.562 141.935C369.08 141.115 369.813 140.296 370.762 140.253C370.762 140.253 370.201 124.641 370.201 124.597C370.201 124.468 360.368 124.252 359.635 124.252C358.082 124.166 356.012 124.986 356.012 124.986Z" fill="#262626"/>
<path d="M129.676 348.345C124.156 348.345 118.851 346.232 114.84 342.437L57.049 287.664C48.4234 279.47 48.0353 265.841 56.2296 257.173C64.4239 248.547 78.0523 248.159 86.7211 256.353L127.865 295.341L224.429 180.103C232.062 170.96 245.691 169.752 254.791 177.429C263.934 185.063 265.141 198.691 257.465 207.791L146.194 340.625C142.356 345.197 136.836 347.957 130.884 348.302C130.496 348.302 130.108 348.345 129.676 348.345Z" fill="#008BEC"/>
</svg>
