<svg width="560" height="563" viewBox="0 0 560 563" fill="none" xmlns="http://www.w3.org/2000/svg">
<path d="M315.368 354.294C333.726 276.567 285.554 198.684 207.774 180.339C129.994 161.994 52.0588 210.132 33.701 287.86C15.3432 365.588 63.5146 443.47 141.295 461.815C219.075 480.161 297.01 432.022 315.368 354.294Z" fill="#EFF4F9" fill-opacity="0.05"/>
<path d="M226.638 291.027C287.379 291.027 336.62 241.82 336.62 181.12C336.62 120.42 287.379 71.2123 226.638 71.2123C165.897 71.2123 116.656 120.42 116.656 181.12C116.656 241.82 165.897 291.027 226.638 291.027Z" fill="#EFF4F9" fill-opacity="0.05"/>
<path d="M541.981 280.089C551.699 219.996 510.83 163.408 450.696 153.696C390.562 143.984 333.935 184.826 324.216 244.919C314.498 305.012 355.368 361.6 415.502 371.312C475.635 381.024 532.262 340.182 541.981 280.089Z" fill="#EFF4F9" fill-opacity="0.05"/>
<path d="M265.288 0.119456C263.078 0.332366 260.922 0.928418 258.917 1.88086C255.141 3.69202 252.054 6.67618 250.117 10.3869C248.18 14.0976 247.498 18.3353 248.171 22.466L206.166 42.2446L182.807 53.195C181.86 53.6459 181.13 54.4506 180.772 55.4353C180.414 56.42 180.459 57.5057 180.895 58.4581L183.699 64.4638L186.162 69.7268C186.347 70.1245 186.608 70.4815 186.932 70.7773C187.256 71.0731 187.635 71.3016 188.048 71.4497C188.461 71.5977 188.899 71.6624 189.337 71.6399C189.776 71.6173 190.205 71.5081 190.6 71.3184L191.131 71.0638C191.526 70.8792 191.881 70.6184 192.176 70.2964C192.47 69.9744 192.697 69.5975 192.845 69.1874C192.993 68.7772 193.059 68.3419 193.038 67.9064C193.017 67.4709 192.91 67.0438 192.724 66.6497L190.261 61.3866L194.062 59.604L196.546 64.867C196.731 65.262 196.992 65.6167 197.314 65.9106C197.636 66.2046 198.014 66.432 198.424 66.5799C198.835 66.7278 199.27 66.7932 199.706 66.7724C200.142 66.7516 200.569 66.645 200.964 66.4586L201.664 66.1403C202.464 65.7628 203.082 65.0851 203.384 64.2545C203.687 63.4239 203.648 62.5076 203.278 61.705L200.751 56.3571L204.574 54.5532L206.952 59.6252C207.292 60.4177 207.916 61.0539 208.703 61.4077C209.49 61.7614 210.381 61.8069 211.199 61.5352C211.639 61.3807 212.042 61.1355 212.382 60.8157C212.721 60.4958 212.989 60.1083 213.17 59.6783C213.35 59.2483 213.438 58.7853 213.427 58.3192C213.417 57.8531 213.309 57.3943 213.111 56.9725L210.647 51.7308L252.886 32.0582C255.071 34.5804 257.871 36.496 261.015 37.6194C264.158 38.7428 267.539 39.0361 270.829 38.4707C274.12 37.9053 277.208 36.5004 279.796 34.3921C282.383 32.2838 284.382 29.5436 285.599 26.4368C286.815 23.3299 287.209 19.9618 286.741 16.6584C286.272 13.3551 284.959 10.2285 282.926 7.58151C280.894 4.9345 278.212 2.85675 275.141 1.54944C272.069 0.242127 268.712 -0.250438 265.394 0.119456H265.288ZM280.153 17.9245C279.748 18.5816 279.194 19.1351 278.537 19.5411C277.88 19.9472 277.138 20.1945 276.368 20.2636C275.599 20.3326 274.824 20.2215 274.105 19.9389C273.386 19.6564 272.743 19.2103 272.227 18.6359C271.71 18.0616 271.335 17.3749 271.131 16.6304C270.927 15.8859 270.899 15.1041 271.05 14.347C271.201 13.5899 271.527 12.8784 272.001 12.269C272.475 11.6596 273.085 11.1691 273.782 10.8364C274.682 10.4126 275.689 10.272 276.67 10.4332C277.478 10.5583 278.243 10.8807 278.896 11.3717C279.55 11.8627 280.072 12.5073 280.416 13.2482C280.761 13.9892 280.917 14.8036 280.871 15.6193C280.825 16.435 280.578 17.2268 280.153 17.9245Z" fill="#E2EBF7"/>
<path d="M284.591 10.3058C286.502 13.9412 287.209 18.0888 286.611 22.1514C286.012 26.214 284.139 29.9819 281.26 32.9126C278.382 35.8433 274.647 37.7855 270.594 38.4595C266.54 39.1335 262.378 38.5046 258.705 36.6632C265.819 36.6632 273.06 34.8806 277.584 28.5565C278.739 27.069 279.572 25.3573 280.029 23.5304C280.486 21.7035 280.557 19.8016 280.238 17.9457C280.663 17.248 280.91 16.4562 280.956 15.6405C281.002 14.8248 280.846 14.0103 280.501 13.2694C280.157 12.5285 279.635 11.8839 278.981 11.3929C278.328 10.9018 277.563 10.5795 276.755 10.4544C273.553 6.38441 269.674 2.89556 265.288 0.140605C269.152 -0.273249 273.052 0.472651 276.49 2.28315C279.928 4.09365 282.748 6.88666 284.591 10.3058Z" fill="#E2EBF7"/>
<path d="M449.575 64.3789C448.574 63.8537 447.489 63.5089 446.368 63.3602C444.202 63.0539 441.995 63.4595 440.08 64.516C438.165 65.5725 436.645 67.2225 435.75 69.2174L411.796 65.737L398.502 63.8059C397.964 63.7435 397.423 63.889 396.988 64.2125C396.554 64.536 396.26 65.013 396.166 65.5461L395.678 68.9415L395.232 71.9338C395.199 72.1583 395.21 72.387 395.266 72.6069C395.322 72.8268 395.421 73.0334 395.557 73.2149C395.694 73.3964 395.864 73.5492 396.06 73.6644C396.256 73.7796 396.472 73.855 396.697 73.8862H397.015C397.466 73.9531 397.925 73.8388 398.291 73.5683C398.657 73.2977 398.901 72.8931 398.969 72.4431L399.415 69.4509L401.539 69.7692L401.114 72.7402C401.078 72.9663 401.087 73.1973 401.142 73.4196C401.196 73.6419 401.295 73.8512 401.431 74.035C401.568 74.2189 401.74 74.3736 401.937 74.4902C402.134 74.6067 402.352 74.6828 402.579 74.7138H402.983C403.433 74.7808 403.892 74.6664 404.258 74.3959C404.624 74.1254 404.868 73.7208 404.937 73.2708L405.361 70.2785L407.485 70.5968L407.06 73.483C406.991 73.9164 407.082 74.3603 407.316 74.7314C407.551 75.1025 407.913 75.3755 408.334 75.4991C408.568 75.5546 408.81 75.5614 409.047 75.5188C409.283 75.4763 409.508 75.3854 409.707 75.2519C409.907 75.1184 410.076 74.9451 410.205 74.743C410.335 74.5408 410.421 74.3142 410.458 74.0772L410.883 71.0849L434.837 74.5653C435.019 75.8668 435.452 77.1207 436.111 78.2579C437.179 80.1057 438.807 81.5671 440.759 82.4315C442.712 83.2959 444.888 83.5188 446.976 83.0682C449.063 82.6175 450.953 81.5164 452.375 79.9236C453.796 78.3307 454.674 76.3283 454.884 74.2045C455.052 72.2281 454.64 70.2454 453.697 68.4999C452.754 66.7545 451.321 65.3222 449.575 64.3789ZM450.976 76.3691C450.513 76.5863 449.998 76.6673 449.49 76.6026C448.845 76.4675 448.275 76.0918 447.897 75.5518C447.52 75.0119 447.362 74.3484 447.457 73.6964C447.552 73.0444 447.892 72.4531 448.407 72.0428C448.923 71.6325 449.576 71.4342 450.233 71.4882C450.748 71.5538 451.23 71.776 451.613 72.1248C451.927 72.4105 452.165 72.7694 452.305 73.1694C452.446 73.5693 452.486 73.9978 452.42 74.4167C452.365 74.8378 452.204 75.238 451.951 75.5795C451.698 75.9211 451.363 76.1928 450.976 76.3691Z" fill="#E2EBF7"/>
<path d="M455.054 74.3106C454.844 76.4344 453.966 78.4368 452.544 80.0297C451.123 81.6225 449.233 82.7236 447.146 83.1743C445.058 83.6249 442.882 83.402 440.929 82.5376C438.977 81.6731 437.349 80.2118 436.281 78.364C437.741 79.5223 439.466 80.2994 441.301 80.6254C443.136 80.9515 445.023 80.8161 446.793 80.2315C447.732 79.9203 448.595 79.4158 449.327 78.7505C450.058 78.0852 450.642 77.274 451.04 76.3691C451.427 76.1928 451.762 75.9211 452.015 75.5795C452.267 75.238 452.429 74.8378 452.484 74.4167C452.549 73.9978 452.51 73.5693 452.369 73.1693C452.228 72.7694 451.991 72.4105 451.677 72.1248C451.422 69.4396 450.704 66.8188 449.554 64.3788C451.353 65.3021 452.837 66.7396 453.816 68.5082C454.796 70.2768 455.227 72.2966 455.054 74.3106Z" fill="#E2EBF7"/>
<path d="M476.439 114.865H184.697C174.54 114.865 166.306 123.094 166.306 133.244V392.764C166.306 402.914 174.54 411.142 184.697 411.142H476.439C486.595 411.142 494.829 402.914 494.829 392.764V133.244C494.829 123.094 486.595 114.865 476.439 114.865Z" fill="#D7E3F4"/>
<path d="M442.695 208.623H218.462V240.753H442.695V208.623Z" fill="white"/>
<path d="M442.695 265.646H218.462V297.776H442.695V265.646Z" fill="white"/>
<path d="M442.695 327.911H218.462V360.04H442.695V327.911Z" fill="#ABC9F4"/>
<path d="M250.253 281.711C250.253 282.441 250.036 283.155 249.63 283.762C249.224 284.37 248.647 284.843 247.972 285.122C247.296 285.402 246.553 285.475 245.837 285.332C245.12 285.19 244.461 284.838 243.945 284.322C243.428 283.805 243.076 283.148 242.933 282.431C242.791 281.715 242.864 280.972 243.144 280.298C243.423 279.623 243.897 279.046 244.505 278.641C245.112 278.235 245.827 278.018 246.558 278.018C247.538 278.018 248.477 278.407 249.17 279.1C249.863 279.792 250.253 280.732 250.253 281.711Z" fill="#1D262D"/>
<path d="M287.586 281.711C287.586 282.441 287.369 283.155 286.963 283.762C286.557 284.37 285.98 284.843 285.305 285.122C284.63 285.402 283.887 285.475 283.17 285.332C282.453 285.19 281.795 284.838 281.278 284.322C280.761 283.805 280.409 283.148 280.267 282.431C280.124 281.715 280.197 280.972 280.477 280.298C280.756 279.623 281.23 279.046 281.838 278.641C282.445 278.235 283.16 278.018 283.891 278.018C284.871 278.018 285.811 278.407 286.503 279.1C287.196 279.792 287.586 280.732 287.586 281.711Z" fill="#1D262D"/>
<path d="M324.919 281.711C324.919 282.441 324.702 283.155 324.296 283.762C323.89 284.37 323.313 284.843 322.638 285.122C321.963 285.402 321.22 285.475 320.503 285.332C319.786 285.19 319.128 284.838 318.611 284.322C318.094 283.805 317.742 283.148 317.6 282.431C317.457 281.715 317.53 280.972 317.81 280.298C318.09 279.623 318.563 279.046 319.171 278.641C319.778 278.235 320.493 278.018 321.224 278.018C322.204 278.018 323.144 278.407 323.837 279.1C324.529 279.792 324.919 280.732 324.919 281.711Z" fill="#1D262D"/>
<path d="M268.919 281.711C268.919 282.441 268.702 283.155 268.296 283.762C267.89 284.37 267.313 284.843 266.638 285.122C265.963 285.402 265.22 285.475 264.503 285.332C263.786 285.19 263.128 284.838 262.611 284.322C262.094 283.805 261.743 283.148 261.6 282.431C261.457 281.715 261.531 280.972 261.81 280.298C262.09 279.623 262.563 279.046 263.171 278.641C263.779 278.235 264.493 278.018 265.224 278.018C266.204 278.018 267.144 278.407 267.837 279.1C268.53 279.792 268.919 280.732 268.919 281.711Z" fill="#1D262D"/>
<path d="M306.252 281.711C306.252 282.441 306.036 283.155 305.63 283.762C305.223 284.37 304.646 284.843 303.971 285.122C303.296 285.402 302.553 285.475 301.836 285.332C301.119 285.19 300.461 284.838 299.944 284.322C299.428 283.805 299.076 283.148 298.933 282.431C298.79 281.715 298.864 280.972 299.143 280.298C299.423 279.623 299.897 279.046 300.504 278.641C301.112 278.235 301.826 278.018 302.557 278.018C303.537 278.018 304.477 278.407 305.17 279.1C305.863 279.792 306.252 280.732 306.252 281.711Z" fill="#1D262D"/>
<path d="M380.94 281.711C380.94 282.441 380.723 283.155 380.317 283.762C379.911 284.37 379.334 284.843 378.659 285.122C377.983 285.402 377.241 285.475 376.524 285.332C375.807 285.19 375.149 284.838 374.632 284.322C374.115 283.805 373.763 283.148 373.621 282.431C373.478 281.715 373.551 280.972 373.831 280.298C374.111 279.623 374.584 279.046 375.192 278.641C375.799 278.235 376.514 278.018 377.245 278.018C378.225 278.018 379.165 278.407 379.857 279.1C380.55 279.792 380.94 280.732 380.94 281.711Z" fill="#1D262D"/>
<path d="M343.585 281.711C343.585 282.442 343.368 283.157 342.961 283.765C342.554 284.372 341.976 284.846 341.299 285.124C340.623 285.403 339.879 285.475 339.162 285.331C338.444 285.187 337.786 284.833 337.27 284.314C336.754 283.796 336.404 283.136 336.264 282.418C336.123 281.7 336.2 280.957 336.483 280.283C336.765 279.609 337.242 279.033 337.853 278.63C338.463 278.227 339.18 278.014 339.912 278.018C340.396 278.018 340.875 278.114 341.322 278.3C341.769 278.486 342.175 278.758 342.517 279.101C342.858 279.444 343.128 279.851 343.312 280.299C343.495 280.747 343.588 281.227 343.585 281.711Z" fill="#1D262D"/>
<path d="M362.273 281.711C362.273 282.441 362.057 283.155 361.651 283.762C361.244 284.37 360.667 284.843 359.992 285.122C359.317 285.402 358.574 285.475 357.857 285.332C357.14 285.19 356.482 284.838 355.965 284.322C355.449 283.805 355.097 283.148 354.954 282.431C354.811 281.715 354.885 280.972 355.164 280.298C355.444 279.623 355.918 279.046 356.525 278.641C357.133 278.235 357.847 278.018 358.578 278.018C359.558 278.018 360.498 278.407 361.191 279.1C361.884 279.792 362.273 280.732 362.273 281.711Z" fill="#1D262D"/>
<path d="M418.273 281.711C418.273 282.441 418.056 283.155 417.65 283.762C417.244 284.37 416.667 284.843 415.992 285.122C415.317 285.402 414.574 285.475 413.857 285.332C413.14 285.19 412.482 284.838 411.965 284.322C411.448 283.805 411.096 283.148 410.954 282.431C410.811 281.715 410.884 280.972 411.164 280.298C411.444 279.623 411.917 279.046 412.525 278.641C413.133 278.235 413.847 278.018 414.578 278.018C415.558 278.018 416.498 278.407 417.191 279.1C417.884 279.792 418.273 280.732 418.273 281.711Z" fill="#1D262D"/>
<path d="M399.606 281.711C399.606 282.441 399.39 283.155 398.984 283.762C398.578 284.37 398 284.843 397.325 285.122C396.65 285.402 395.907 285.475 395.19 285.332C394.473 285.19 393.815 284.838 393.298 284.322C392.782 283.805 392.43 283.148 392.287 282.431C392.144 281.715 392.218 280.972 392.497 280.298C392.777 279.623 393.251 279.046 393.858 278.641C394.466 278.235 395.18 278.018 395.911 278.018C396.891 278.018 397.831 278.407 398.524 279.1C399.217 279.792 399.606 280.732 399.606 281.711Z" fill="#1D262D"/>
<path d="M287.586 226.407C287.59 227.138 287.377 227.854 286.973 228.464C286.57 229.074 285.994 229.551 285.319 229.834C284.645 230.116 283.901 230.192 283.183 230.052C282.465 229.912 281.804 229.562 281.285 229.047C280.766 228.531 280.412 227.873 280.268 227.156C280.124 226.44 280.196 225.696 280.475 225.02C280.754 224.344 281.227 223.766 281.836 223.359C282.444 222.953 283.159 222.736 283.891 222.736C284.375 222.733 284.855 222.826 285.303 223.009C285.751 223.192 286.159 223.462 286.502 223.803C286.846 224.145 287.118 224.55 287.304 224.997C287.49 225.444 287.586 225.923 287.586 226.407Z" fill="#1D262D"/>
<path d="M324.919 226.407C324.923 227.138 324.71 227.854 324.307 228.464C323.903 229.074 323.327 229.551 322.653 229.834C321.978 230.116 321.234 230.192 320.516 230.052C319.798 229.912 319.138 229.562 318.619 229.047C318.1 228.531 317.746 227.873 317.601 227.156C317.457 226.44 317.529 225.696 317.808 225.02C318.087 224.344 318.561 223.766 319.169 223.359C319.777 222.953 320.492 222.736 321.224 222.736C321.708 222.733 322.188 222.826 322.636 223.009C323.084 223.192 323.492 223.462 323.835 223.803C324.179 224.145 324.451 224.55 324.637 224.997C324.823 225.444 324.919 225.923 324.919 226.407Z" fill="#1D262D"/>
<path d="M306.252 226.407C306.256 227.138 306.043 227.854 305.64 228.464C305.236 229.074 304.661 229.551 303.986 229.834C303.311 230.116 302.567 230.192 301.849 230.052C301.131 229.912 300.471 229.562 299.952 229.047C299.433 228.531 299.079 227.873 298.935 227.156C298.79 226.44 298.862 225.696 299.141 225.02C299.42 224.344 299.894 223.766 300.502 223.359C301.11 222.953 301.825 222.736 302.557 222.736C303.041 222.733 303.521 222.826 303.97 223.009C304.418 223.192 304.825 223.462 305.169 223.803C305.512 224.145 305.785 224.55 305.971 224.997C306.156 225.444 306.252 225.923 306.252 226.407Z" fill="#1D262D"/>
<path d="M380.94 226.407C380.944 227.138 380.731 227.854 380.327 228.464C379.924 229.074 379.348 229.551 378.673 229.834C377.999 230.116 377.255 230.192 376.537 230.052C375.819 229.912 375.158 229.562 374.639 229.047C374.121 228.531 373.766 227.873 373.622 227.156C373.478 226.44 373.55 225.696 373.829 225.02C374.108 224.344 374.581 223.766 375.19 223.359C375.798 222.953 376.513 222.736 377.245 222.736C377.729 222.733 378.209 222.826 378.657 223.009C379.105 223.192 379.513 223.462 379.856 223.803C380.2 224.145 380.472 224.55 380.658 224.997C380.844 225.444 380.94 225.923 380.94 226.407Z" fill="#1D262D"/>
<path d="M343.585 226.407C343.589 227.141 343.375 227.859 342.968 228.471C342.562 229.082 341.982 229.558 341.304 229.839C340.625 230.12 339.879 230.192 339.159 230.047C338.439 229.902 337.779 229.545 337.262 229.023C336.746 228.501 336.397 227.838 336.26 227.117C336.123 226.396 336.204 225.65 336.493 224.975C336.782 224.301 337.265 223.727 337.882 223.328C338.498 222.929 339.22 222.723 339.954 222.736C340.921 222.747 341.845 223.138 342.524 223.826C343.204 224.513 343.585 225.441 343.585 226.407Z" fill="#1D262D"/>
<path d="M362.273 226.407C362.277 227.138 362.064 227.854 361.661 228.464C361.257 229.074 360.682 229.551 360.007 229.834C359.332 230.116 358.588 230.192 357.87 230.052C357.152 229.912 356.492 229.562 355.973 229.047C355.454 228.531 355.1 227.873 354.956 227.156C354.811 226.44 354.883 225.696 355.162 225.02C355.441 224.344 355.915 223.766 356.523 223.359C357.131 222.953 357.846 222.736 358.578 222.736C359.062 222.733 359.542 222.826 359.991 223.009C360.439 223.192 360.846 223.462 361.19 223.803C361.533 224.145 361.806 224.55 361.991 224.997C362.177 225.444 362.273 225.923 362.273 226.407Z" fill="#1D262D"/>
<path d="M371.472 153.352C389.989 130.784 386.693 97.4889 364.11 78.9846C341.527 60.4804 308.209 63.7744 289.692 86.3419C271.176 108.909 274.472 142.205 297.055 160.709C319.638 179.213 352.955 175.919 371.472 153.352Z" fill="url(#paint0_linear_131_4)"/>
<path d="M350.827 99.5433L310.308 140.034" stroke="white" stroke-width="2.27" stroke-miterlimit="10"/>
<path d="M350.827 140.034L310.308 99.5433" stroke="white" stroke-width="2.27" stroke-miterlimit="10"/>
<path d="M68.1315 337.566L122.899 335.296L125.299 241.644L118.504 222.672L95.7385 214.862L79.8751 211.934C75.3947 212.787 71.3673 215.213 68.5204 218.774C65.6735 222.335 64.1949 226.796 64.3515 231.352L70.2551 297.648L68.1315 337.566Z" fill="#F7D6B2"/>
<path d="M90.0259 197.291V216.093C90.0259 216.093 94.0183 218.47 103.32 218.47C108.353 218.47 109.478 219.34 109.478 219.34V209.154L90.0259 197.291Z" fill="#F7D6B2"/>
<path d="M87.8386 183.242C87.8386 183.921 87.8386 184.558 87.9447 185.173C87.9447 185.385 87.9447 185.598 87.9447 185.852C87.4775 197.015 94.6554 208.984 105.465 210.618H105.698H106.08C108.395 210.894 116.698 211.573 119.82 208.22C123.724 203.675 126.094 198.017 126.595 192.049C126.468 189.323 126.163 186.607 125.681 183.921C125.681 182.351 126.531 177.554 126.552 175.432C126.552 165.458 119.905 155.569 107.97 155.569C90.0683 155.548 87.2439 171.23 87.8386 183.242Z" fill="#F7D6B2"/>
<path d="M45.8547 290.539C51.7159 293.001 69.0658 260.213 75.4154 245.74C81.765 231.267 84.1435 218.767 76.9657 215.775C69.7879 212.783 62.6101 223.33 56.8126 238.015C51.0151 252.701 39.9723 288.099 45.8547 290.539Z" fill="#F7D6B2"/>
<path d="M48.0846 355.775C53.7122 355.775 55.9208 314.414 56.1119 302.72C56.303 291.027 55.6235 278.634 49.2951 278.528C42.9668 278.421 41.905 290.773 41.7351 302.487C41.5652 314.201 42.4358 355.69 48.0846 355.775Z" fill="#F7D6B2"/>
<path d="M48.5092 344.973C41.8836 344.379 42.1384 356.199 42.3933 360.231C42.7967 366.789 49.5923 373.177 52.1406 372.964C54.689 372.752 52.6715 358.109 53.2449 357.536C53.8183 356.963 54.0944 365.049 56.494 364.688C58.8937 364.327 58.023 354.586 56.218 350.851C54.4129 347.116 52.6715 345.419 48.5092 344.973Z" fill="#F7D6B2"/>
<path d="M85.7786 227.404C83.9148 234.223 81.1435 240.761 77.5389 246.844C72.9732 255.184 68.8746 262.335 66.1988 266.941C64.5424 269.784 63.4382 271.631 63.0984 272.204C63.0919 272.267 63.0919 272.331 63.0984 272.395L47.2562 265.922C47.2562 265.922 56.6426 226.831 71.3592 214.82C71.9909 214.494 72.6435 214.21 73.313 213.971C81.5313 215.52 87.5199 218.852 85.7786 227.404Z" fill="#89C0FF"/>
<path d="M101.939 330.606C96.4817 332.728 93.4449 341.344 95.2712 349.387C97.2669 357.762 100.15 365.9 103.872 373.665C115.233 397.688 124.004 429.817 132.052 429.711C140.101 429.605 142.67 409.657 134.877 383.703C127.741 360.231 121.222 329.46 115.297 327.932C112.303 327.147 106.717 328.802 101.939 330.606Z" fill="#F7D6B2"/>
<path d="M134.707 424.576C112.834 417.891 122.73 523.575 130.077 542.356C137.425 561.138 140.164 511.033 141.481 478.691C142.798 446.349 143.286 427.207 134.707 424.576Z" fill="#F7D6B2"/>
<path d="M124.386 518.843C124.62 519.182 126.212 548.023 126.212 548.023C126.212 548.023 140.143 549.02 140.143 548.023C140.143 547.025 141.205 522.005 141.205 522.005L124.386 518.843Z" fill="#F7D6B2"/>
<path d="M75.1819 518.843C75.4367 519.182 77.0082 548.023 77.0082 548.023C77.0082 548.023 90.9391 549.02 90.9391 548.023C90.9391 547.025 92.0009 522.005 92.0009 522.005L75.1819 518.843Z" fill="#F7D6B2"/>
<path d="M75.3518 330.224C69.5755 331.2 64.9248 339.095 65.1797 347.371C65.4968 355.969 66.7428 364.507 68.896 372.837C75.2668 398.6 77.7514 431.833 85.6725 433.277C93.5936 434.72 100.071 415.684 97.3524 388.711C94.9315 364.306 94.4855 332.855 88.9641 330.203C86.1822 328.844 80.3847 329.375 75.3518 330.224Z" fill="#F7D6B2"/>
<path d="M88.688 426.846C67.197 419.058 73.1856 525.146 79.5777 544.266C85.9698 563.387 89.7923 513.474 92.7441 481.174C95.6959 448.875 97.1399 429.86 88.688 426.846Z" fill="#F7D6B2"/>
<path d="M125.618 331.094C125.618 331.094 145.07 412.946 144.73 430.178C144.39 447.41 140.971 537.518 140.971 537.518C140.971 537.518 125.469 537.518 125.448 537.518C113.471 472.473 118.419 433.743 117.102 426.443C115.785 419.143 101.175 388.011 101.175 388.011C101.175 388.011 100.517 423.79 100.517 433.743C100.517 443.696 91.4913 536.86 91.4913 536.86L75.4368 537.199C75.4368 537.199 70.2551 473.534 70.2551 460.589C70.2551 447.644 73.4193 427.441 73.2494 424.788C73.0796 422.135 48.0422 357.175 64.6276 331.985C86.3946 298.858 125.618 331.094 125.618 331.094Z" fill="#0B2E4D"/>
<path d="M133.454 241.941C133.496 243.366 133.368 244.791 133.072 246.186C132.902 246.95 132.711 247.841 132.413 248.944C131.585 252.064 130.12 256.712 127.508 264.585C120.478 285.807 126.743 331.518 126.828 331.964C126.828 331.964 62.9923 333.492 63.1197 331.646C64.139 319.04 73.8652 307.835 65.5618 263.545C58.745 227.107 67.8129 213.249 75.8189 212.294C91.5761 210.406 119.417 219.807 123.218 223.33C127.019 226.853 133.326 234.089 133.454 241.941Z" fill="#89C0FF"/>
<path d="M190.622 222.82C189.772 216.581 152.991 218.194 137.531 220.04C122.071 221.887 110.052 226.131 111.092 233.75C112.133 241.368 124.768 242.238 140.249 239.819C155.731 237.4 191.471 229.06 190.622 222.82Z" fill="#EED7BA"/>
<path d="M162.93 236.02C162.93 236.02 146.047 242.514 133.008 246.08C125.023 248.202 117.867 247.459 116.274 242.727C116.274 242.599 116.019 242.726 115.892 242.578C107.779 239.373 105.274 225.813 113.195 222.269C117.824 220.147 127.678 220.507 136.257 219.871C152.949 218.64 159.022 218.406 159.022 218.406L162.717 235.023L162.93 236.02Z" fill="#89C0FF"/>
<path d="M129.525 169.214C129.262 172.312 128.28 175.305 126.658 177.958C121.094 187.486 117.909 196.484 118.164 207.668C118.334 221.08 126.403 237.06 118.164 249.475C106.038 267.556 74.9058 266.261 61.3359 251.173C52.2893 241.092 50.2082 224.752 60.8263 214.777C65.4133 210.533 69.7242 206.395 72.3787 200.601C79.7689 184.494 78.877 158.582 99.4123 152.025C110.731 148.375 130.332 154.784 129.525 169.214Z" fill="#1D262D"/>
<path d="M140.334 545.094C140.334 545.094 141.8 549.338 150.676 554.899C159.553 560.459 161.889 559.143 162.08 561.265C162.271 563.387 125.172 561.626 125.172 561.626L125.766 544.648C125.766 544.648 140.334 544.648 140.334 545.094Z" fill="#0B2E4D"/>
<path d="M91.0452 544.627C93.0799 548.139 95.6686 551.299 98.7115 553.986C103.978 559.1 108.65 557.997 108.225 559.822C107.801 561.647 76.3711 560.459 76.3711 560.459V544.627H91.0452Z" fill="#0B2E4D"/>
<path d="M136.087 170.063C132.095 173.968 159.744 204.464 167.941 212.783C176.139 221.102 185.249 229.272 189.751 224.9C194.253 220.529 186.268 211.149 178.156 202.83C170.044 194.511 140.101 166.158 136.087 170.063Z" fill="#EED7BA"/>
<path d="M122.793 159.41C121.243 160.959 129.504 168.514 131.649 170.954C131.989 171.336 132.18 171.591 132.158 171.697C132.137 171.803 132.031 171.697 131.819 171.697C130.545 171.336 126 168.45 124.683 170.042C123.367 171.634 129.546 177.745 133.475 179.677L134.133 179.995C137.935 181.523 140.504 181.756 143.775 179.252C149.041 175.263 140.929 166.774 138.062 163.994C135.507 161.68 132.411 160.046 129.058 159.24C126.17 158.561 123.664 158.54 122.793 159.41Z" fill="#EED7BA"/>
<path style="mix-blend-mode:multiply" opacity="0.5" d="M66.2627 266.792V266.941C64.6063 269.784 63.502 271.631 63.1622 272.204L64.8399 255.353C65.0697 259.193 65.545 263.013 66.2627 266.792Z" fill="url(#paint1_linear_131_4)"/>
<path style="mix-blend-mode:multiply" opacity="0.5" d="M133.072 246.079C132.902 246.843 132.71 247.735 132.413 248.838C128.4 251.236 120.372 249.369 120.372 249.369L133.114 246.079H133.072Z" fill="url(#paint2_linear_131_4)"/>
<defs>
<linearGradient id="paint0_linear_131_4" x1="29421.9" y1="15467.3" x2="29421.9" y2="20642.6" gradientUnits="userSpaceOnUse">
<stop stop-color="#008BEC"/>
<stop offset="1" stop-color="#0077EC"/>
</linearGradient>
<linearGradient id="paint1_linear_131_4" x1="527.085" y1="4261.29" x2="531.704" y2="4261.29" gradientUnits="userSpaceOnUse">
<stop offset="0.06" stop-color="#E38204"/>
<stop offset="1" stop-color="#E35802"/>
</linearGradient>
<linearGradient id="paint2_linear_131_4" x1="2370.55" y1="1163.29" x2="2446.75" y2="1163.29" gradientUnits="userSpaceOnUse">
<stop offset="0.06" stop-color="#E38204"/>
<stop offset="1" stop-color="#E35802"/>
</linearGradient>
</defs>
</svg>
