<svg width="531" height="531" viewBox="0 0 531 531" fill="none" xmlns="http://www.w3.org/2000/svg">
<g clip-path="url(#clip0_460_239)">
<path opacity="0.38" d="M265.584 480.032C384.251 480.032 480.451 383.833 480.451 265.166C480.451 146.498 384.251 50.2986 265.584 50.2986C146.916 50.2986 50.7168 146.498 50.7168 265.166C50.7168 383.833 146.916 480.032 265.584 480.032Z" fill="white"/>
<path d="M265.667 71.9986C263.828 70.4516 261.152 70.4516 259.312 71.9986L110.088 184.888C109.963 185.139 109.879 185.348 109.879 185.516V379.477C109.879 385.958 114.395 391.226 119.956 391.226H405.065C410.626 391.226 415.142 385.916 415.142 379.477V185.516C415.142 185.39 415.058 185.139 414.933 184.888L265.667 71.9986Z" fill="#0468A5"/>
<path d="M376.341 105.949H151.398V313.624H376.341V105.949Z" fill="#EDF2F7"/>
<path d="M292.97 276.329C282.517 281.848 271.646 283.939 259.103 283.939C227.912 283.939 201.446 261.11 201.446 224.4C201.446 185.223 228.455 151.147 270.894 151.147C304.008 151.147 326.251 174.561 326.251 206.128C326.251 234.852 310.28 251.41 292.385 251.41C284.775 251.41 277.751 246.643 278.127 234.852H277.542C270.894 246.058 262.113 251.41 250.532 251.41C239.703 251.41 230.17 242.671 230.17 227.619C230.17 204.038 248.817 182.338 275.242 182.338C283.437 182.338 290.67 184.261 295.604 186.519L289.123 220.971C286.28 235.438 288.538 242.086 294.851 242.295C304.552 242.504 315.381 229.542 315.381 207.675C315.381 179.913 298.823 160.094 269.138 160.094C238.323 160.094 212.233 184.637 212.233 223.271C212.233 255.047 232.971 274.824 260.943 274.824C271.981 274.824 282.057 272.524 289.876 268.176L292.97 276.329ZM282.517 193.92C280.594 193.334 277.374 192.414 272.984 192.414C256.26 192.414 242.713 208.386 242.713 226.867C242.713 235.438 246.894 241.333 255.256 241.333C266.294 241.333 276.371 227.243 278.461 215.452L282.517 193.92Z" fill="#0B2E4D"/>
<path d="M110.13 185.056C110.047 185.265 109.963 185.39 109.963 185.516V379.477C109.963 383.073 111.343 386.292 113.559 388.466L233.807 288.078L110.13 185.056Z" fill="#ABC9F4"/>
<path d="M415.016 185.056C415.1 185.265 415.184 185.39 415.184 185.516V379.477C415.184 383.073 413.804 386.292 411.588 388.466L291.339 288.078L415.016 185.056Z" fill="#ABC9F4"/>
<path d="M262.573 279.758C250.364 279.758 238.532 284.022 229.124 291.841L113.266 388.299C115.064 390.139 117.364 391.226 119.914 391.226H405.023C407.616 391.226 409.957 390.097 411.755 388.215L296.022 291.841C286.615 284.022 274.782 279.758 262.573 279.758Z" fill="#018BEC"/>
<path d="M164.652 112.304C161.892 113.308 154.074 119.83 151.356 122.674V105.907H155.37H195.55L182.547 92.8623C175.146 85.4199 164.359 82.4513 154.199 85.0436L150.352 86.0053L128.736 91.4825C122.799 92.9877 117.489 96.2908 113.475 100.974L77.3504 143.203L76.9741 143.412L57.6992 154.074L72.3331 180.833L84.96 175.355L91.9424 183.718L108.75 172.094L128.778 165.823L150.729 151.44L175.732 117.782C175.732 117.74 173.223 109.21 164.652 112.304Z" fill="#C18E65"/>
<path d="M74.0892 132.708L94.0331 191.996L0.418213 274.071V164.944L74.0892 132.708Z" fill="#89C0FF"/>
<path d="M423.169 336.579L350.544 299.869C348.286 298.698 345.694 300.83 346.404 303.297L368.564 381.609C369.275 384.076 372.536 384.536 373.874 382.32L384.327 365.219L405.943 391.477C406.989 392.731 408.828 392.898 410.083 391.895L425.344 379.31C426.598 378.264 426.765 376.425 425.762 375.17L404.145 348.913L422.919 341.931C425.26 341.052 425.427 337.749 423.169 336.579Z" fill="#EDF2F7"/>
<path d="M408.201 394.236C406.863 394.236 405.567 393.651 404.647 392.564L384.494 368.146L375.296 383.24C374.334 384.829 372.578 385.665 370.738 385.414C368.899 385.163 367.435 383.909 366.934 382.111L344.774 303.799C344.272 302.001 344.857 300.161 346.279 298.991C347.701 297.82 349.624 297.611 351.296 298.447L423.922 335.157C425.595 335.993 426.556 337.666 426.431 339.506C426.347 341.345 425.176 342.934 423.42 343.561L406.863 349.707L427.016 374.125C427.81 375.087 428.145 376.257 428.061 377.512C427.978 378.766 427.351 379.853 426.389 380.606L411.128 393.191C410.25 393.86 409.205 394.236 408.201 394.236ZM384.076 362.334L407.198 390.39C407.658 390.933 408.452 391.017 408.954 390.557L424.215 377.972C424.466 377.763 424.633 377.47 424.675 377.135C424.716 376.801 424.591 376.466 424.382 376.216L401.261 348.16L422.25 340.342C422.96 340.091 423.044 339.464 423.086 339.213C423.086 338.962 423.044 338.377 422.417 338L349.791 301.29C349.122 300.956 348.62 301.29 348.411 301.457C348.202 301.625 347.784 302.043 347.993 302.754L370.153 381.066C370.362 381.777 370.948 381.944 371.198 381.986C371.449 382.027 372.035 382.027 372.453 381.4L384.076 362.334Z" fill="#0468A5"/>
<path d="M484.883 418.361C484.883 418.361 477.148 380.439 474.137 369.526C472.674 364.132 467.573 361.08 462.848 358.153L455.113 355.519L424.382 352.132C422.459 351.923 420.535 352.258 418.821 353.136L410.835 357.15L412.675 388.633C410.292 385.456 404.396 378.766 401.762 377.428C401.637 377.345 401.47 377.303 401.344 377.219C395.574 374.543 389.846 381.024 392.982 386.501L408.828 414.138C410.25 416.605 412.09 418.779 414.264 420.619L427.351 431.573C429.859 433.664 432.619 435.378 435.587 436.716L450.263 443.281L465.608 456.827L495.085 428.939L484.883 418.361Z" fill="#C18E65"/>
<path d="M493.161 409.957L457.789 461.552L497.551 531.209H531V449.259L493.161 409.957Z" fill="#0B2E4D"/>
</g>
<defs>
<clipPath id="clip0_460_239">
<rect width="531" height="531" fill="white"/>
</clipPath>
</defs>
</svg>
