<svg width="368" height="336" viewBox="0 0 368 336" fill="none" xmlns="http://www.w3.org/2000/svg">
<path opacity="0.05" d="M183.999 336C285.619 336 367.999 331.16 367.999 325.19C367.999 319.22 285.619 314.38 183.999 314.38C82.3793 314.38 0 319.22 0 325.19C0 331.16 82.3793 336 183.999 336Z" fill="black"/>
<path d="M85.7629 150.436L66.8816 315.014C66.5132 319.016 65.3296 320.075 63.9483 320.075C63.8479 320.077 63.7474 320.073 63.6475 320.063C62.1361 319.905 60.9966 318.743 61.3564 314.45L78.0903 150.436H85.7629Z" fill="#303243"/>
<path d="M209.035 316.08C209.035 319.175 208.002 320.083 206.68 320.215C205.17 320.368 203.847 319.455 203.446 315.166L185.13 150.436H192.743L208.975 314.602C209.018 315.142 209.035 315.636 209.035 316.08Z" fill="#303243"/>
<path d="M258.391 228.92L247.51 317.24C247.296 319.389 246.616 319.957 245.82 319.957C245.762 319.959 245.704 319.956 245.646 319.95C244.775 319.865 244.12 319.242 244.327 316.938L253.969 228.92H258.391Z" fill="#303243"/>
<path d="M329.423 317.813C329.423 319.473 328.829 319.96 328.067 320.032C327.196 320.114 326.434 319.623 326.203 317.323L315.644 228.92H320.028L329.382 317.019C329.414 317.309 329.423 317.575 329.423 317.813Z" fill="#303243"/>
<path d="M163.712 280.265C162.505 279.889 160.397 279.311 159.23 279.961C158.096 280.596 157.691 282.039 157.251 283.166C156.502 285.071 155.616 286.919 154.6 288.696C152.652 292.125 150.282 295.302 147.7 298.281C143.157 303.513 137.984 308.142 132.998 312.948C132.384 313.537 131.747 314.483 132.287 315.137C132.688 315.621 133.441 315.524 134.053 315.382C143.946 313.063 153.64 309.961 163.043 306.106C164.002 305.713 165.028 305.246 165.524 304.34C166.082 303.315 165.797 302.062 165.587 300.914C164.903 297.135 165.208 293.243 166.472 289.617C167.133 287.735 168.068 285.758 167.544 283.831C167.071 282.065 165.448 280.805 163.712 280.265Z" fill="#FEA587"/>
<path d="M161.917 304.834L156.111 307.538C149.907 310.427 143.5 313.368 136.663 313.657C135.986 313.685 135.285 313.683 134.66 313.419C134.035 313.155 133.502 312.559 133.502 311.886C131.753 313.181 130.202 314.725 128.9 316.469C128.516 316.984 128.146 317.531 127.99 318.155C127.834 318.779 127.93 319.5 128.379 319.96C129.062 320.659 130.835 320.299 131.718 320.23C133.298 320.107 134.857 319.806 136.409 319.493C140.411 318.693 144.504 318.446 148.428 317.269C152.286 316.116 155.919 314.313 159.172 311.939L163.02 318.616C164.299 314.614 166.157 310.474 166.357 306.244C166.399 305.445 166.374 304.645 166.282 303.851C166.2 303.19 165.849 302.622 165.814 301.962C165.488 303.108 164.341 303.697 163.345 304.164L161.917 304.834Z" fill="#303243"/>
<path d="M245.858 13.2531C242.628 10.2793 237.45 10.3371 234.38 13.5075C232.909 15.0189 232.061 17.0307 232.008 19.1405C231.966 21.522 232.868 23.7892 233.545 26.0331C234.232 28.3113 234.688 30.7027 233.784 32.9871C232.994 34.9864 231.434 36.5581 229.94 38.0499C228.447 39.5417 226.871 41.0618 225.833 42.9444C224.673 45.0445 224.15 47.4481 224.083 49.8333C223.932 55.2402 226.124 60.362 228.123 65.2712C229.958 69.7774 232.052 74.3426 235.914 77.4798C239.808 80.6465 244.741 82.3288 249.354 84.1401C254.61 86.2033 259.958 88.1412 265.515 89.214C268.193 89.7489 270.915 90.0283 273.646 90.0484C276.417 90.0484 279.117 89.6588 281.829 89.1218C284.619 88.5701 287.433 88.0257 290.286 88.3845C292.967 88.7188 295.594 89.6466 298.321 89.5519C300.411 89.4838 302.405 88.658 303.931 87.2282C305.424 85.8457 306.492 84.0529 307.347 82.2231C308.308 80.1636 309.022 77.9959 309.743 75.8442C310.641 73.1616 311.48 70.4496 311.998 67.665C312.973 62.4203 312.541 57.0749 310.248 52.2172C309.159 49.9083 307.537 47.9163 306.392 45.6466C305.79 44.4687 305.412 43.189 305.278 41.8728C305.155 40.6305 305.176 39.3771 305.053 38.1335C304.847 36.0322 304.081 34.2356 302.394 32.9207C300.848 31.7177 298.992 31.0185 297.3 30.06C296.44 29.5684 295.605 29.0118 294.917 28.2917C294.193 27.5335 293.689 26.6106 293.32 25.6349C292.613 23.745 292.374 21.7161 291.674 19.825C291.004 18.0161 289.86 16.5673 288.054 15.8054C286.049 14.9612 283.815 14.9452 281.785 14.176C277.365 12.5109 277.328 7.21457 274.707 3.9311C272.238 0.838105 268.045 -0.266626 264.233 0.0590175C259.645 0.449789 255.66 2.99841 252.292 5.9931C250.46 7.62255 248.77 9.40437 247.089 11.1874C246.967 11.3238 247.167 11.5315 247.296 11.3939C250.611 7.8806 254.031 4.25674 258.399 2.05466C262.082 0.200333 266.511 -0.363701 270.416 1.17604C272.3 1.92072 273.959 3.19011 275.053 4.90926C276.158 6.65668 276.723 8.67566 277.641 10.5189C278.522 12.2885 279.768 13.7041 281.643 14.4267C283.624 15.1922 285.806 15.2229 287.782 16.0033C292.008 17.672 291.711 22.5567 293.205 26.1289C293.923 27.8419 295.133 29.0917 296.708 30.0489C298.326 31.032 300.123 31.7042 301.693 32.7696C302.5 33.3164 303.235 33.98 303.757 34.8095C304.415 35.8552 304.665 37.0742 304.772 38.2895C304.878 39.4803 304.862 40.6784 304.981 41.8679C305.089 42.9941 305.374 44.096 305.826 45.133C306.808 47.3731 308.393 49.2779 309.53 51.4332C310.745 53.7444 311.567 56.242 311.962 58.8235C312.811 64.3533 311.412 69.8339 309.69 75.059C308.969 77.2463 308.256 79.4558 307.321 81.5632C306.489 83.4384 305.464 85.2879 304.006 86.7477C302.459 88.3218 300.356 89.224 298.151 89.2595C295.484 89.3086 292.913 88.414 290.293 88.0884C287.672 87.7627 285.057 88.1916 282.48 88.7028C279.73 89.2423 277.005 89.7215 274.194 89.7584C268.727 89.8321 263.33 88.6524 258.141 87.0045C255.553 86.1849 253.003 85.2473 250.47 84.2667C248.002 83.3094 245.525 82.3521 243.103 81.2917C240.926 80.3405 238.784 79.2604 236.865 77.8509C234.837 76.3566 233.182 74.4716 231.857 72.3359C230.577 70.2726 229.586 68.046 228.665 65.8058C227.651 63.3481 226.628 60.872 225.81 58.3369C224.264 53.5444 223.529 48.033 225.948 43.3843C227.878 39.672 231.852 37.5535 233.739 33.8276C234.682 31.9671 234.773 29.9469 234.353 27.9292C233.873 25.6177 232.88 23.4414 232.478 21.1115C232.082 18.8345 232.459 16.5833 233.808 14.6786C235.157 12.7739 237.26 11.5364 239.579 11.3717C240.683 11.2911 241.792 11.4355 242.838 11.7962C243.885 12.157 244.847 12.7266 245.668 13.4706C245.806 13.5935 246.013 13.392 245.874 13.2642L245.858 13.2531Z" fill="#0B2E4E"/>
<path d="M257.171 2.41095C259.16 1.71569 261.257 1.38273 263.363 1.42787C268.52 1.55936 273.481 4.09569 276.843 7.96532C278.336 9.6857 278.987 12.5981 280.539 14.0641C282.561 15.9725 285.141 15.7205 286.709 18.6304C288.037 21.0955 288.488 23.9624 289.838 26.4201C292.188 30.6743 296.826 33.0079 300.682 35.962C308.357 41.8421 313.422 51.0166 314.311 60.6495C314.634 64.164 314.302 68.0385 311.925 70.6461C309.906 72.858 306.551 74.0156 305.589 76.8579C305.22 77.9639 305.279 79.1571 305.163 80.3171C304.613 85.8223 299.922 90.2019 294.719 92.0722C288.825 94.1895 283.105 93.4362 277.096 93.1929C271.087 92.9496 265.229 94.8752 259.306 94.772C253.588 94.6712 247.596 93.4534 241.888 92.855C239.969 92.6547 237.714 92.4175 236.07 91.2956C234.294 90.0803 234.41 88.5442 233.312 87.0266C231.264 84.1941 226.046 83.356 226.579 78.7847C226.844 76.5138 228.811 74.8635 229.803 72.8064C232.504 67.2127 226.558 63.0212 225.53 57.8784C224.188 51.1555 229.137 45.1562 229.405 38.4308C229.55 34.791 229.282 31.1351 229.651 27.5113C230.033 23.7793 231.179 19.7696 233.964 17.0944C236.609 14.5556 239.574 14.6367 242.797 13.6106C245.8 12.6484 246.623 10.7204 248.581 8.37944C250.852 5.64814 253.82 3.58522 257.171 2.41095Z" fill="#0B2E4E"/>
<g opacity="0.2">
<path opacity="0.2" d="M243.52 21.3019C244.968 17.984 248.315 15.6185 251.942 15.4698C255.569 15.3211 259.057 17.3573 260.814 20.508C261.649 22.006 262.341 23.6428 263.985 24.4096C265.499 25.1174 267.246 25.008 268.872 24.9724C270.63 24.9343 272.326 25.0818 273.992 25.6765C275.635 26.2671 277.145 27.1748 278.438 28.348C279.736 29.5117 280.786 30.9267 281.522 32.5077C282.317 34.2354 282.595 36.1143 282.847 37.9834C283.093 39.7959 283.314 41.6552 284.041 43.351C284.724 44.9485 285.863 46.1921 287.233 47.2268C288.603 48.2614 290.135 49.1007 291.509 50.1502C292.974 51.2449 294.145 52.6848 294.92 54.3417C296.467 57.7137 296.445 61.6276 295.657 65.19C293.884 73.1492 288.428 80.6869 290.027 89.1684C290.211 90.1387 290.499 91.0863 290.887 91.9947C290.961 92.1655 291.238 92.0758 291.163 91.9026C289.415 87.8044 289.967 83.2073 291.206 79.0489C292.434 74.9433 294.343 71.0774 295.503 66.9521C296.511 63.3885 296.898 59.5606 295.834 55.9601C295.365 54.3158 294.541 52.7944 293.421 51.5031C292.245 50.1735 290.731 49.2224 289.256 48.2627C287.717 47.2624 286.138 46.2068 285.082 44.6671C283.937 42.9983 283.552 40.9805 283.274 39.0144C283.009 37.149 282.835 35.2431 282.209 33.4539C281.655 31.8957 280.805 30.4598 279.705 29.2254C277.495 26.7247 274.341 25.0228 271.004 24.7254C269.216 24.5669 267.407 24.8716 265.628 24.5939C264.689 24.4477 263.786 24.1134 263.072 23.4671C262.357 22.8207 261.896 21.9396 261.447 21.0917C260.605 19.4942 259.606 18.1155 258.114 17.0611C256.74 16.0807 255.146 15.4547 253.473 15.2387C250.071 14.8234 246.635 16.3533 244.529 19.0359C244.018 19.6881 243.592 20.4029 243.261 21.163C243.186 21.3338 243.445 21.469 243.52 21.2969V21.3019Z" fill="#7BA5D5"/>
<path opacity="0.2" d="M291.103 92.1251C291.071 92.1378 291.036 92.142 291.001 92.1374C290.966 92.1333 290.933 92.1197 290.905 92.098C290.877 92.0763 290.855 92.0475 290.843 92.0145C290.454 91.1022 290.166 90.1504 289.983 89.1759C288.926 83.576 290.965 78.3166 292.939 73.2304C293.955 70.6056 295.007 67.8923 295.613 65.1778C296.244 62.3441 296.629 58.166 294.883 54.364C294.114 52.7118 292.947 51.2763 291.487 50.1859C290.785 49.6489 290.03 49.1598 289.301 48.6867C288.604 48.2358 287.885 47.77 287.213 47.2625C285.681 46.1086 284.635 44.8343 284.001 43.3659C283.308 41.7462 283.069 39.9681 282.839 38.2502L282.804 37.986C282.534 35.983 282.249 34.1901 281.483 32.525C280.748 30.9514 279.704 29.5418 278.414 28.3801C277.123 27.2139 275.619 26.3099 273.984 25.7184C272.521 25.1962 270.899 24.9738 268.881 25.018L268.489 25.0266C266.958 25.0659 265.375 25.1052 263.972 24.4503C262.531 23.7781 261.806 22.4301 261.105 21.1324C260.999 20.9358 260.889 20.7318 260.78 20.5327C258.999 17.3377 255.534 15.3716 251.952 15.5166C248.391 15.6616 245.026 17.9939 243.572 21.3192C243.561 21.3482 243.542 21.3736 243.518 21.3927C243.493 21.4117 243.464 21.4237 243.433 21.4273C243.397 21.4302 243.361 21.4236 243.328 21.4083C243.295 21.393 243.266 21.3695 243.245 21.3401C243.224 21.3127 243.211 21.2802 243.208 21.2459C243.204 21.2117 243.21 21.1771 243.224 21.1459C243.557 20.3819 243.985 19.6633 244.499 19.0077C245.557 17.6657 246.933 16.6097 248.503 15.9356C250.07 15.2537 251.789 14.9993 253.486 15.1983C255.168 15.4118 256.771 16.0387 258.152 17.0232C259.493 17.9718 260.525 19.2203 261.502 21.071L261.518 21.1005C261.957 21.9324 262.411 22.7938 263.114 23.4353C263.75 24.0116 264.602 24.3876 265.645 24.5498C266.628 24.7034 267.646 24.6727 268.627 24.6518C269.423 24.6156 270.222 24.6255 271.017 24.6813C274.29 24.9725 277.473 26.618 279.752 29.1973C280.857 30.4353 281.711 31.877 282.265 33.4417C282.787 34.9335 283.002 36.5249 283.203 38.0646C283.245 38.3804 283.287 38.6962 283.326 39.0108C283.586 40.8479 283.961 42.9505 285.126 44.6488C286.211 46.234 287.917 47.3424 289.286 48.2321L289.513 48.3795C290.903 49.2815 292.337 50.2154 293.462 51.4811C294.588 52.7764 295.415 54.3046 295.884 55.9566C296.829 59.1516 296.718 62.859 295.555 66.9756C294.941 69.1236 294.125 71.2348 293.33 73.2759C292.594 75.1572 291.838 77.1037 291.252 79.0723C289.725 84.1929 289.711 88.387 291.207 91.8941C291.22 91.9217 291.226 91.9524 291.223 91.9829C291.22 92.0134 291.209 92.0425 291.191 92.0673C291.168 92.0946 291.137 92.1146 291.103 92.1251ZM249.149 15.9823C250.044 15.6511 250.986 15.4616 251.939 15.4207C253.748 15.3562 255.537 15.8039 257.102 16.7123C258.674 17.6064 259.972 18.913 260.856 20.4909C260.966 20.69 261.076 20.894 261.182 21.0919C261.876 22.3809 262.593 23.713 264.006 24.3729C265.388 25.018 266.959 24.9787 268.479 24.9394L268.871 24.9308C270.902 24.8865 272.535 25.1102 274.009 25.6361C275.656 26.2317 277.172 27.1424 278.471 28.3174C279.773 29.4879 280.826 30.9089 281.567 32.4955C282.338 34.1729 282.625 35.9731 282.895 37.9835L282.931 38.2477C283.16 39.9607 283.397 41.7315 284.085 43.3388C284.707 44.7913 285.747 46.0521 287.267 47.1949C287.939 47.7012 288.656 48.1669 289.355 48.6167C290.085 49.091 290.841 49.5801 291.547 50.1196C293.019 51.2188 294.195 52.6651 294.973 54.3296C296.73 58.1587 296.343 62.3588 295.71 65.2085C295.103 67.9292 294.05 70.6462 293.031 73.2734C291.066 78.3473 289.029 83.5957 290.084 89.166C290.268 90.1336 290.556 91.0784 290.943 91.9838C290.95 92.0006 290.961 92.0153 290.975 92.0261C290.989 92.037 291.006 92.0436 291.024 92.0452C291.043 92.0481 291.062 92.0461 291.08 92.0394C291.098 92.0328 291.114 92.0216 291.126 92.0071C291.133 91.9957 291.137 91.9825 291.137 91.969C291.137 91.9556 291.133 91.9424 291.126 91.9309C289.621 88.4017 289.635 84.1892 291.167 79.0428C291.755 77.0767 292.517 75.1228 293.248 73.239C294.042 71.1991 294.864 69.0917 295.469 66.9486C296.628 62.8492 296.739 59.1602 295.799 55.9836C295.335 54.3448 294.515 52.8287 293.398 51.5438C292.285 50.2879 290.854 49.3589 289.469 48.4594L289.242 48.3132C287.865 47.4174 286.151 46.3028 285.054 44.7028C283.877 42.9825 283.5 40.8713 283.238 39.0231C283.193 38.7085 283.152 38.3927 283.115 38.0757C282.91 36.5421 282.699 34.9544 282.18 33.4724C281.63 31.9194 280.783 30.4886 279.686 29.26C277.424 26.7003 274.265 25.0659 271.016 24.7772C270.224 24.7219 269.43 24.7121 268.636 24.7477C267.654 24.7735 266.633 24.8005 265.638 24.6457C264.575 24.4798 263.707 24.0964 263.06 23.5053C262.343 22.8552 261.885 21.9865 261.441 21.1472L261.425 21.1177C260.457 19.2818 259.433 18.0456 258.11 17.1043C256.742 16.1281 255.153 15.5071 253.485 15.2966C250.146 14.8887 246.732 16.3362 244.586 19.0741C244.071 19.7207 243.64 20.4301 243.304 21.1852C243.297 21.201 243.294 21.2184 243.295 21.2358C243.297 21.2531 243.304 21.2696 243.314 21.2836C243.325 21.2992 243.34 21.3118 243.358 21.3202C243.375 21.3286 243.394 21.3324 243.413 21.3315C243.427 21.3295 243.44 21.3238 243.451 21.3149C243.462 21.306 243.47 21.2943 243.475 21.2811L243.519 21.3008L243.475 21.2811C244.02 20.0637 244.802 18.9678 245.777 18.0578C246.751 17.1478 247.897 16.4421 249.149 15.9823Z" fill="#EAEEF7"/>
</g>
<path d="M261.501 76.9096C261.738 74.9066 261.87 73.7146 263.009 72.3985C263.915 71.354 264.803 70.7813 264.658 69.104C264.513 67.4266 263.553 66.0147 262.783 64.5634C262.013 63.1121 261.392 61.3586 261.977 59.8115C262.345 58.8198 263.153 58.0984 263.818 57.2899C264.484 56.4813 265.031 55.4122 264.754 54.3849C264.314 52.7567 262.139 52.3155 261.533 50.7487C261.05 49.4965 261.765 48.103 261.765 46.7513C261.765 44.8527 260.292 43.238 258.626 42.5585C256.562 41.7192 254.62 42.1898 252.535 42.1776C250.16 42.1677 247.788 41.3493 245.413 41.3493C242.95 41.09 242.733 40.7521 241.66 38.3681C240.79 36.4147 240.058 34.4027 239.47 32.3468C239.196 31.4043 237.674 27.5543 238.125 26.7187C234.758 32.933 232.745 39.7715 232.376 46.9664C232.243 49.6698 232.347 52.4408 233.257 54.9686C233.695 56.1851 234.321 57.3562 234.439 58.6551C234.738 61.9103 230.633 63.0077 230.379 66.0786C230.158 68.782 233.308 70.4864 233.904 73.1297C234.281 74.8046 233.56 76.5188 233.451 78.2367C233.23 81.7279 235.747 85.0138 238.884 86.1013C242.021 87.1889 245.548 86.3385 248.338 84.478C249.934 83.4188 251.554 81.9786 253.42 82.2096C254.537 82.3484 255.533 83.0882 256.654 83.1927C258.066 83.3266 259.424 82.3951 260.228 81.1565C261.078 79.8551 261.326 78.3866 261.501 76.9096Z" fill="#061F33"/>
<path d="M222.986 130.118C217.637 130.374 212.449 129.578 207.147 129.06C204.705 128.815 204.064 129.253 203.341 131.85C202.787 133.833 202.973 135.847 204.463 137.38C206.172 139.146 208.735 139.724 211.151 140.17C222.655 142.29 234.342 143.258 246.037 143.059C250.999 142.975 256.351 142.527 260.12 139.291C262.361 137.364 263.764 134.659 265.052 131.997C270.587 120.558 275.004 108.61 278.24 96.3191C279.6 91.158 280.573 85.085 277.18 80.9586C274.275 77.4244 268.83 76.697 264.631 78.5095C260.432 80.3221 257.412 84.2089 255.634 88.425C253.856 92.6412 253.165 97.2223 252.435 101.74C251.706 106.257 250.903 110.833 248.93 114.962C247.078 118.822 244.273 122.144 240.78 124.616C235.639 128.253 229.271 129.819 222.986 130.118Z" fill="#89C0FF"/>
<path d="M173.223 135.028C175.999 134.865 178.645 136.064 181.318 136.832C188.537 138.903 196.237 137.853 203.671 136.787C205.622 136.507 208.11 135.627 208.03 133.655C207.953 131.768 205.582 131.029 203.708 130.797L189.54 129.04C185.734 128.569 181.846 128.101 178.111 128.952C176.693 129.281 175.318 129.776 174.016 130.427C172.711 131.082 171.463 131.847 170.287 132.714C169.092 133.595 167.945 134.538 166.849 135.54C166.297 136.039 165.752 136.547 165.216 137.064C164.949 137.321 164.682 137.58 164.417 137.839C164.164 138.085 163.856 138.317 163.642 138.597C163.593 138.661 163.549 138.729 163.511 138.8C163.879 138.776 164.224 138.595 164.564 138.452C164.904 138.31 165.225 138.165 165.546 138.009C166.196 137.697 166.832 137.358 167.47 137.026C168.73 136.366 170.01 135.712 171.39 135.339C171.988 135.172 172.603 135.068 173.223 135.028Z" fill="#FF917B"/>
<g opacity="0.05">
<path opacity="0.05" d="M222.986 130.118C217.637 130.374 212.449 129.578 207.147 129.06C204.705 128.815 204.064 129.253 203.341 131.85C202.787 133.833 202.973 135.847 204.463 137.38C206.172 139.146 208.735 139.724 211.151 140.17C222.655 142.29 234.342 143.258 246.037 143.059C250.999 142.975 256.351 142.527 260.12 139.291C262.361 137.364 263.764 134.659 265.052 131.997C270.587 120.558 275.004 108.61 278.24 96.3191C279.6 91.158 280.573 85.085 277.18 80.9586C274.275 77.4244 268.83 76.697 264.631 78.5095C260.432 80.3221 257.412 84.2089 255.634 88.425C253.856 92.6412 253.165 97.2223 252.435 101.74C251.706 106.257 250.903 110.833 248.93 114.962C247.078 118.822 244.273 122.144 240.78 124.616C235.639 128.253 229.271 129.819 222.986 130.118Z" fill="black"/>
</g>
<path d="M265.234 58.2029C266.906 57.3746 269.431 53.8343 271.17 54.8334C273.288 56.0487 275.111 63.2903 276.105 65.4014L280.964 75.6991C281.849 77.5768 282.755 79.7261 282.081 81.6627C281.337 83.7997 279.02 84.7139 276.956 85.3861L269.305 87.877C266.778 88.6991 264.122 89.531 261.499 88.9829C258.877 88.4349 258.84 86.4233 259.057 83.6289C259.278 80.7952 259.239 81.6726 260.531 79.205C262.004 76.3787 261.789 69.8511 261.746 66.5959C261.703 63.3407 262.468 59.573 265.234 58.2029Z" fill="#FF917B"/>
<path d="M270.375 320.072C264.887 318.843 268.4 314.845 270.06 311.854C271.813 308.696 273.093 305.381 273.094 301.718C273.075 296.603 271.181 291.672 267.771 287.863C265.457 285.297 262.424 283.2 261.141 279.989C259.935 276.961 260.65 273.26 262.908 270.907C263.688 270.092 264.812 269.399 265.893 269.722C266.572 269.925 267.075 270.485 267.539 271.022L279.389 284.682C282.153 287.867 285.017 291.252 285.858 295.386C286.673 299.393 285.463 303.511 284.139 307.379C283.028 310.631 281.782 313.932 279.512 316.509C277.241 319.086 273.725 320.825 270.375 320.072Z" fill="#FEA587"/>
<path d="M225.255 200.103C225.355 195.866 224.372 194.942 220.416 195.325C217.046 195.655 213.655 196.078 210.572 197.575C206.505 199.542 202.761 202.119 199.471 205.217C192.718 211.594 188.151 219.893 183.692 228.045L157.111 276.655C156.173 278.376 155.205 280.308 155.709 282.196C156.356 284.617 159.049 285.77 161.415 286.588C164.71 287.729 168.561 288.814 171.494 286.927C173.411 285.699 174.413 283.487 175.588 281.538C181.784 271.242 194.225 266.524 202.231 257.565C208.164 250.924 211.337 242.328 214.38 233.958C217.013 226.713 219.646 219.468 222.28 212.224C223.706 208.296 225.15 204.282 225.255 200.103Z" fill="#0B2E4E"/>
<g opacity="0.1">
<path opacity="0.1" d="M225.255 200.103C225.355 195.866 224.372 194.942 220.416 195.325C217.046 195.655 213.655 196.078 210.572 197.575C206.505 199.542 202.761 202.119 199.471 205.217C192.718 211.594 188.151 219.893 183.692 228.045L157.111 276.655C156.173 278.376 155.205 280.308 155.709 282.196C156.356 284.617 159.049 285.77 161.415 286.588C164.71 287.729 168.561 288.814 171.494 286.927C173.411 285.699 174.413 283.487 175.588 281.538C181.784 271.242 194.225 266.524 202.231 257.565C208.164 250.924 211.337 242.328 214.38 233.958C217.013 226.713 219.646 219.468 222.28 212.224C223.706 208.296 225.15 204.282 225.255 200.103Z" fill="black"/>
</g>
<path d="M260.476 78.6729C260.047 78.7418 259.617 78.8118 259.18 78.8868C257.26 90.5935 255.342 102.301 253.424 114.008C252.895 117.241 252.379 120.644 253.52 123.716C255.041 127.813 259.145 130.342 263.202 131.959C268.688 134.148 273.28 135.42 276.638 140.684C278.422 143.485 279.606 146.618 280.777 149.726C283.847 157.867 287.742 166.101 289.916 174.525C290.345 176.189 293.986 187.513 292.862 188.507C299.669 182.489 308.152 178.7 317.173 177.649C319.677 177.364 322.621 177.047 323.878 174.862C325.386 172.241 323.337 169.079 321.504 166.673C311.966 154.16 305.91 139.354 300.929 124.425C295.948 109.496 291.924 94.2215 285.901 79.683C284.918 77.3188 282.564 72.2314 279.796 71.51C276.629 70.6842 273.723 74.399 271.308 75.7213C267.89 77.6088 264.262 78.0683 260.476 78.6729Z" fill="#89C0FF"/>
<path d="M333.536 188.136C330.865 180.981 326.872 174.406 322.82 167.983C321.664 166.151 320.6 163.649 319.039 162.142C318.303 161.429 316.255 162.619 315.248 162.957C313.646 163.493 312.035 164.003 310.415 164.487C303.938 166.423 297.342 167.939 290.669 169.026C289.924 169.149 288.818 169.385 288.62 170.248C288.389 171.249 289.152 173.172 289.288 174.225C289.631 176.867 289.764 179.531 289.686 182.193C289.696 182.46 289.648 182.725 289.545 182.971C289.25 183.552 288.648 183.268 288.149 183.243C282.624 182.954 277.098 183.295 271.581 183.639L222.36 186.712C217.387 187.021 211.893 187.572 208.514 191.231C204.462 195.619 205.211 202.496 206.635 208.296C213.658 236.899 231.285 262.765 255.328 279.75C257.017 280.943 258.843 282.132 260.906 282.282C264.62 282.55 267.828 279.194 268.641 275.557C269.454 271.919 268.451 268.141 267.276 264.604C261.803 248.195 252.569 233.295 240.313 221.097C253.931 222.547 274.176 225.88 287.958 226.247C288.45 226.3 288.952 226.323 289.426 226.329C296.682 226.429 303.938 226.363 311.192 226.129C315.935 225.977 320.834 225.713 325.094 223.535C330.864 220.586 334.683 214.351 335.872 207.783C337.06 201.214 335.862 194.365 333.536 188.136Z" fill="#0B2E4E"/>
<path d="M290.943 296.29C291.434 297.069 291.933 297.848 292.461 298.604C293.821 300.554 295.451 302.397 297.566 303.48L289.918 303.291C289.427 303.278 288.909 303.273 288.486 303.523C287.819 303.917 287.945 305.144 287.804 305.826C287.558 306.998 287.322 308.17 287.082 309.343C286.524 312.066 286.408 315.623 284.872 317.995C283.711 319.788 281.679 320.592 279.66 320.787C278.023 320.945 276.385 321.077 274.748 321.181C271.5 321.388 268.249 321.488 264.995 321.481C264.724 321.481 264.434 321.473 264.221 321.306C263.926 321.073 263.908 320.637 263.951 320.263C264.115 318.822 264.819 317.806 265.643 316.656C266.236 315.83 267.393 313.937 268.377 313.577C269.307 313.237 270.086 313.685 271.002 313.657C272.862 313.599 274.545 313.607 276.314 312.983C278.96 312.05 280.35 310.266 281.225 307.699C282.358 304.381 282.861 300.679 283.331 297.215C283.57 295.448 283.765 293.671 283.886 291.891C283.917 291.439 283.808 290.814 284.199 290.5C284.721 290.079 285.893 290.474 286.398 290.733C287.257 291.174 287.912 291.913 288.501 292.672C289.385 293.827 290.161 295.06 290.943 296.29Z" fill="#303243"/>
<path d="M190.794 135.996H122.682C120.609 135.996 118.929 137.678 118.929 139.753V139.82C118.929 141.895 120.609 143.577 122.682 143.577H190.794C192.867 143.577 194.547 141.895 194.547 139.82V139.753C194.547 137.678 192.867 135.996 190.794 135.996Z" fill="#122C51"/>
<path d="M356.806 111.333C353.94 111.333 351.76 113.829 352.042 116.683C352.076 117.035 352.094 117.391 352.094 117.753V185.339C352.094 207.008 334.543 224.573 312.892 224.573H254.297C253.931 224.573 253.57 224.555 253.214 224.519C250.626 224.26 248.363 226.24 248.363 228.84V228.914H266.692L255.931 327.143C255.725 329.447 256.38 330.072 257.25 330.154C258.12 330.238 258.882 329.748 259.114 327.451L271.253 228.919H325.994L337.808 327.533C338.04 329.835 338.801 330.325 339.672 330.243C340.541 330.159 341.197 329.534 340.99 327.23L330.511 228.845C345.266 227.793 356.909 215.48 356.909 200.445V111.333H356.806Z" fill="#164778"/>
<path d="M171.455 132.303C174.415 132.303 177.152 133.744 179.944 134.725C187.487 137.377 195.734 136.742 203.7 136.077C205.787 135.901 208.488 135.121 208.528 133.021C208.563 131.011 206.089 130.072 204.107 129.714L189.161 126.963C185.151 126.226 181.043 125.488 177.021 126.157C175.566 126.406 174.144 126.818 172.781 127.386C171.417 127.957 170.103 128.641 168.852 129.429C167.582 130.23 166.355 131.098 165.177 132.029C163.989 132.958 162.844 133.935 161.704 134.927C161.384 135.205 161.063 135.471 160.735 135.738C161.114 135.675 161.488 135.584 161.853 135.465C162.201 135.348 162.543 135.219 162.882 135.084C163.563 134.813 164.233 134.512 164.896 134.211C166.213 133.613 167.538 133.007 168.948 132.644C169.766 132.424 170.608 132.31 171.455 132.303Z" fill="#FEA587"/>
<path d="M224.642 130.192C218.941 130.13 213.478 128.963 207.878 128.08C205.3 127.673 204.59 128.092 203.661 130.807C202.95 132.88 203.023 135.031 204.509 136.759C206.215 138.743 208.902 139.518 211.443 140.142C223.535 143.112 235.892 144.869 248.332 145.388C253.612 145.608 259.33 145.467 263.531 142.262C266.033 140.354 267.693 137.568 269.227 134.82C275.822 123.009 281.259 110.588 285.464 97.7299C287.23 92.323 288.637 85.933 285.292 81.3457C282.425 77.4134 276.685 76.2964 272.111 77.9602C267.538 79.6241 264.084 83.5662 261.933 87.936C259.782 92.3057 258.761 97.129 257.704 101.885C256.647 106.64 255.51 111.452 253.155 115.716C250.948 119.702 247.76 123.058 243.894 125.465C238.202 128.999 231.338 130.266 224.642 130.192Z" fill="#89C0FF"/>
<g opacity="0.05">
<path opacity="0.05" d="M224.642 130.192C218.941 130.13 213.478 128.963 207.878 128.08C205.3 127.673 204.59 128.092 203.661 130.807C202.95 132.88 203.023 135.031 204.509 136.759C206.215 138.743 208.902 139.518 211.443 140.142C223.535 143.112 235.892 144.869 248.332 145.388C253.612 145.608 259.33 145.467 263.531 142.262C266.033 140.354 267.693 137.568 269.227 134.82C275.822 123.009 281.259 110.588 285.464 97.7299C287.23 92.323 288.637 85.933 285.292 81.3457C282.425 77.4134 276.685 76.2964 272.111 77.9602C267.538 79.6241 264.084 83.5662 261.933 87.936C259.782 92.3057 258.761 97.129 257.704 101.885C256.647 106.64 255.51 111.452 253.155 115.716C250.948 119.702 247.76 123.058 243.894 125.465C238.202 128.999 231.338 130.266 224.642 130.192Z" fill="white"/>
</g>
<path d="M252.19 41.4378C251.501 41.1625 250.826 40.8586 250.163 40.526C249.292 40.0898 248.296 39.6339 247.55 39.001C246.927 38.4751 246.414 37.9503 245.728 37.4772C242.073 34.9581 239.198 31.4694 237.851 27.2017C238.077 27.9156 237.63 28.6763 237.483 29.3632C236.982 31.7435 236.832 34.2786 237.332 36.6982C237.866 39.2886 239.352 41.4095 240.402 43.7923C241.423 46.1148 242.28 48.6364 241.915 51.1481C241.806 51.9026 241.67 52.8525 242.306 53.2679C242.619 53.4706 243.023 53.4583 243.372 53.5886C244.327 53.945 244.132 54.9403 244.274 55.7403C244.45 56.7234 244.738 57.7286 244.991 58.6895C245.746 61.5322 247.518 63.9981 249.971 65.6177C256.459 69.8622 265.073 66.7778 269.662 61.2185C271.311 59.2192 272.591 56.9495 273.686 54.6073C274.178 53.5493 274.514 52.2332 275.186 51.2796C275.733 50.503 276.385 50.0213 276.766 49.0935C278.174 45.6687 276.304 41.9269 272.389 41.9662C270.816 41.981 269.29 42.4577 267.752 42.7883C263.819 43.6261 259.748 43.5635 255.843 42.6052C254.599 42.303 253.378 41.9129 252.19 41.4378Z" fill="#FEA587"/>
<path d="M234.173 151.102C234.173 146.514 230.182 143.025 225.616 143.483C225.598 143.483 225.585 143.49 225.568 143.49C224.954 143.544 224.332 143.579 223.701 143.579H67.9239C67.3002 143.579 66.6752 143.544 66.0638 143.49C66.0454 143.49 66.0331 143.483 66.0159 143.483C61.4484 143.027 57.458 146.516 57.458 151.102V151.235H89.2216L70.7442 324.692C70.6963 325.202 70.6779 325.675 70.6779 326.091C70.6779 329.021 71.7289 329.88 73.0722 330.007C74.0544 330.097 74.9691 329.772 75.599 328.439C75.6131 328.421 75.6232 328.401 75.6285 328.379C75.9968 327.641 76.2768 326.583 76.4265 325.082L97.8446 151.235H193.787L215.204 325.082C215.354 326.583 215.63 327.646 216.002 328.379C216.015 328.403 216.021 328.422 216.032 328.439C216.662 329.772 217.569 330.097 218.559 330.007C219.903 329.884 220.953 329.024 220.953 326.091C220.953 325.67 220.934 325.202 220.887 324.692L202.41 151.235H234.173V151.102Z" fill="#164778"/>
<path d="M247.065 46.4884C245.544 41.4243 243.19 37.653 241.805 38.0696C240.42 38.4861 240.539 42.9308 242.06 47.9949C243.582 53.059 245.935 56.8303 247.319 56.4149C248.703 55.9996 248.584 51.5536 247.065 46.4884ZM247.05 55.7514C245.917 56.0905 243.858 52.565 242.45 47.8769C241.041 43.1889 240.815 39.1141 241.947 38.7712C243.08 38.4284 245.14 41.9576 246.548 46.6456C247.956 51.3337 248.179 55.4085 247.05 55.7514Z" fill="#303243"/>
<path d="M241.615 47.3104C240.177 42.5671 238.361 38.931 237.563 39.1853C236.765 39.4397 237.284 43.4863 238.722 48.2321C240.16 52.9779 241.977 56.6128 242.774 56.3572C243.571 56.1016 243.059 52.0562 241.615 47.3104ZM242.545 55.7292C241.891 55.9369 240.281 52.5478 238.949 48.1596C237.617 43.7714 237.067 40.0492 237.721 39.8342C238.376 39.6191 239.985 43.0144 241.318 47.4038C242.65 51.7933 243.201 55.524 242.545 55.7317V55.7292Z" fill="#303243"/>
<path d="M271.175 39.393L247.11 47.4493L246.875 46.7537L270.867 39.0649C270.962 39.1681 271.07 39.2787 271.175 39.393Z" fill="#303243"/>
<path d="M121.975 140.457C121.788 140.534 121.588 140.574 121.386 140.574C121.184 140.573 120.984 140.533 120.797 140.456C120.61 140.378 120.441 140.264 120.298 140.121C120.155 139.978 120.042 139.808 119.965 139.621L88.6914 63.8506C88.6142 63.6637 88.5745 63.4634 88.5747 63.2611C88.5749 63.0588 88.6149 62.8585 88.6924 62.6717C88.7699 62.4849 88.8835 62.3152 89.0266 62.1723C89.1697 62.0294 89.3395 61.9162 89.5263 61.839C89.9036 61.6833 90.3272 61.6838 90.7041 61.8405C91.081 61.9972 91.3803 62.2972 91.5363 62.6747L122.81 138.443C122.887 138.63 122.927 138.83 122.927 139.033C122.927 139.235 122.887 139.436 122.81 139.623C122.732 139.81 122.618 139.98 122.475 140.123C122.332 140.266 122.162 140.379 121.975 140.457Z" fill="#164778"/>
<path d="M85.6216 93.9217C85.1304 95.0588 84.6393 96.1958 84.1482 97.3329C83.6927 98.3897 83.1991 99.4576 83.0174 100.603C82.8631 101.633 83.016 102.687 83.4569 103.631C83.8891 104.614 84.4908 105.518 85.0862 106.401C86.2268 108.122 87.563 109.704 89.068 111.117C90.5574 112.489 92.2714 113.657 94.2519 114.173C96.1845 114.678 98.3135 114.561 100.063 113.539C101.578 112.653 102.783 111.143 103.075 109.385C103.409 107.373 102.553 105.421 102.137 103.487C101.917 102.463 101.813 101.398 102.084 100.372C102.355 99.3458 102.944 98.4721 103.387 97.5345C103.82 96.6276 104.057 95.6912 103.958 94.6811C103.855 93.639 103.481 92.6486 103.138 91.6667C102.75 90.5608 102.424 89.4548 102.392 88.2776C102.358 87.034 102.565 85.8002 102.801 84.5837C103.677 80.0849 104.656 75.3268 103.047 70.8686C102.381 69.0253 101.274 67.3566 99.7194 66.1486C98.2853 65.0426 96.516 64.3606 94.6853 64.4184C93.3553 64.4584 92.0749 64.9331 91.0399 65.7701C89.9865 66.6155 89.1982 67.7596 88.5978 68.9553C87.2902 71.5358 86.6886 74.4175 86.1655 77.2377C85.2766 82.0388 84.7326 86.9271 84.8873 91.8154C84.925 93.005 85.0068 94.1928 85.1329 95.3791C85.1415 95.4565 85.2643 95.4577 85.2557 95.3791C84.756 90.6235 84.9954 85.8187 85.6609 81.0913C85.9334 79.1584 86.2662 77.2303 86.6701 75.3158C86.9451 73.9624 87.3035 72.6274 87.7432 71.3183C88.6027 68.8422 89.9656 66.1252 92.4949 65.0205C95.821 63.5693 99.599 65.4826 101.564 68.2536C104.19 71.9598 104.047 76.7977 103.338 81.0778C103.143 82.255 102.901 83.4249 102.673 84.5972C102.454 85.7314 102.261 86.8804 102.265 88.038C102.265 89.1341 102.502 90.1749 102.85 91.2096C103.178 92.1853 103.572 93.1487 103.76 94.1662C103.959 95.2228 103.82 96.3151 103.365 97.2887C102.968 98.1624 102.438 98.9734 102.109 99.8791C101.421 101.774 102.056 103.72 102.549 105.578C102.811 106.562 103.047 107.568 103.023 108.593C103.001 109.531 102.731 110.447 102.241 111.247C101.273 112.845 99.5954 113.919 97.7684 114.233C93.4256 114.982 89.7041 111.956 87.0864 108.851C86.4349 108.076 85.8239 107.269 85.2557 106.431C84.6624 105.594 84.1318 104.714 83.6681 103.799C83.1659 102.752 82.9474 101.65 83.1549 100.497C83.3624 99.3445 83.8695 98.2754 84.3299 97.21L85.7259 93.9782C85.7566 93.9069 85.651 93.8442 85.6203 93.9167L85.6216 93.9217Z" fill="#A2D9F2"/>
<path d="M93.0538 75.2248C91.4159 74.3401 89.7461 73.4356 87.9203 73.0043C86.2615 72.6135 84.4346 72.6197 82.8863 73.3939C81.5971 74.039 80.535 75.2703 80.2575 76.7117C79.9494 78.3092 80.7978 79.7408 81.3343 81.186C81.6253 81.9712 81.8254 82.7982 81.6769 83.6436C81.5283 84.4891 81.106 85.2411 80.6382 85.9428C80.1839 86.6236 79.6878 87.2761 79.2323 87.9569C78.8075 88.5934 78.4015 89.2418 78.0143 89.9021C76.3301 92.741 75.0265 95.7893 74.1369 98.9685C73.2995 102.032 72.8955 105.279 73.3769 108.431C73.604 109.929 74.019 111.407 74.7901 112.719C75.5199 113.997 76.5574 115.071 77.808 115.845C78.4158 116.213 79.0793 116.478 79.7725 116.632C80.5651 116.784 81.3782 116.798 82.1754 116.671C83.1282 116.548 84.108 116.343 85.0632 116.548C85.9227 116.736 86.6999 117.202 87.5778 117.324C88.0731 117.403 88.5797 117.372 89.0622 117.235C89.5446 117.098 89.9913 116.857 90.3711 116.529C91.1298 115.875 91.6541 114.994 92.2128 114.173C92.7837 113.328 93.4185 112.453 94.3455 111.973C95.8496 111.191 97.5305 111.973 99.1033 111.596C100.359 111.291 101.117 110.178 101.105 108.91C101.091 107.465 100.16 106.322 99.0394 105.51C98.3794 105.054 97.6876 104.647 96.9693 104.291C96.892 104.25 96.8244 104.367 96.9018 104.407C98.272 105.125 99.8105 105.925 100.571 107.348C101.154 108.443 101.15 109.967 100.202 110.864C98.9596 112.045 97.1118 111.355 95.604 111.478C94.499 111.572 93.61 112.166 92.9028 112.999C92.2619 113.756 91.7744 114.626 91.1839 115.419C90.5933 116.212 89.8897 116.91 88.9185 117.139C88.3089 117.272 87.6758 117.25 87.0768 117.076C86.253 116.846 85.4954 116.424 84.6322 116.338C83.6954 116.246 82.7647 116.461 81.8377 116.566C81.0666 116.662 80.2843 116.614 79.5307 116.424C76.6392 115.657 74.639 112.945 73.8827 110.171C73.0552 107.15 73.1902 103.936 73.8103 100.89C74.4561 97.72 75.6274 94.6614 77.1131 91.797C77.8071 90.4551 78.5774 89.1541 79.4202 87.9003C80.2796 86.6162 81.4485 85.3628 81.7788 83.8058C82.1091 82.2489 81.322 80.864 80.783 79.4717C80.4994 78.7344 80.2747 77.9664 80.33 77.1725C80.3927 76.4182 80.6611 75.6956 81.1059 75.0835C82.0882 73.6998 83.6844 72.9945 85.3505 72.8888C87.1812 72.7794 88.9578 73.341 90.5994 74.1041C91.4122 74.4814 92.1956 74.9066 92.9888 75.333C93.0649 75.3748 93.1324 75.258 93.0563 75.2175L93.0538 75.2248Z" fill="#BBE5FB"/>
<path d="M98.4957 79.119C98.1863 76.8911 97.8695 74.6362 97.0223 72.5545C96.1751 70.4729 94.7349 68.5473 92.7102 67.5998C91.6386 67.1122 90.4588 66.9113 89.2864 67.0166C88.1139 67.1219 86.9888 67.5299 86.021 68.2007C84.1032 69.5611 82.9883 71.993 83.1971 74.345C83.4009 76.606 84.7183 78.6791 84.7466 80.9488C84.7859 84.0282 82.5144 86.5547 80.7537 89.0726C77.3929 93.9066 75.5823 99.6501 75.5625 105.539C75.5625 107.234 75.7344 109.013 76.6675 110.418C77.958 112.349 80.3694 113.135 82.6323 113.597C86.3385 114.354 90.1313 114.596 93.9036 114.317C95.6324 114.194 97.3968 113.936 98.9193 113.1C100.442 112.265 101.688 110.736 101.769 108.99C101.892 106.371 99.4693 104.019 99.9678 101.446C100.377 99.3445 102.529 98.128 103.688 96.3277C104.847 94.5275 104.947 92.2517 104.458 90.1835C103.969 88.1154 102.939 86.2365 101.92 84.3809C100.867 82.4598 99.8123 80.5391 98.7572 78.6189L98.4957 79.119Z" fill="#BBE5FB"/>
<path d="M82.2798 121.927C82.2798 122.258 85.1566 122.525 88.705 122.525C92.2534 122.525 95.1314 122.258 95.1314 121.927C95.1314 121.596 92.2546 121.329 88.705 121.329C85.1553 121.329 82.2798 121.596 82.2798 121.927Z" fill="#122C51"/>
<path d="M88.6789 121.713C88.6973 121.988 88.8446 122.489 88.6899 122.74C88.5671 122.94 88.1534 123.072 87.925 123.193C87.6438 122.428 87.6156 121.631 87.6058 120.843C87.5624 117.321 87.8539 113.802 88.4763 110.335C89.2559 105.991 90.539 101.697 91.5949 97.3907L90.0724 106.58C89.2486 111.557 88.4174 116.653 88.6789 121.713Z" fill="#3878AE"/>
<path d="M85.0385 77.7059C83.9998 73.6925 86.0539 69.0855 89.7202 67.2054C93.3864 65.3253 98.2891 66.3673 100.893 69.5795C104.086 73.5118 103.515 79.2874 102.114 84.1807C100.713 89.0739 98.6304 94.0114 99.3524 99.0496C99.9086 102.921 102.111 106.678 101.317 110.505C100.491 114.465 96.4388 117.173 92.4287 117.347C88.2811 117.528 84.1127 115.308 81.9198 111.753C78.8306 106.745 79.8325 100.25 81.5601 94.616C83.2876 88.9817 85.6831 83.2824 85.052 77.4122L85.0385 77.7059Z" fill="#A2D9F2"/>
<path d="M89.8527 122.926C88.728 115.606 89.5814 107.82 90.4408 100.537C91.0646 95.2476 91.6887 89.9591 92.3132 84.671C92.107 88.0429 91.9023 91.4153 91.6993 94.788C91.5029 98.0064 90.6876 101.123 90.6225 104.373C90.5882 105.755 90.8227 107.15 90.7772 108.522C90.7318 109.893 90.4985 111.263 90.4249 112.63C90.2738 115.442 90.3426 118.301 91.0707 121.036C91.2193 121.593 91.3961 122.157 91.3543 122.732C91.3248 123.124 91.0805 123.904 90.6176 123.999C90.0037 124.122 89.9804 123.25 90.0504 122.803L89.8527 122.926Z" fill="#3878AE"/>
<g opacity="0.5">
<g opacity="0.2">
<path opacity="0.2" d="M85.8013 83.9103C86.9004 86.8378 88.5398 89.5324 90.634 91.8536C89.2121 91.1986 88.1354 89.9353 87.4085 88.5357C86.6816 87.136 86.2679 85.6037 85.859 84.0824L85.8013 83.9103Z" fill="black"/>
</g>
<g opacity="0.2">
<path opacity="0.2" d="M84.4028 87.5206C85.9207 90.2494 87.9389 92.6674 90.3516 94.6479C88.8488 94.2142 87.5976 93.1254 86.6682 91.8548C85.7387 90.5841 85.1088 89.1267 84.4814 87.6767L84.4028 87.5206Z" fill="black"/>
</g>
<g opacity="0.2">
<path opacity="0.2" d="M83.1221 91.1322C84.8523 93.7302 87.0567 95.9781 89.6197 97.7581C88.0874 97.4472 86.7527 96.4642 85.7299 95.271C84.7072 94.0778 83.9582 92.6781 83.2178 91.2895L83.1221 91.1322Z" fill="black"/>
</g>
</g>
<path d="M89.6763 109.401C88.2324 111.613 85.3286 112.612 82.7539 112.097C80.1792 111.583 77.9838 109.723 76.6922 107.419C75.4005 105.115 74.945 102.407 75.0064 99.7611C75.0678 97.1154 75.6203 94.5066 76.2342 91.9346C76.921 89.0821 77.6904 86.252 78.5425 83.4446C78.8985 82.2735 79.3234 81.0274 80.302 80.3024C82.0209 79.0281 84.646 80.1132 85.7584 81.9515C86.8708 83.7899 86.8966 86.0694 86.888 88.2186C86.8798 90.5534 86.8708 92.8882 86.8609 95.223C86.8609 96.3032 86.6154 97.5934 86.7811 98.649C86.9616 99.7857 88.0433 101.051 88.7039 101.955C89.4627 102.991 90.0434 103.675 90.3651 104.944C90.7482 106.44 90.5223 108.109 89.6763 109.401Z" fill="#BBE5FB"/>
<path d="M86.1276 124.886C86.1276 125.161 86.0416 125.663 86.1693 125.912C86.27 126.109 86.5856 126.234 86.7624 126.35C86.9343 125.582 86.9171 124.785 86.8852 123.999C86.7471 120.484 86.3602 116.983 85.7273 113.523C84.9354 109.2 83.769 104.935 82.772 100.655C83.2983 103.704 83.8254 106.753 84.3534 109.802C85.2104 114.757 86.0785 119.829 86.1276 124.886Z" fill="#3878AE"/>
<path d="M86.7648 143.547C87.8305 143.569 89.9804 143.569 91.0474 143.547C93.1506 143.508 95.0439 140.503 96.1293 136.751C97.0006 133.681 97.2128 130.461 96.7518 127.303C96.5431 125.829 96.3348 124.354 96.1269 122.879C96.0726 122.517 95.8793 122.189 95.588 121.967C95.2967 121.744 94.9302 121.644 94.5663 121.687C90.6177 122.523 87.1429 122.523 83.0445 121.687C82.6806 121.644 82.3143 121.745 82.0231 121.967C81.7318 122.19 81.5385 122.517 81.4839 122.879C81.2273 124.7 81.1316 125.053 80.87 126.873C80.6159 128.672 80.5975 131.863 80.7939 133.669C81.4115 139.316 83.8856 143.604 86.7648 143.547Z" fill="#89C0FF"/>
<g opacity="0.1">
<path opacity="0.1" d="M96.1291 136.75C95.0437 140.503 93.1504 143.508 91.0472 143.546C90.087 143.566 88.2478 143.569 87.1182 143.546H87.4656C89.5689 143.507 91.4622 140.503 92.5488 136.75C93.4199 133.68 93.6317 130.46 93.1701 127.302C92.9622 125.828 92.7543 124.353 92.5464 122.879C92.5047 122.583 92.3686 122.309 92.1584 122.098C92.9491 121.996 93.7545 121.86 94.5735 121.685C94.9374 121.642 95.3037 121.743 95.5948 121.966C95.8858 122.188 96.0788 122.516 96.1328 122.879C96.3415 124.353 96.5498 125.828 96.7578 127.302C97.2167 130.461 97.0025 133.68 96.1291 136.75Z" fill="#36353D"/>
<path opacity="0.1" d="M88.8767 143.595C88.2456 143.595 87.6145 143.595 87.1123 143.585V143.522H87.2204H87.4659C89.3838 143.486 91.32 140.891 92.5184 136.748C93.3926 133.683 93.6043 130.467 93.1397 127.313L92.5147 122.889C92.4744 122.601 92.3417 122.334 92.1365 122.127L92.0911 122.082L92.1549 122.073C92.9371 121.974 93.7511 121.835 94.5664 121.662C94.9384 121.618 95.3125 121.721 95.6102 121.949C95.9079 122.176 96.1059 122.51 96.1625 122.881L96.7863 127.304C97.2531 130.467 97.0409 133.693 96.1638 136.767L96.1331 136.758L96.1638 136.767C94.9568 140.937 92.9985 143.55 91.0511 143.587C90.5158 143.59 89.6956 143.595 88.8767 143.595ZM87.8944 143.529C88.9835 143.536 90.2997 143.529 91.0487 143.515C92.9665 143.48 94.9028 140.884 96.1012 136.742C96.9765 133.677 97.1883 130.46 96.7224 127.307L96.0987 122.883C96.0445 122.529 95.8553 122.21 95.571 121.993C95.2866 121.776 94.9291 121.677 94.5738 121.718C93.7769 121.886 92.9862 122.023 92.2213 122.122C92.412 122.332 92.5352 122.594 92.5749 122.874L93.1986 127.298C93.6654 130.461 93.4532 133.687 92.5761 136.76C91.4551 140.621 89.6932 143.148 87.892 143.529H87.8944Z" fill="black"/>
</g>
<g opacity="0.5">
<g opacity="0.2">
<path opacity="0.2" d="M76.3413 97.7237C77.9489 99.5943 79.8951 101.144 82.0777 102.291C80.8499 102.195 79.7031 101.554 78.7859 100.718C77.8687 99.8828 77.1468 98.8555 76.4322 97.838L76.3413 97.7237Z" fill="black"/>
</g>
<g opacity="0.2">
<path opacity="0.2" d="M76.2793 100.788C78.1449 102.397 80.2979 103.638 82.6246 104.445C81.3968 104.536 80.169 104.077 79.1389 103.384C78.1087 102.691 77.2431 101.786 76.3861 100.888L76.2793 100.788Z" fill="black"/>
</g>
<g opacity="0.2">
<path opacity="0.2" d="M76.3062 103.823C78.2936 105.276 80.5385 106.338 82.9216 106.954C81.6938 107.144 80.4439 106.782 79.361 106.177C78.278 105.572 77.3437 104.739 76.4142 103.912L76.3062 103.823Z" fill="black"/>
</g>
</g>
<g opacity="0.5">
<g opacity="0.2">
<path opacity="0.2" d="M98.5299 85.8556C96.9637 88.274 94.956 90.3752 92.6118 92.0489C93.9329 91.8376 95.1239 90.943 96.0644 89.8186C97.0049 88.6942 97.7257 87.3437 98.4378 86.0092L98.5299 85.8556Z" fill="black"/>
</g>
<g opacity="0.2">
<path opacity="0.2" d="M98.7632 89.7203C96.9144 91.8385 94.6636 93.5682 92.1416 94.8089C93.4726 94.8323 94.763 94.1564 95.8324 93.2114C96.9018 92.2664 97.7834 91.0548 98.6564 89.8554L98.7632 89.7203Z" fill="black"/>
</g>
<g opacity="0.2">
<path opacity="0.2" d="M98.9008 93.5518C96.9129 95.4902 94.5513 97.003 91.96 97.9978C93.2835 98.1477 94.6145 97.5959 95.7453 96.7529C96.8761 95.91 97.8326 94.7868 98.7841 93.6735L98.9008 93.5518Z" fill="black"/>
</g>
</g>
<g opacity="0.5">
<g opacity="0.2">
<path opacity="0.2" d="M85.5001 96.4187C85.2276 98.52 84.7156 100.395 84.0034 101.913C84.5437 101.58 84.9071 100.742 85.1207 99.7624C85.3344 98.783 85.4105 97.6586 85.4891 96.5452L85.5001 96.4187Z" fill="black"/>
</g>
<g opacity="0.2">
<path opacity="0.2" d="M86.2838 99.3347C85.8283 101.238 85.1456 102.857 84.2837 104.08C84.8694 103.924 85.3151 103.24 85.6159 102.379C85.9167 101.517 86.0898 100.479 86.2592 99.4502L86.2838 99.3347Z" fill="black"/>
</g>
<g opacity="0.2">
<path opacity="0.2" d="M87.0179 102.24C86.4691 104.018 85.7005 105.484 84.7661 106.541C85.3714 106.482 85.8552 105.888 86.2014 105.098C86.5477 104.308 86.7687 103.326 86.9884 102.353L87.0179 102.24Z" fill="black"/>
</g>
</g>
</svg>
