<svg width="486" height="549" viewBox="0 0 486 549" fill="none" xmlns="http://www.w3.org/2000/svg">
<g clip-path="url(#clip0_124_3494)">
<path d="M228.927 311.057V417.671C228.927 426.534 225.395 435.033 219.11 441.3C212.824 447.567 204.299 451.088 195.409 451.088H33.5201C30.2457 451.088 27.0033 451.731 23.9783 452.98C20.9533 454.23 18.205 456.062 15.8905 458.371C13.576 460.68 11.7407 463.422 10.4895 466.439C9.23823 469.456 8.59564 472.689 8.59841 475.953V544.724C8.59876 545.287 8.48782 545.845 8.27192 546.365C8.05602 546.885 7.73939 547.358 7.34014 547.757C6.94088 548.155 6.46683 548.471 5.94505 548.686C5.42328 548.902 4.86402 549.013 4.29921 549.013C3.73441 549.013 3.17515 548.902 2.65338 548.686C2.1316 548.471 1.65753 548.155 1.25828 547.757C0.859024 547.358 0.542414 546.885 0.326514 546.365C0.110614 545.845 -0.000345907 545.287 8.10033e-07 544.724V475.953C8.10033e-07 467.091 3.53129 458.591 9.81703 452.324C16.1028 446.057 24.6281 442.536 33.5174 442.536H195.404C198.676 442.536 201.917 441.894 204.94 440.645C207.963 439.397 210.71 437.567 213.024 435.26C215.338 432.953 217.174 430.214 218.426 427.199C219.678 424.185 220.323 420.955 220.323 417.692V311.073L228.927 311.057Z" fill="#0B2E4E"/>
<path d="M238.602 334.068V351.155C238.602 353.114 237.821 354.993 236.432 356.378C235.043 357.763 233.158 358.541 231.194 358.541H218.056C216.984 358.542 215.924 358.311 214.951 357.863C213.977 357.415 213.113 356.761 212.419 355.947C211.274 354.612 210.647 352.914 210.65 351.158V334.071L238.602 334.068Z" fill="#164778"/>
<path d="M253.204 294.241V328.371C253.204 329.624 252.956 330.865 252.475 332.023C251.993 333.181 251.288 334.233 250.399 335.119C249.51 336.005 248.454 336.707 247.293 337.187C246.131 337.666 244.887 337.912 243.63 337.912H205.625C203.087 337.912 200.653 336.907 198.858 335.118C197.063 333.329 196.054 330.902 196.053 328.371V294.241H253.204Z" fill="#0B2E4E"/>
<path d="M192.646 294.244H256.609C257.303 294.244 257.865 293.683 257.865 292.991V287.981C257.865 287.29 257.303 286.729 256.609 286.729H192.646C191.952 286.729 191.39 287.29 191.39 287.981V292.991C191.39 293.683 191.952 294.244 192.646 294.244Z" fill="#133D63"/>
<path d="M216.048 286.726H206.307V263.5C206.307 262.212 206.821 260.977 207.735 260.067C208.648 259.157 209.887 258.645 211.179 258.645C212.47 258.645 213.708 259.157 214.622 260.067C215.535 260.978 216.048 262.212 216.048 263.5V286.726Z" fill="#232851"/>
<path d="M238.074 258.653C239.365 258.653 240.604 259.165 241.517 260.075C242.43 260.986 242.943 262.22 242.943 263.508V286.734H233.202V263.508C233.202 262.87 233.328 262.239 233.573 261.65C233.818 261.06 234.177 260.525 234.629 260.074C235.082 259.623 235.619 259.266 236.21 259.022C236.801 258.778 237.434 258.653 238.074 258.653Z" fill="#232851"/>
<path d="M253.204 294.241V328.371C253.204 329.624 252.956 330.865 252.475 332.023C251.993 333.181 251.288 334.233 250.399 335.119C249.51 336.005 248.454 336.707 247.293 337.187C246.131 337.666 244.887 337.912 243.63 337.912H205.625C203.087 337.912 200.653 336.907 198.858 335.118C197.063 333.329 196.054 330.902 196.053 328.371C237.095 325.527 240.866 294.241 240.866 294.241H253.204Z" fill="#164778"/>
<path d="M253.205 294.241H196.048V296.993H253.205V294.241Z" fill="#164778"/>
<path d="M253.204 308.666V328.371C253.204 329.624 252.956 330.865 252.474 332.023C251.993 333.181 251.288 334.233 250.399 335.119C249.51 336.005 248.454 336.707 247.293 337.187C246.131 337.666 244.886 337.912 243.629 337.912H216.947C243.891 337.912 253.204 308.666 253.204 308.666Z" fill="#103861"/>
<path d="M238.602 337.912H210.65V339.696H238.602V337.912Z" fill="#232851"/>
<path d="M216.05 283.327H206.309V286.726H216.05V283.327Z" fill="#15172D"/>
<path d="M242.943 283.327H233.202V286.726H242.943V283.327Z" fill="#15172D"/>
<path d="M238.602 337.912V351.155C238.602 353.114 237.821 354.993 236.432 356.378C235.043 357.763 233.158 358.541 231.194 358.541H218.056C216.984 358.542 215.924 358.311 214.951 357.863C213.977 357.415 213.113 356.761 212.418 355.947C232.896 358.452 236.023 337.915 236.023 337.915L238.602 337.912Z" fill="#11365B"/>
<path d="M486.011 4.28635C486.011 5.42385 485.558 6.51477 484.751 7.31911C483.944 8.12345 482.85 8.57532 481.709 8.57532H253.848C250.576 8.57532 247.335 9.21802 244.311 10.4667C241.288 11.7154 238.54 13.5456 236.226 15.8529C233.912 18.1601 232.076 20.8992 230.824 23.9138C229.571 26.9284 228.927 30.1594 228.927 33.4224V146.09H220.326V33.4224C220.326 24.5596 223.857 16.0598 230.143 9.79292C236.428 3.52601 244.954 0.00530863 253.843 0.00530863H481.693C482.259 0.00323197 482.819 0.112359 483.342 0.326476C483.866 0.540593 484.341 0.855498 484.742 1.25314C485.143 1.65077 485.462 2.12335 485.68 2.64383C485.897 3.16431 486.01 3.72245 486.011 4.28635Z" fill="#0B2E4E"/>
<path d="M238.602 136.442V119.357C238.602 117.398 237.821 115.519 236.432 114.134C235.043 112.749 233.158 111.971 231.194 111.971H218.056C216.984 111.97 215.924 112.201 214.951 112.649C213.977 113.097 213.113 113.751 212.419 114.565C211.274 115.9 210.647 117.598 210.65 119.354V136.439L238.602 136.442Z" fill="#164778"/>
<path d="M253.204 176.271V142.141C253.204 140.887 252.957 139.646 252.476 138.488C251.994 137.33 251.289 136.278 250.4 135.392C249.511 134.505 248.455 133.802 247.294 133.323C246.132 132.844 244.887 132.597 243.63 132.597H205.625C203.087 132.597 200.652 133.603 198.857 135.393C197.062 137.182 196.053 139.61 196.053 142.141V176.271H253.204Z" fill="#0B2E4E"/>
<path d="M192.646 183.783H256.609C257.303 183.783 257.865 183.223 257.865 182.531V177.521C257.865 176.829 257.303 176.268 256.609 176.268H192.646C191.952 176.268 191.39 176.829 191.39 177.521V182.531C191.39 183.223 191.952 183.783 192.646 183.783Z" fill="#133D63"/>
<path d="M253.204 176.271V142.141C253.204 140.887 252.957 139.646 252.476 138.488C251.994 137.33 251.289 136.278 250.4 135.392C249.511 134.505 248.455 133.802 247.294 133.323C246.132 132.844 244.887 132.597 243.63 132.597H205.625C203.087 132.597 200.652 133.603 198.857 135.393C197.062 137.182 196.053 139.61 196.053 142.141C237.095 144.985 240.866 176.271 240.866 176.271H253.204Z" fill="#164778"/>
<path d="M253.205 173.519H196.048V176.271H253.205V173.519Z" fill="#164778"/>
<path d="M253.204 161.846V142.141C253.204 140.887 252.956 139.646 252.475 138.488C251.994 137.33 251.289 136.278 250.4 135.392C249.51 134.505 248.455 133.802 247.293 133.323C246.132 132.844 244.887 132.597 243.629 132.597H216.947C243.891 132.597 253.204 161.846 253.204 161.846Z" fill="#103861"/>
<path d="M238.602 130.816H210.65V132.6H238.602V130.816Z" fill="#232851"/>
<path d="M238.602 132.597V119.357C238.602 117.398 237.821 115.519 236.432 114.134C235.043 112.749 233.158 111.971 231.194 111.971H218.056C216.984 111.97 215.924 112.201 214.951 112.649C213.977 113.097 213.113 113.751 212.418 114.565C232.896 112.06 236.023 132.595 236.023 132.595L238.602 132.597Z" fill="#11365B"/>
<path d="M149.657 213.585H131.958C131.312 213.585 130.693 213.329 130.236 212.874C129.779 212.418 129.522 211.8 129.522 211.156C129.522 210.512 129.779 209.894 130.236 209.439C130.693 208.984 131.312 208.728 131.958 208.728H149.657C150.303 208.728 150.922 208.984 151.379 209.439C151.836 209.894 152.093 210.512 152.093 211.156C152.093 211.8 151.836 212.418 151.379 212.874C150.922 213.329 150.303 213.585 149.657 213.585Z" fill="#89C0FF"/>
<path d="M172.119 191.19C171.473 191.19 170.853 190.934 170.396 190.479C169.939 190.023 169.683 189.406 169.683 188.762V171.116C169.683 170.472 169.939 169.854 170.396 169.399C170.853 168.944 171.473 168.688 172.119 168.688C172.765 168.688 173.384 168.944 173.841 169.399C174.298 169.854 174.555 170.472 174.555 171.116V188.762C174.555 189.406 174.298 190.023 173.841 190.479C173.384 190.934 172.765 191.19 172.119 191.19Z" fill="#89C0FF"/>
<path d="M155.88 197.395C155.56 197.395 155.243 197.332 154.947 197.209C154.651 197.087 154.383 196.908 154.156 196.682L142.001 184.562C141.587 184.1 141.367 183.498 141.384 182.879C141.401 182.26 141.654 181.671 142.092 181.233C142.53 180.794 143.12 180.538 143.741 180.518C144.361 180.499 144.966 180.716 145.431 181.126L157.587 193.248C157.927 193.588 158.158 194.02 158.252 194.491C158.345 194.962 158.297 195.45 158.113 195.893C157.929 196.336 157.617 196.715 157.218 196.983C156.818 197.25 156.348 197.393 155.867 197.395H155.88Z" fill="#89C0FF"/>
<path d="M299.593 268.231H317.291C317.937 268.231 318.557 268.487 319.013 268.942C319.47 269.398 319.727 270.016 319.727 270.66C319.727 271.304 319.47 271.922 319.013 272.377C318.557 272.832 317.937 273.088 317.291 273.088H299.593C298.947 273.088 298.327 272.832 297.87 272.377C297.413 271.922 297.157 271.304 297.157 270.66C297.157 270.016 297.413 269.398 297.87 268.942C298.327 268.487 298.947 268.231 299.593 268.231Z" fill="#89C0FF"/>
<path d="M277.131 290.623C277.778 290.624 278.397 290.88 278.854 291.336C279.311 291.792 279.567 292.41 279.567 293.054V310.684C279.567 311.328 279.311 311.946 278.854 312.401C278.397 312.857 277.777 313.112 277.131 313.112C276.485 313.112 275.866 312.857 275.409 312.401C274.952 311.946 274.695 311.328 274.695 310.684V293.054C274.695 292.41 274.952 291.792 275.409 291.336C275.865 290.88 276.485 290.624 277.131 290.623Z" fill="#89C0FF"/>
<path d="M293.373 284.421C293.692 284.421 294.009 284.483 294.304 284.605C294.6 284.727 294.868 284.906 295.094 285.132L307.252 297.254C307.5 297.474 307.7 297.743 307.84 298.043C307.98 298.343 308.057 298.669 308.066 299C308.075 299.331 308.016 299.66 307.893 299.968C307.77 300.275 307.585 300.554 307.35 300.788C307.114 301.022 306.833 301.205 306.524 301.326C306.215 301.448 305.885 301.505 305.553 301.494C305.221 301.483 304.895 301.405 304.594 301.264C304.294 301.123 304.025 300.923 303.805 300.675L291.649 288.555C291.308 288.215 291.076 287.782 290.982 287.311C290.888 286.84 290.936 286.351 291.121 285.907C291.305 285.463 291.618 285.084 292.019 284.817C292.419 284.55 292.891 284.408 293.373 284.408V284.421Z" fill="#89C0FF"/>
</g>
<defs>
<clipPath id="clip0_124_3494">
<rect width="486" height="549" fill="white"/>
</clipPath>
</defs>
</svg>
