<svg id="Camada_1" data-name="Camada 1" xmlns="http://www.w3.org/2000/svg" xmlns:xlink="http://www.w3.org/1999/xlink" viewBox="0 0 567.29 900"><defs><style>.cls-1,.cls-7{fill:none;}.cls-2{clip-path:url(#clip-path);}.cls-3{fill:url(#Gradiente_sem_nome);}.cls-4{clip-path:url(#clip-path-2);}.cls-5{opacity:0.5;}.cls-6{opacity:0.2;}.cls-7{stroke:#fff;stroke-miterlimit:10;stroke-width:2.55px;}.cls-8,.cls-9{opacity:0.35;}.cls-9{fill:#fff;isolation:isolate;}.cls-10{clip-path:url(#clip-path-3);}</style><clipPath id="clip-path"><rect class="cls-1" width="567.29" height="900"/></clipPath><linearGradient id="Gradiente_sem_nome" x1="282.29" y1="881.43" x2="282.29" y2="-18.57" gradientTransform="matrix(1, 0, 0, -1, 0, 881.43)" gradientUnits="userSpaceOnUse"><stop offset="0.28" stop-color="#0583c1"/><stop offset="1" stop-color="#0559c1"/></linearGradient><clipPath id="clip-path-2"><rect class="cls-1" x="-448.71" y="-651" width="1395" height="914"/></clipPath><clipPath id="clip-path-3"><rect class="cls-1" x="-507.71" y="97" width="1395" height="914"/></clipPath></defs><g class="cls-2"><rect class="cls-3" x="-2.71" width="570" height="900"/><g class="cls-4"><g class="cls-5"><g class="cls-6"><g class="cls-6"><g class="cls-6"><path class="cls-7" d="M64.5-46.65H-167.27v183H64.5Z"/></g><g class="cls-6"><path class="cls-7" d="M131.7-87.43H-70.43V74.76H131.7Z"/></g><g class="cls-6"><path class="cls-7" d="M90.26,120H-56.34v66H90.26Z"/></g><g class="cls-6"><path class="cls-7" d="M113.61,163H11.23V229.6H113.61Z"/></g><g class="cls-6"><path class="cls-7" d="M221-2.83H147.88V45.49H221Z"/></g><g class="cls-6"><path class="cls-7" d="M61.88,56.65H14.28V91h47.6Z"/></g></g><g class="cls-6"><g class="cls-6"><path class="cls-7" d="M552.84-50.48h-210V115.29h210Z"/></g><g class="cls-6"><path class="cls-7" d="M613.71-87.43H430.6V59.5H613.71Z"/></g><g class="cls-6"><path class="cls-7" d="M378,12.34H265v82H378Z"/></g><g class="cls-6"><path class="cls-7" d="M396.2,141.27H289.41v45.49H396.2Z"/></g><g class="cls-6"><path class="cls-7" d="M448.4,163.64H356.6v65.9h91.8Z"/></g><g class="cls-6"><path class="cls-7" d="M576.18,100.46H443.37v59.76H576.18Z"/></g><g class="cls-6"><path class="cls-7" d="M597.33,139.44H504.58v60.32h92.75Z"/></g><g class="cls-6"><path class="cls-7" d="M482.15,7.88H402v42.3h80.17Z"/></g><g class="cls-6"><path class="cls-7" d="M550.46,43.1H507.34V74.22h43.12Z"/></g><g class="cls-6"><path class="cls-7" d="M433,75.76H363.92v54.86H433Z"/></g></g><g class="cls-6"><g class="cls-6"><path class="cls-7" d="M283.78-86.9H97.06v160H283.78Z"/></g><g class="cls-6"><path class="cls-7" d="M337.93-122.56H175.08V19.25H337.93Z"/></g><g class="cls-6"><path class="cls-7" d="M128.27-26.28H27.78V52.87H128.27Z"/></g><g class="cls-6"><path class="cls-7" d="M144.48,98.16h-95v43.91h95Z"/></g><g class="cls-6"><path class="cls-7" d="M190.91,119.75H109.26v63.59h81.65Z"/></g><g class="cls-6"><path class="cls-7" d="M304.54,58.77H186.43v57.68H304.54Z"/></g><g class="cls-6"><path class="cls-7" d="M323.35,96.39H240.87v58.22h82.48Z"/></g><g class="cls-6"><path class="cls-7" d="M220.92-30.58h-71.3V10.25h71.3Z"/></g><g class="cls-6"><path class="cls-7" d="M281.67,3.41H243.32v30h38.35Z"/></g><g class="cls-6"><path class="cls-7" d="M177.2,34.93H115.77v53H177.2Z"/></g></g></g></g><g class="cls-8"><path class="cls-9" d="M40.41-.61h-.88V34.52H8V64.77H-14.18a4.77,4.77,0,0,0-1.38-3.27,4.74,4.74,0,0,0-3.26-1.4,4.79,4.79,0,0,0-3.32,1.23,4.76,4.76,0,0,0-1.56,3.19,4.74,4.74,0,0,0,1.08,3.37,4.74,4.74,0,0,0,3.11,1.7,4.73,4.73,0,0,0,3.43-.92,4.77,4.77,0,0,0,1.84-3H8.82V35.4H40.41ZM-18.94,68.73a3.86,3.86,0,0,1-2.16-.65,4,4,0,0,1-1.44-1.75,3.93,3.93,0,0,1-.22-2.25,3.89,3.89,0,0,1,1.07-2,3.91,3.91,0,0,1,2-1.06,3.85,3.85,0,0,1,2.25.22,3.88,3.88,0,0,1,1.75,1.43A3.86,3.86,0,0,1-15,64.84a3.87,3.87,0,0,1-1.14,2.75,3.89,3.89,0,0,1-2.75,1.14Z"/><path class="cls-9" d="M73.75,119.33H54.09c-.21-12-.48-22-.51-23v-.43H13.11V84.05h-.88V96.76H52.74c.06,2.08.3,11.44.5,22.58H24.62v38.37h.87V120.22H53.22c.32,18.45.5,41.32-.51,44.35l.85.28c1-3.15.88-26.14.56-44.63H74.64V78.29h-.88Z"/><path class="cls-9" d="M110.6,65.64H172v-96a5.1,5.1,0,0,0,3.41-1.72,5.15,5.15,0,0,0,1.27-3.59,5.11,5.11,0,0,0-1.58-3.48,5.12,5.12,0,0,0-3.54-1.42A5.12,5.12,0,0,0,168-39.17a5.14,5.14,0,0,0-1.57,3.48,5.1,5.1,0,0,0,1.27,3.59,5.1,5.1,0,0,0,3.4,1.72V64.77H109.72v37.89H98.33V35.4H61.47V-22a3.54,3.54,0,0,0,2.3-1.26,3.57,3.57,0,0,0,.82-2.49,3.59,3.59,0,0,0-1.12-2.38,3.57,3.57,0,0,0-2.44-1,3.55,3.55,0,0,0-2.44,1,3.5,3.5,0,0,0-1.12,2.38,3.52,3.52,0,0,0,.81,2.49A3.56,3.56,0,0,0,60.59-22V36.27H97.44v67.26h12.28V157.7h.88V103.53h21.94v21.68h-9.22v.87h9.21V157.7h.89v-55H110.6ZM167.33-35.47a4.23,4.23,0,0,1,.72-2.36,4.2,4.2,0,0,1,1.9-1.56,4.31,4.31,0,0,1,2.46-.24,4.25,4.25,0,0,1,2.17,1.17,4.21,4.21,0,0,1,1.15,2.17,4.19,4.19,0,0,1-.25,2.45,4.17,4.17,0,0,1-1.57,1.9,4.21,4.21,0,0,1-2.36.7,4.18,4.18,0,0,1-3-1.25,4.22,4.22,0,0,1-1.24-3Z"/><path class="cls-9" d="M83.4,129.2h-.88v23.23h.88Z"/><path class="cls-9" d="M74.19,67.92a5.1,5.1,0,0,0-4.73,3.15,5.13,5.13,0,0,0,1.11,5.58,5.17,5.17,0,0,0,2.62,1.4,5.26,5.26,0,0,0,3-.29,5.15,5.15,0,0,0,2.29-1.89A5.06,5.06,0,0,0,79.31,73a5.12,5.12,0,0,0-5.12-5.11Zm0,9.35a4.21,4.21,0,0,1-.8-8.35,4.16,4.16,0,0,1,2.44.24,4.22,4.22,0,0,1,1.89,1.55,4.23,4.23,0,0,1-3.53,6.56Z"/><path class="cls-9" d="M74.19,70.66a2.37,2.37,0,0,0-1.68,4,2.36,2.36,0,0,0,1.21.65,2.42,2.42,0,0,0,1.38-.14A2.37,2.37,0,0,0,76.56,73a2.36,2.36,0,0,0-2.37-2.37Zm0,3.87a1.5,1.5,0,0,1-.83-.25,1.55,1.55,0,0,1-.56-.68,1.49,1.49,0,0,1-.08-.86,1.52,1.52,0,0,1,.41-.77,1.48,1.48,0,0,1,.77-.41,1.58,1.58,0,0,1,.86.09,1.44,1.44,0,0,1,.67.55,1.48,1.48,0,0,1,.26.83,1.39,1.39,0,0,1-.12.57,1.34,1.34,0,0,1-.32.49,1.58,1.58,0,0,1-1.06.44Z"/><path class="cls-9" d="M152.27,5.07a5.18,5.18,0,0,0,2.85-.86A5.21,5.21,0,0,0,157,1.91,5,5,0,0,0,157.29-1a5.05,5.05,0,0,0-1.4-2.62,5,5,0,0,0-2.62-1.4,5.09,5.09,0,0,0-3,.29A5.13,5.13,0,0,0,148-2.89,5.06,5.06,0,0,0,147.15,0a5.17,5.17,0,0,0,1.51,3.62,5.11,5.11,0,0,0,3.61,1.5Zm0-9.35a4.14,4.14,0,0,1,2.34.72,4.13,4.13,0,0,1,1.54,1.89,4.21,4.21,0,0,1,.24,2.43,4.13,4.13,0,0,1-1.16,2.15,4.2,4.2,0,0,1-2.15,1.16,4.21,4.21,0,0,1-2.43-.24,4.28,4.28,0,0,1-1.9-1.54A4.3,4.3,0,0,1,148,0a4.27,4.27,0,0,1,1.25-3,4.28,4.28,0,0,1,3-1.24Z"/><path class="cls-9" d="M152.27,2.34a2.48,2.48,0,0,0,1.32-.41,2.37,2.37,0,0,0,.87-1.06A2.39,2.39,0,0,0,154.6-.5,2.38,2.38,0,0,0,154-1.72a2.42,2.42,0,0,0-1.22-.65,2.38,2.38,0,0,0-1.37.14,2.34,2.34,0,0,0-1.07.87,2.38,2.38,0,0,0-.4,1.32,2.35,2.35,0,0,0,.7,1.68,2.37,2.37,0,0,0,1.68.7Zm0-3.88a1.56,1.56,0,0,1,.84.25,1.53,1.53,0,0,1,.55.68,1.58,1.58,0,0,1,.09.86,1.5,1.5,0,0,1-.42.77,1.42,1.42,0,0,1-.76.41,1.51,1.51,0,0,1-.87-.08A1.6,1.6,0,0,1,151,.8a1.56,1.56,0,0,1-.25-.84,1.5,1.5,0,0,1,.44-1.06A1.5,1.5,0,0,1,152.27-1.54Z"/><path class="cls-9" d="M118.65,38.17a5.12,5.12,0,0,0,5.12-5.11v-.32h29V5.15h-.88V31.86H123.61a5.11,5.11,0,0,0-6.7-3.59,5,5,0,0,0-2.29,1.65,5.11,5.11,0,0,0,4,8.26Zm0-9.35a4.3,4.3,0,0,1,2.36.71,4.24,4.24,0,0,1-1.53,7.68A4.19,4.19,0,0,1,117,37a4.15,4.15,0,0,1-1.9-1.56,4.23,4.23,0,0,1,.52-5.35,4.28,4.28,0,0,1,3-1.24Z"/><path class="cls-9" d="M83,119.71a4.64,4.64,0,0,0-4.32,2.88A4.68,4.68,0,0,0,82,129a4.7,4.7,0,0,0,2.7-.26A4.8,4.8,0,0,0,86.85,127a4.71,4.71,0,0,0,.79-2.6,4.79,4.79,0,0,0-.35-1.79,4.74,4.74,0,0,0-2.54-2.54,4.76,4.76,0,0,0-1.79-.35Z"/><path class="cls-9" d="M16.21,80.49a3.6,3.6,0,0,0-.6-2A3.56,3.56,0,0,0,12,77a3.45,3.45,0,0,0-1.82,1,3.57,3.57,0,0,0-.78,3.89,3.57,3.57,0,0,0,6.86-1.37Z"/><path class="cls-9" d="M219,97.15a3.59,3.59,0,0,0-2.36.89,3.54,3.54,0,0,0-1.17,2.23H195.7V65.4a3.54,3.54,0,0,0,3.11-3.75,3.53,3.53,0,0,0-1.11-2.37,3.55,3.55,0,0,0-4.88,0,3.57,3.57,0,0,0-.3,4.87,3.57,3.57,0,0,0,2.3,1.25v34.87H159.73V157.7h.88V101.15h34.21v19.07h21.94v44.49h.88V119.33H195.7V101.14h19.72a3.55,3.55,0,0,0,.8,1.85,3.6,3.6,0,0,0,1.68,1.11,3.56,3.56,0,0,0,2,0,3.49,3.49,0,0,0,1.7-1.07,3.53,3.53,0,0,0,.85-1.82A3.56,3.56,0,0,0,219,97.14Z"/><path class="cls-9" d="M119.75,122.08a3.55,3.55,0,0,0-3.29,2.2,3.54,3.54,0,0,0-.2,2.06,3.49,3.49,0,0,0,1,1.82,3.61,3.61,0,0,0,1.83,1,3.57,3.57,0,0,0,4-4.86,3.62,3.62,0,0,0-.77-1.16,3.73,3.73,0,0,0-1.16-.77,3.56,3.56,0,0,0-1.37-.27Z"/><path class="cls-9" d="M689.66,62.31h30.71v-40h33.75v-.88H720.37V-20.78a4.68,4.68,0,0,0,2.92-1.88,4.65,4.65,0,0,0,.82-3.37,4.69,4.69,0,0,0-1.74-3A4.65,4.65,0,0,0,719-30,4.65,4.65,0,0,0,716-28.42a4.68,4.68,0,0,0-1.13,3.28A4.69,4.69,0,0,0,716.27-22a4.69,4.69,0,0,0,3.22,1.28V21.39H689.66v-25H655.11A2.91,2.91,0,0,0,654-5.46a2.89,2.89,0,0,0-2-.62,2.87,2.87,0,0,0-1.91.92,2.92,2.92,0,0,0-.78,2,2.9,2.9,0,0,0,.78,2A2.93,2.93,0,0,0,652-.27a2.94,2.94,0,0,0,2-.63,2.89,2.89,0,0,0,1.07-1.84h33.67v25H719.5V61.46H688.79v41.22H648.68V44.16h-11V-25.41a3.54,3.54,0,0,0,2.3-1.26,3.59,3.59,0,0,0,.82-2.49,3.59,3.59,0,0,0-1.12-2.38,3.56,3.56,0,0,0-2.44-1,3.56,3.56,0,0,0-2.44,1,3.54,3.54,0,0,0-1.12,2.38,3.53,3.53,0,0,0,.81,2.49,3.56,3.56,0,0,0,2.31,1.26V44.16H600.33V9.09H569.76V-14.6a5.15,5.15,0,0,0,3.41-1.72,5.1,5.1,0,0,0,1.26-3.6,5.09,5.09,0,0,0-1.57-3.47,5.12,5.12,0,0,0-3.54-1.42,5.12,5.12,0,0,0-3.54,1.42,5.09,5.09,0,0,0-1.57,3.47,5.11,5.11,0,0,0,1.27,3.6,5.1,5.1,0,0,0,3.4,1.72V9.09H537.54v-24a2.91,2.91,0,0,0,1.84-1.07,2.86,2.86,0,0,0,.62-2,2.89,2.89,0,0,0-.92-1.92,2.91,2.91,0,0,0-2-.77,2.88,2.88,0,0,0-2,.77,3,3,0,0,0-.93,1.92,2.87,2.87,0,0,0,.63,2,2.86,2.86,0,0,0,1.84,1.07V10h32.21V45h30.57V64.79a5.13,5.13,0,1,0,.88,0V45h36.44v37.7H566.44v-18H526.88V44.15h.26a2.88,2.88,0,0,0,2-.76,2.91,2.91,0,1,0-4.74-3,2.88,2.88,0,0,0,.14,2.08A2.93,2.93,0,0,0,526,43.92V65.63h39.56V82.72h-7.24v25.43H526v.42c0,1.94-.42,47.42,0,49.2l.85-.2c-.29-1.24-.16-29.54,0-48.56h31.45v62.6h.85V109h7.25V83.61h71.23V45h10.16v58.49h41v48.91h.88V103.53h21.94v68.08h.88v-69H689.68ZM652.22-1.14a2,2,0,0,1-1.13-.35,2,2,0,0,1-.74-.91,2,2,0,0,1-.12-1.18,2,2,0,0,1,.56-1,2,2,0,0,1,1-.56,2.07,2.07,0,0,1,1.18.12,2,2,0,0,1,.91.75,2,2,0,0,1,.35,1.13,2,2,0,0,1-.6,1.44,2.07,2.07,0,0,1-1.45.6ZM565.07-19.7a4.26,4.26,0,0,1,.71-2.34,4.22,4.22,0,0,1,1.89-1.55,4.24,4.24,0,0,1,2.44-.24,4.18,4.18,0,0,1,2.16,1.15,4.27,4.27,0,0,1,1.16,2.16,4.24,4.24,0,0,1-.24,2.44,4.17,4.17,0,0,1-1.56,1.89,4.24,4.24,0,0,1-2.34.71,4.22,4.22,0,0,1-3-1.24,4.26,4.26,0,0,1-1.25-3Zm-30,1.94a2.11,2.11,0,0,1,.34-1.14,2.06,2.06,0,0,1,.92-.75,2.15,2.15,0,0,1,1.18-.12,2.08,2.08,0,0,1,1,.56,2,2,0,0,1,.56,1.05A2.06,2.06,0,0,1,539-17a2,2,0,0,1-.76.91,2,2,0,0,1-1.14.35,2,2,0,0,1-1.43-.6,2,2,0,0,1-.6-1.44Zm69.07,87.63a4.21,4.21,0,0,1-2.6,3.9,4.21,4.21,0,0,1-4.6-.92,4.21,4.21,0,0,1-.91-4.59,4.22,4.22,0,0,1,1.55-1.89,4.16,4.16,0,0,1,2.34-.71,4.23,4.23,0,0,1,4.22,4.22ZM569.75,44.15V10h29.69V44.15ZM525.1,41.24a2.11,2.11,0,0,1,.34-1.14,2.06,2.06,0,0,1,.92-.75,2.15,2.15,0,0,1,1.18-.12,2.08,2.08,0,0,1,1,.56,2,2,0,0,1,.56,1.05A2.08,2.08,0,0,1,529,42a2,2,0,0,1-.76.91,2,2,0,0,1-1.13.35,2,2,0,0,1-1.44-.6,2,2,0,0,1-.6-1.43Zm40.46,66.91h-6.39V83.61h6.37Z"/><path class="cls-9" d="M511.81,65.64a4.75,4.75,0,0,0,5.27,3.91,4.75,4.75,0,0,0,2.59-8.24,4.76,4.76,0,0,0-7.93,3.46H489.62V34.52H458V-.61h-.88v36h31.58V65.64Zm4.7-4.67a4,4,0,0,1,2.17.65,3.88,3.88,0,0,1,1.43,1.75,3.94,3.94,0,0,1,.22,2.25A3.88,3.88,0,0,1,515,68.45,3.89,3.89,0,0,1,516.51,61Z"/><path class="cls-9" d="M506.3,32.74h43.15v-.88H507.17V9.31h-.87Z"/><path class="cls-9" d="M484.48,95.89H444v.42c0,1-.31,11-.52,23H423.83V78.28H423v41.93h20.52c-.32,18.51-.49,41.48.56,44.64l.84-.28c-1-3-.84-25.91-.5-44.36h27.72V157.7H473V119.33H444.38c.2-11.14.43-20.49.51-22.57h40.5V84h-.91Z"/><path class="cls-9" d="M302.75,65.4a3.57,3.57,0,0,0,3.12-3.75,3.58,3.58,0,0,0-6-2.38,3.56,3.56,0,0,0,2,6.13v34.87H282.15a3.56,3.56,0,1,0,0,.88h19.72v18.18H279.93V164.7h.87V120.22h21.95V101.15H337V157.7h.88V100.27H302.75Z"/><path class="cls-9" d="M437-22a3.54,3.54,0,0,0,2.3-1.26,3.57,3.57,0,0,0,.82-2.49A3.59,3.59,0,0,0,439-28.14a3.55,3.55,0,0,0-2.44-1,3.55,3.55,0,0,0-2.44,1A3.59,3.59,0,0,0,433-25.76a3.57,3.57,0,0,0,.82,2.49A3.54,3.54,0,0,0,436.1-22V35.4H399.24v67.26H387.85V64.77H326.43V-30.38a5.1,5.1,0,0,0,3.41-1.72,5.15,5.15,0,0,0,1.27-3.59,5.14,5.14,0,0,0-1.57-3.48A5.16,5.16,0,0,0,326-40.59a5.16,5.16,0,0,0-3.54,1.42,5.14,5.14,0,0,0-1.57,3.48,5.1,5.1,0,0,0,1.27,3.59,5.1,5.1,0,0,0,3.41,1.72v96H387v37H364.16v55H365V126.08h9.21v-.88H365V103.53H387V157.7h.87V103.53h12.28V36.27H437ZM321.75-35.47a4.23,4.23,0,0,1,.72-2.36,4.23,4.23,0,0,1,1.91-1.56,4.28,4.28,0,0,1,2.45-.24A4.25,4.25,0,0,1,329-38.46a4.23,4.23,0,0,1,1.16,2.17,4.27,4.27,0,0,1-.25,2.45,4.23,4.23,0,0,1-1.57,1.9,4.24,4.24,0,0,1-2.37.7,4.18,4.18,0,0,1-3-1.25,4.26,4.26,0,0,1-1.24-3Z"/><path class="cls-9" d="M415.05,129.2h-.88v23.23h.88Z"/><path class="cls-9" d="M286.07,16.11h16.68V-14.6a5.1,5.1,0,0,0,3.4-1.72,5.11,5.11,0,0,0,1.27-3.6,5.14,5.14,0,0,0-1.57-3.47,5.14,5.14,0,0,0-3.54-1.42,5.12,5.12,0,0,0-3.54,1.42,5.1,5.1,0,0,0-1.58,3.47,5.15,5.15,0,0,0,1.27,3.6,5.1,5.1,0,0,0,3.41,1.72V15.23H285.2V57.31H212.37V15.23H195.7V-14.6a5.1,5.1,0,0,0,3.4-1.72,5.06,5.06,0,0,0,1.27-3.6,5.09,5.09,0,0,0-1.57-3.47,5.12,5.12,0,0,0-3.54-1.42,5.12,5.12,0,0,0-3.54,1.42,5.09,5.09,0,0,0-1.57,3.47,5.06,5.06,0,0,0,1.27,3.6,5.1,5.1,0,0,0,3.4,1.72V16.11h16.66V58.19h74.59Zm12-35.8a4.16,4.16,0,0,1,.71-2.34,4.17,4.17,0,0,1,1.89-1.56,4.24,4.24,0,0,1,2.44-.24,4.27,4.27,0,0,1,2.16,1.16,4.18,4.18,0,0,1,1.15,2.16,4.14,4.14,0,0,1-.24,2.43,4.22,4.22,0,0,1-1.55,1.89,4.17,4.17,0,0,1-2.34.72,4.27,4.27,0,0,1-3-1.25,4.19,4.19,0,0,1-1.24-3Zm-107,0a4.24,4.24,0,0,1,.71-2.34,4.17,4.17,0,0,1,1.89-1.56,4.25,4.25,0,0,1,2.44-.24,4.27,4.27,0,0,1,2.16,1.16,4.27,4.27,0,0,1,1.16,2.16,4.22,4.22,0,0,1-.24,2.43,4.17,4.17,0,0,1-1.56,1.89,4.17,4.17,0,0,1-2.34.72,4.27,4.27,0,0,1-3-1.25,4.24,4.24,0,0,1-1.24-3Z"/><path class="cls-9" d="M345.73,31.86V5.15h-.87V32.74h29v.32a5.13,5.13,0,0,0,4.81,5.15,5.13,5.13,0,0,0,5.43-4.5,5.14,5.14,0,0,0-7.9-4.94,5.17,5.17,0,0,0-2.2,3.09Zm33.2-3a4.24,4.24,0,0,1,2.35.71,4.34,4.34,0,0,1,1.57,1.9,4.24,4.24,0,0,1-3.09,5.78,4.24,4.24,0,0,1-4.36-1.8,4.24,4.24,0,0,1,3.53-6.59Z"/><path class="cls-9" d="M428.5,73a5.12,5.12,0,1,0-8,4.25,5.06,5.06,0,0,0,2.84.87A5.12,5.12,0,0,0,428.5,73Zm-9.36,0a4.21,4.21,0,0,1,2.6-3.89,4.23,4.23,0,0,1,4.6.91,4.27,4.27,0,0,1,1.16,2.16,4.22,4.22,0,0,1-4.14,5,4.3,4.3,0,0,1-3-1.24,4.26,4.26,0,0,1-1.24-3Z"/><path class="cls-9" d="M425.76,73a2.31,2.31,0,0,0-.41-1.32,2.37,2.37,0,0,0-4.3.86,2.36,2.36,0,0,0,1,2.44,2.34,2.34,0,0,0,2.23.21,2.21,2.21,0,0,0,.77-.51,2.35,2.35,0,0,0,.51-.77,2.39,2.39,0,0,0,.19-.91Zm-3.88,0a1.55,1.55,0,0,1,.25-.83,1.47,1.47,0,0,1,.68-.55,1.58,1.58,0,0,1,.86-.09,1.49,1.49,0,0,1,1.18,1.18,1.41,1.41,0,0,1-.09.86,1.47,1.47,0,0,1-.55.68A1.5,1.5,0,0,1,421.88,73Z"/><path class="cls-9" d="M345.29,5.07a5.06,5.06,0,0,0,2.85-.87A5.13,5.13,0,0,0,350,1.91a5.09,5.09,0,0,0,.29-3,5.21,5.21,0,0,0-1.4-2.62,5.11,5.11,0,0,0-2.63-1.39,5.09,5.09,0,0,0-3,.29A5.15,5.15,0,0,0,341-2.88,5.12,5.12,0,0,0,340.17,0a5.13,5.13,0,0,0,1.51,3.61,5.11,5.11,0,0,0,3.61,1.5Zm0-9.35a4.26,4.26,0,0,1,2.35.7,4.27,4.27,0,0,1,1.55,1.89,4.16,4.16,0,0,1,.24,2.44,4.28,4.28,0,0,1-1.14,2.16,4.18,4.18,0,0,1-2.16,1.15,4.16,4.16,0,0,1-2.44-.23,4.13,4.13,0,0,1-1.89-1.54A4.14,4.14,0,0,1,341.08,0a4.21,4.21,0,0,1,1.23-3,4.29,4.29,0,0,1,3-1.25Z"/><path class="cls-9" d="M345.29,2.34a2.38,2.38,0,0,0,1.32-.4,2.41,2.41,0,0,0,.88-1.07,2.29,2.29,0,0,0,.13-1.37A2.35,2.35,0,0,0,347-1.72a2.36,2.36,0,0,0-1.21-.65,2.38,2.38,0,0,0-1.37.14,2.34,2.34,0,0,0-1.07.87,2.38,2.38,0,0,0-.4,1.32,2.38,2.38,0,0,0,.69,1.68,2.37,2.37,0,0,0,1.68.7Zm0-3.88a1.56,1.56,0,0,1,.84.25,1.58,1.58,0,0,1,.56.67,1.53,1.53,0,0,1,.08.87,1.45,1.45,0,0,1-.41.77,1.45,1.45,0,0,1-.77.41,1.49,1.49,0,0,1-.86-.08,1.53,1.53,0,0,1-.68-.55A1.48,1.48,0,0,1,343.8,0a1.46,1.46,0,0,1,.44-1.06A1.49,1.49,0,0,1,345.29-1.54Z"/><path class="cls-9" d="M533,90a2.91,2.91,0,0,0,1.57-.46,2.92,2.92,0,0,0,1.32-2.86,2.94,2.94,0,0,0-.67-1.49,3.07,3.07,0,0,0-1.37-.9,2.91,2.91,0,0,0-3.73,2.33h-27.3v65.78h.87V87.56h26.43A2.92,2.92,0,0,0,533,90Zm0-5a2,2,0,0,1,1.89,1.26,2,2,0,0,1,.12,1.18,2.06,2.06,0,0,1-1.6,1.6,2,2,0,0,1-2.1-.86,2,2,0,0,1-.35-1.14,2,2,0,0,1,2-2Z"/><path class="cls-9" d="M414.61,119.71a4.7,4.7,0,0,0-2.6.78,4.79,4.79,0,0,0-1.73,2.1,4.71,4.71,0,0,0-.26,2.7,4.68,4.68,0,0,0,6.37,3.42,4.7,4.7,0,0,0,2.9-4.32,4.62,4.62,0,0,0-.36-1.79,4.45,4.45,0,0,0-1-1.52,4.62,4.62,0,0,0-1.52-1,4.79,4.79,0,0,0-1.79-.35Z"/><path class="cls-9" d="M506.73,9.31a4.7,4.7,0,0,0,2.6-.78,4.79,4.79,0,0,0,1.73-2.1,4.71,4.71,0,0,0,.26-2.7,4.67,4.67,0,1,0-4.59,5.58Z"/><path class="cls-9" d="M484.9,76.93a3.57,3.57,0,1,0,3,5.54,3.47,3.47,0,0,0,.6-2,3.55,3.55,0,0,0-.27-1.36,3.46,3.46,0,0,0-.77-1.16,3.59,3.59,0,0,0-2.52-1Z"/><path class="cls-9" d="M553,35.85a3.6,3.6,0,0,0,2-.6,3.55,3.55,0,0,0,1.52-3.66,3.56,3.56,0,0,0-2.8-2.8,3.54,3.54,0,0,0-2.06.2,3.55,3.55,0,0,0-2.2,3.29A3.57,3.57,0,0,0,553,35.85Z"/><path class="cls-9" d="M377.81,129.2a3.55,3.55,0,0,0,3.3-2.2,3.58,3.58,0,0,0-2.6-4.86,3.57,3.57,0,0,0-4,4.87,3.58,3.58,0,0,0,.77,1.15,3.62,3.62,0,0,0,1.16.77,3.55,3.55,0,0,0,1.36.27Z"/></g></g><g class="cls-10"><g class="cls-5"><g class="cls-6"><g class="cls-6"><g class="cls-6"><path class="cls-7" d="M5.5,701.35H-226.27v183H5.5Z"/></g><g class="cls-6"><path class="cls-7" d="M72.7,660.57H-129.43V822.76H72.7Z"/></g><g class="cls-6"><path class="cls-7" d="M31.26,868h-146.6v66H31.26Z"/></g><g class="cls-6"><path class="cls-7" d="M162,745.17H88.88v48.32H162Z"/></g><g class="cls-6"><path class="cls-7" d="M2.88,804.66h-47.6V839H2.88Z"/></g></g><g class="cls-6"><g class="cls-6"><path class="cls-7" d="M493.84,697.52h-210V863.29h210Z"/></g><g class="cls-6"><path class="cls-7" d="M554.71,660.57H371.6V807.5H554.71Z"/></g><g class="cls-6"><path class="cls-7" d="M319,760.34H206v82H319Z"/></g><g class="cls-6"><path class="cls-7" d="M337.2,889.27H230.41v45.49H337.2Z"/></g><g class="cls-6"><path class="cls-7" d="M517.18,848.46H384.37v59.76H517.18Z"/></g><g class="cls-6"><path class="cls-7" d="M538.33,887.44H445.57v60.32h92.76Z"/></g><g class="cls-6"><path class="cls-7" d="M423.15,755.88H343v42.3h80.17Z"/></g><g class="cls-6"><path class="cls-7" d="M491.46,791.09H448.33v31.13h43.13Z"/></g><g class="cls-6"><path class="cls-7" d="M374,823.76H304.92v54.86H374Z"/></g></g><g class="cls-6"><g class="cls-6"><path class="cls-7" d="M224.78,661.1H38.06v160H224.78Z"/></g><g class="cls-6"><path class="cls-7" d="M278.93,625.44H116.08V767.25H278.93Z"/></g><g class="cls-6"><path class="cls-7" d="M69.27,721.72H-31.22v79.15H69.27Z"/></g><g class="cls-6"><path class="cls-7" d="M85.48,846.16h-95v43.91h95Z"/></g><g class="cls-6"><path class="cls-7" d="M131.91,867.75H50.26v63.59h81.65Z"/></g><g class="cls-6"><path class="cls-7" d="M245.54,806.77H127.43v57.68H245.54Z"/></g><g class="cls-6"><path class="cls-7" d="M264.35,844.39H181.87v58.22h82.48Z"/></g><g class="cls-6"><path class="cls-7" d="M350.84,699.41H292v42.25h58.88Z"/></g><g class="cls-6"><path class="cls-7" d="M161.92,717.42H90.62v40.82h71.3Z"/></g><g class="cls-6"><path class="cls-7" d="M222.67,751.41H184.32v30h38.35Z"/></g><g class="cls-6"><path class="cls-7" d="M118.2,782.93H56.77v53H118.2Z"/></g></g></g></g><g class="cls-8"><path class="cls-9" d="M14.75,867.33H-4.91c-.21-12.05-.48-22-.51-23v-.43H-45.89V832.05h-.88v12.71H-6.26c.06,2.08.3,11.44.5,22.58H-34.38v38.37h.87V868.22H-5.78c.32,18.45.5,41.32-.51,44.35l.85.28c1.05-3.15.88-26.14.56-44.63H15.64V826.29h-.88Z"/><path class="cls-9" d="M51.6,813.64H113v-96a5.11,5.11,0,1,0-.88,0v95.15H50.72v37.89H39.33V783.4H2.47V726a3.57,3.57,0,0,0,3.12-3.75,3.59,3.59,0,0,0-1.12-2.38,3.58,3.58,0,0,0-4.88,0,3.56,3.56,0,0,0-.31,4.87A3.56,3.56,0,0,0,1.59,726v58.28H38.44v67.26H50.72V905.7h.88V851.53H73.54v21.68H64.32v.87h9.21V905.7h.89v-55H51.6Zm56.73-101.11a4.25,4.25,0,0,1,2.62-3.92,4.31,4.31,0,0,1,2.46-.24,4.24,4.24,0,0,1,3.32,3.34,4.24,4.24,0,0,1-1.82,4.35,4.22,4.22,0,0,1-5.34-.54,4.26,4.26,0,0,1-1.24-3Z"/><path class="cls-9" d="M24.4,877.2h-.88v23.23h.88Z"/><path class="cls-9" d="M15.19,815.92a5.1,5.1,0,0,0-4.73,3.15,5.13,5.13,0,0,0,1.11,5.58,5.17,5.17,0,0,0,2.62,1.4,5.26,5.26,0,0,0,3-.29,5.15,5.15,0,0,0,2.29-1.89,5.06,5.06,0,0,0,.87-2.84,5.12,5.12,0,0,0-5.12-5.11Zm0,9.35a4.22,4.22,0,0,1-2.34-.72,4.21,4.21,0,0,1,1.54-7.63,4.21,4.21,0,1,1,.8,8.35Z"/><path class="cls-9" d="M15.19,818.66a2.36,2.36,0,0,0-2.33,2.83,2.38,2.38,0,0,0,1.86,1.87,2.42,2.42,0,0,0,1.38-.14A2.37,2.37,0,0,0,17.56,821a2.36,2.36,0,0,0-2.37-2.37Zm0,3.87a1.5,1.5,0,0,1-.83-.25,1.55,1.55,0,0,1-.56-.68,1.49,1.49,0,0,1-.08-.86,1.52,1.52,0,0,1,.41-.77,1.48,1.48,0,0,1,1.63-.32,1.44,1.44,0,0,1,.67.55,1.46,1.46,0,0,1,.26.83,1.39,1.39,0,0,1-.12.57,1.34,1.34,0,0,1-.32.49,1.58,1.58,0,0,1-1.06.44Z"/><path class="cls-9" d="M115,712.53a2.38,2.38,0,0,0-4.06-1.68,2.36,2.36,0,0,0-.65,1.21,2.42,2.42,0,0,0,.14,1.38,2.38,2.38,0,0,0,3.87.77,2.62,2.62,0,0,0,.52-.77,2.38,2.38,0,0,0,.18-.91Zm-3.88,0a1.43,1.43,0,0,1,.26-.83,1.52,1.52,0,0,1,.67-.56,1.49,1.49,0,0,1,.86-.08,1.49,1.49,0,0,1,.54,2.71,1.42,1.42,0,0,1-.83.25,1.49,1.49,0,0,1-1.06-.43A1.53,1.53,0,0,1,111.07,712.53Z"/><path class="cls-9" d="M93.27,753.07A5.09,5.09,0,0,0,98,749.91a5.12,5.12,0,1,0-9.85-2,5.17,5.17,0,0,0,1.51,3.62,5.11,5.11,0,0,0,3.61,1.5Zm0-9.35a4.22,4.22,0,0,1,4.12,5,4.13,4.13,0,0,1-1.16,2.15,4.23,4.23,0,0,1-6.48-.62A4.33,4.33,0,0,1,89,748a4.25,4.25,0,0,1,4.24-4.23Z"/><path class="cls-9" d="M93.27,750.34a2.31,2.31,0,0,0,1.32-.41,2.37,2.37,0,0,0,.36-3.65,2.42,2.42,0,0,0-1.22-.65,2.38,2.38,0,0,0-1.37.14,2.34,2.34,0,0,0-1.07.87,2.38,2.38,0,0,0-.4,1.32,2.39,2.39,0,0,0,2.38,2.38Zm0-3.88a1.56,1.56,0,0,1,.84.25,1.53,1.53,0,0,1,.55.68,1.58,1.58,0,0,1,.09.86,1.5,1.5,0,0,1-.42.77,1.42,1.42,0,0,1-.76.41,1.51,1.51,0,0,1-.87-.08,1.6,1.6,0,0,1-.68-.55,1.56,1.56,0,0,1-.25-.84,1.5,1.5,0,0,1,1.5-1.5Z"/><path class="cls-9" d="M59.65,786.17a5.12,5.12,0,0,0,5.12-5.11v-.33h29V753.15h-.88v26.71H64.61a5.11,5.11,0,0,0-6.7-3.59,5,5,0,0,0-2.29,1.65,5.13,5.13,0,0,0-.58,5.39,5,5,0,0,0,1.89,2.09,5.09,5.09,0,0,0,2.71.78Zm0-9.35a4.3,4.3,0,0,1,2.36.71,4.23,4.23,0,0,1,1.8,4.35A4.24,4.24,0,0,1,58,785a4.15,4.15,0,0,1-1.9-1.56,4.23,4.23,0,0,1,.52-5.35,4.28,4.28,0,0,1,3-1.24Z"/><path class="cls-9" d="M24,867.71a4.64,4.64,0,0,0-4.32,2.88A4.68,4.68,0,0,0,23,877a4.7,4.7,0,0,0,2.7-.26A4.8,4.8,0,0,0,27.85,875a4.71,4.71,0,0,0,.79-2.6,4.79,4.79,0,0,0-.35-1.79,4.74,4.74,0,0,0-2.54-2.54,4.76,4.76,0,0,0-1.79-.35Z"/><path class="cls-9" d="M160,845.15a3.59,3.59,0,0,0-2.36.89,3.54,3.54,0,0,0-1.17,2.23H136.7V813.4a3.54,3.54,0,0,0,3.11-3.75,3.53,3.53,0,0,0-1.11-2.37,3.55,3.55,0,0,0-4.88,0,3.57,3.57,0,0,0-.3,4.87,3.57,3.57,0,0,0,2.3,1.25v34.87H100.73V905.7h.88V849.15h34.21v19.07h21.94v44.49h.88V867.33H136.7V849.14h19.72a3.55,3.55,0,0,0,.8,1.85,3.6,3.6,0,0,0,1.68,1.11,3.56,3.56,0,0,0,2,0,3.49,3.49,0,0,0,1.7-1.07,3.53,3.53,0,0,0,.85-1.82,3.56,3.56,0,0,0-3.52-4.09Z"/><path class="cls-9" d="M60.75,870.08a3.55,3.55,0,0,0-3.29,2.2,3.54,3.54,0,0,0-.2,2.06,3.49,3.49,0,0,0,1,1.82,3.61,3.61,0,0,0,1.83,1,3.47,3.47,0,0,0,2.06-.21,3.56,3.56,0,0,0,1.93-4.65,3.62,3.62,0,0,0-.77-1.16,3.73,3.73,0,0,0-1.16-.77,3.56,3.56,0,0,0-1.37-.27Z"/><path class="cls-9" d="M528.63,851.51a5.19,5.19,0,0,0,3.41-1.72,5.12,5.12,0,1,0-4.29,1.72v13.66h50V925h.89v-60.7h-50ZM524,846.42a4.24,4.24,0,0,1,5-4.19,4.23,4.23,0,0,1,3.35,3.33,4.12,4.12,0,0,1-.24,2.45,4.24,4.24,0,0,1-8.16-1.59Z"/><path class="cls-9" d="M630.66,810.31h30.71v-40h33.75v-.88H661.37V727.22a4.73,4.73,0,1,0-.88.08v42.09H630.66v-25H596.11a2.91,2.91,0,0,0-1.07-1.84,2.92,2.92,0,1,0,0,4.56,2.91,2.91,0,0,0,1.07-1.84h33.67v25H660.5v39.22H629.79v41.22H589.68V792.16h-11V722.59a3.54,3.54,0,0,0,2.3-1.26,3.56,3.56,0,0,0-5.18-4.87,3.56,3.56,0,0,0,2,6.13v69.57H541.33V757.09H510.76V733.4a5.19,5.19,0,0,0,3.41-1.72,5.12,5.12,0,1,0-4.29,1.72v23.69H478.53v-24A2.93,2.93,0,0,0,481,730a3,3,0,0,0-.92-1.92,2.91,2.91,0,0,0-4.89,1.92,2.86,2.86,0,0,0,.62,2,2.91,2.91,0,0,0,1.84,1.07V758h32.22V793h30.57v19.75a5.12,5.12,0,0,0-4.67,5.31,5.12,5.12,0,1,0,9-3.59,5.1,5.1,0,0,0-3.41-1.72V793h36.44v37.7H507.44v-18H467.87V792.15h.27a2.91,2.91,0,0,0,.56-5.76,2.9,2.9,0,0,0-3.36,2,2.91,2.91,0,0,0,1.66,3.53v21.71h39.56v17.09h-7.24v25.43H467v.42c0,1.94-.42,47.42,0,49.2l.84-.2c-.29-1.24-.16-29.54,0-48.56h31.46v62.6h.85V857h7.25V831.61h71.23V793h10.16v58.49h41v48.91h.88V851.53h21.94v68.08h.88v-69H630.68Zm-37.44-63.45a2,2,0,0,1-.39-4,2,2,0,0,1,1.18.12,2,2,0,0,1,.91.75,2,2,0,0,1,.35,1.13,2,2,0,0,1-.6,1.44,2.07,2.07,0,0,1-1.45.6ZM506.07,728.3a4.26,4.26,0,0,1,.71-2.34,4.23,4.23,0,0,1,6.49-.64,4.21,4.21,0,0,1,.92,4.6,4.17,4.17,0,0,1-1.56,1.89,4.23,4.23,0,0,1-6.56-3.5Zm-30,1.94a2.11,2.11,0,0,1,.34-1.14,2.07,2.07,0,0,1,2.1-.87,2,2,0,0,1,1.61,1.61A2,2,0,0,1,480,731a2.06,2.06,0,0,1-1.89,1.26,2,2,0,0,1-2-2Zm69.08,87.63a4.21,4.21,0,0,1-2.6,3.9,4.21,4.21,0,0,1-4.6-.92,4.21,4.21,0,0,1-.91-4.59,4.22,4.22,0,0,1,1.55-1.89,4.16,4.16,0,0,1,2.34-.71,4.23,4.23,0,0,1,4.22,4.22Zm-34.37-25.72V758h29.69v34.19Zm-44.66-2.91a2,2,0,0,1,.35-1.14,2.09,2.09,0,0,1,.91-.75,2.15,2.15,0,0,1,1.18-.12,2,2,0,0,1,1.61,1.61A2,2,0,0,1,470,790a2,2,0,0,1-.75.91,2,2,0,0,1-1.13.35,2.07,2.07,0,0,1-2.05-2Zm40.47,66.91h-6.39V831.61h6.37Z"/><path class="cls-9" d="M452.81,813.64a4.75,4.75,0,0,0,5.26,3.91,4.75,4.75,0,1,0-5.33-4.78H430.62V782.52H399V747.39h-.88v36h31.58v30.24Zm4.7-4.67a3.89,3.89,0,0,1,3.82,4.65,3.89,3.89,0,0,1-5.32,2.83,3.81,3.81,0,0,1-1.74-1.43,3.89,3.89,0,0,1,3.24-6Z"/><path class="cls-9" d="M447.29,780.73h43.15v-.87H448.17V757.31h-.88Z"/><path class="cls-9" d="M425.48,843.89H385v.42c0,1-.31,11-.52,23H364.83V826.28H364v41.93h20.52c-.32,18.51-.49,41.48.56,44.64l.84-.28c-1-3-.84-25.91-.5-44.36h27.72V905.7H414V867.33H385.38c.2-11.14.43-20.49.51-22.57h40.5V832h-.91Z"/><path class="cls-9" d="M243.75,813.4a3.57,3.57,0,0,0,3.12-3.75,3.57,3.57,0,0,0-6-2.38,3.56,3.56,0,0,0,2,6.13v34.87H223.15a3.54,3.54,0,0,0-1.26-2.3,3.56,3.56,0,0,0-4.87,5.18,3.56,3.56,0,0,0,6.13-2h19.72v18.18H220.93V912.7h.87V868.22h21.95V849.15H278V905.7h.88V848.27H243.75Z"/><path class="cls-9" d="M378,726a3.57,3.57,0,0,0,3.12-3.75,3.57,3.57,0,1,0-6.3,2.49,3.54,3.54,0,0,0,2.3,1.26V783.4H340.24v67.26H328.85V812.77H267.43V717.62a5.12,5.12,0,0,0,3.11-8.79,5.12,5.12,0,0,0-8.66,3.48,5.12,5.12,0,0,0,4.68,5.31v96H328v37H305.16v55H306V874.08h9.21v-.88H306V851.53H328V905.7h.87V851.53h12.28V784.27H378ZM262.75,712.53a4.24,4.24,0,0,1,2.63-3.92,4.22,4.22,0,0,1,4.62.93,4.23,4.23,0,0,1-.66,6.52,4.33,4.33,0,0,1-2.37.71,4.25,4.25,0,0,1-4.22-4.24Z"/><path class="cls-9" d="M356.05,877.2h-.88v23.23h.88Z"/><path class="cls-9" d="M227.07,764.11h16.68V733.4a5.13,5.13,0,1,0-.88,0v29.83H226.2v42.08H153.37V763.23H136.7V733.4a5.15,5.15,0,0,0,3.4-1.72,5.11,5.11,0,0,0-.3-7.07,5.11,5.11,0,0,0-8.65,3.47,5.06,5.06,0,0,0,1.27,3.6,5.15,5.15,0,0,0,3.4,1.72v30.71h16.66v42.08h74.59Zm12-35.8a4.24,4.24,0,0,1,2.6-3.9,4.21,4.21,0,0,1,4.6.92,4.18,4.18,0,0,1,1.15,2.16,4.14,4.14,0,0,1-.24,2.43,4.3,4.3,0,0,1-1.55,1.9,4.23,4.23,0,0,1-6.56-3.51Zm-107,0a4.21,4.21,0,0,1,5-4.14,4.25,4.25,0,0,1,3.32,3.32,4.22,4.22,0,0,1-4.14,5,4.25,4.25,0,0,1-4.22-4.22Z"/><path class="cls-9" d="M286.73,779.86V753.15h-.87v27.58h29v.33a5.14,5.14,0,0,0,8.42,4,5.14,5.14,0,1,0-8.28-5.18Zm33.2-3a4.24,4.24,0,0,1,2.35.71,4.34,4.34,0,0,1,1.57,1.9,4.24,4.24,0,0,1-.92,4.62,4.25,4.25,0,0,1-4.63.92,4.24,4.24,0,0,1,1.63-8.15Z"/><path class="cls-9" d="M369.5,821a5.12,5.12,0,1,0-8,4.25,5.06,5.06,0,0,0,2.84.87A5.12,5.12,0,0,0,369.5,821Zm-9.36,0a4.24,4.24,0,0,1,.71-2.34,4.23,4.23,0,0,1,6.49-.64,4.21,4.21,0,1,1-7.2,3Z"/><path class="cls-9" d="M366.76,821a2.31,2.31,0,0,0-.41-1.32,2.37,2.37,0,0,0-4.3.86,2.36,2.36,0,0,0,1,2.44,2.34,2.34,0,0,0,2.23.21,2.32,2.32,0,0,0,1.28-1.28,2.39,2.39,0,0,0,.19-.91Zm-3.88,0a1.53,1.53,0,0,1,.25-.83,1.47,1.47,0,0,1,.68-.55,1.49,1.49,0,0,1,.86-.09,1.49,1.49,0,0,1,1.18,1.18,1.41,1.41,0,0,1-.09.86,1.47,1.47,0,0,1-.55.68,1.5,1.5,0,0,1-2.33-1.25Z"/><path class="cls-9" d="M269.36,712.53a2.38,2.38,0,0,0-4.06-1.68,2.36,2.36,0,0,0-.65,1.21,2.42,2.42,0,0,0,.14,1.38,2.38,2.38,0,0,0,4.57-.91Zm-3.88,0a1.49,1.49,0,0,1,.92-1.39,1.45,1.45,0,0,1,.87-.09,1.52,1.52,0,0,1,.77.41,1.54,1.54,0,0,1,.42.77,1.62,1.62,0,0,1-.09.87,1.5,1.5,0,0,1-.55.67,1.5,1.5,0,0,1-2.33-1.24Z"/><path class="cls-9" d="M286.29,753.07a5.06,5.06,0,0,0,2.85-.87,5.11,5.11,0,0,0,2.17-5.25,5.21,5.21,0,0,0-1.4-2.62,5.12,5.12,0,1,0-3.62,8.74Zm0-9.35a4.18,4.18,0,0,1,3.9,2.59,4.16,4.16,0,0,1,.24,2.44,4.2,4.2,0,0,1-5.74,3.08,4.21,4.21,0,0,1-2.61-3.88,4.22,4.22,0,0,1,1.23-3,4.29,4.29,0,0,1,3-1.25Z"/><path class="cls-9" d="M286.29,750.34a2.38,2.38,0,0,0,1.68-4.06,2.38,2.38,0,0,0-3.65.36,2.38,2.38,0,0,0,2,3.7Zm0-3.88a1.56,1.56,0,0,1,.84.25,1.58,1.58,0,0,1,.56.67,1.53,1.53,0,0,1,.08.87,1.49,1.49,0,0,1-1.18,1.18,1.49,1.49,0,0,1-.86-.08,1.6,1.6,0,0,1-.68-.55,1.48,1.48,0,0,1-.25-.84,1.46,1.46,0,0,1,.44-1.06A1.49,1.49,0,0,1,286.29,746.46Z"/><path class="cls-9" d="M512.69,728.31a2.38,2.38,0,0,0-.4-1.32,2.3,2.3,0,0,0-1.07-.88,2.37,2.37,0,0,0-2.59.51,2.37,2.37,0,0,0,.36,3.66,2.38,2.38,0,0,0,3.7-2Zm-3.88,0a1.56,1.56,0,0,1,.25-.84,1.53,1.53,0,0,1,.68-.55,1.51,1.51,0,0,1,.87-.09,1.57,1.57,0,0,1,.77.41,1.52,1.52,0,0,1,.41.77,1.61,1.61,0,0,1-.09.87,1.41,1.41,0,0,1-.56.67,1.43,1.43,0,0,1-.83.26,1.5,1.5,0,0,1-1.5-1.5Z"/><path class="cls-9" d="M530.57,846.42a2.44,2.44,0,0,0-.4-1.33,2.41,2.41,0,0,0-2.45-1,2.38,2.38,0,0,0-1.73,3.25,2.38,2.38,0,0,0,4.58-.91Zm-3.88,0a1.56,1.56,0,0,1,.25-.84,1.5,1.5,0,0,1,.67-.55,1.45,1.45,0,0,1,.87-.09,1.52,1.52,0,0,1,.77.41,1.45,1.45,0,0,1,.41.77,1.53,1.53,0,0,1-.08.87,1.5,1.5,0,0,1-.55.67,1.53,1.53,0,0,1-1.9-.18A1.5,1.5,0,0,1,526.69,846.42Z"/><path class="cls-9" d="M474,838a3,3,0,0,0,1.57-.46,2.86,2.86,0,0,0,1.07-1.24,2.82,2.82,0,0,0,.24-1.62,2.86,2.86,0,0,0-.67-1.49,2.92,2.92,0,0,0-1.37-.89,2.86,2.86,0,0,0-1.64,0,2.92,2.92,0,0,0-2.09,2.34h-27.3v65.78h.88V835.56h26.42a2.93,2.93,0,0,0,1,1.77,3,3,0,0,0,1.9.71Zm0-5a2.05,2.05,0,0,1,1.13.34,2.13,2.13,0,0,1,.76.92,2.06,2.06,0,0,1,.11,1.18,2,2,0,0,1-.55,1,2,2,0,0,1-1.05.56,2.06,2.06,0,0,1-1.18-.11,2.17,2.17,0,0,1-.92-.75,2.09,2.09,0,0,1-.34-1.14,2,2,0,0,1,.6-1.44A2,2,0,0,1,474,833.08Z"/><path class="cls-9" d="M355.61,867.71a4.7,4.7,0,0,0-2.6.78,4.79,4.79,0,0,0-1.73,2.1,4.71,4.71,0,0,0-.26,2.7,4.68,4.68,0,0,0,6.37,3.42,4.7,4.7,0,0,0,2.9-4.32,4.62,4.62,0,0,0-.36-1.79,4.45,4.45,0,0,0-1-1.52,4.62,4.62,0,0,0-1.52-1,4.79,4.79,0,0,0-1.79-.35Z"/><path class="cls-9" d="M447.73,757.31a4.67,4.67,0,0,0,.91-9.26,4.69,4.69,0,0,0-4.8,2,4.67,4.67,0,0,0,3.89,7.27Z"/><path class="cls-9" d="M425.9,824.93a3.57,3.57,0,0,0-.7,7.06,3.63,3.63,0,0,0,2.06-.2,3.56,3.56,0,0,0,1.6-1.32,3.47,3.47,0,0,0,.6-2,3.55,3.55,0,0,0-.27-1.36,3.46,3.46,0,0,0-.77-1.16,3.59,3.59,0,0,0-2.52-1Z"/><path class="cls-9" d="M402.16,743.83a3.55,3.55,0,0,0-2.2-3.29,3.56,3.56,0,1,0,1.16,5.81,3.59,3.59,0,0,0,1-2.52Z"/><path class="cls-9" d="M494,783.85a3.6,3.6,0,0,0,2-.6,3.55,3.55,0,0,0,1.52-3.66,3.56,3.56,0,0,0-2.8-2.8,3.54,3.54,0,0,0-2.06.2,3.54,3.54,0,0,0-2.21,3.29,3.59,3.59,0,0,0,3.57,3.57Z"/><path class="cls-9" d="M318.81,877.2a3.55,3.55,0,0,0,3.3-2.2,3.58,3.58,0,0,0-2.6-4.86,3.57,3.57,0,0,0-4,4.87,3.58,3.58,0,0,0,.77,1.15,3.62,3.62,0,0,0,1.16.77,3.55,3.55,0,0,0,1.36.27Z"/></g></g></g></svg>