<svg width="1016" height="263" viewBox="0 0 1016 263" fill="none" xmlns="http://www.w3.org/2000/svg">
<g clip-path="url(#clip0_112_376)">
<g opacity="0.5">
<g opacity="0.2">
<g style="mix-blend-mode:overlay" opacity="0.2">
<g style="mix-blend-mode:overlay" opacity="0.2">
<path d="M513.21 -46.6462H281.449V136.344H513.21V-46.6462Z" stroke="white" stroke-width="2.55" stroke-miterlimit="10"/>
</g>
<g style="mix-blend-mode:overlay" opacity="0.2">
<path d="M580.417 -87.4269H378.285V74.7643H580.417V-87.4269Z" stroke="white" stroke-width="2.55" stroke-miterlimit="10"/>
</g>
<g style="mix-blend-mode:overlay" opacity="0.2">
<path d="M320.196 22.7005H195.461V113.226H320.196V22.7005Z" stroke="white" stroke-width="2.55" stroke-miterlimit="10"/>
</g>
<g style="mix-blend-mode:overlay" opacity="0.2">
<path d="M340.31 165.029H222.423V215.25H340.31V165.029Z" stroke="white" stroke-width="2.55" stroke-miterlimit="10"/>
</g>
<g style="mix-blend-mode:overlay" opacity="0.2">
<path d="M397.935 189.724H296.597V262.465H397.935V189.724Z" stroke="white" stroke-width="2.55" stroke-miterlimit="10"/>
</g>
<g style="mix-blend-mode:overlay" opacity="0.2">
<path d="M538.978 119.972H392.378V185.95H538.978V119.972Z" stroke="white" stroke-width="2.55" stroke-miterlimit="10"/>
</g>
<g style="mix-blend-mode:overlay" opacity="0.2">
<path d="M562.324 163.009H459.944V229.598H562.324V163.009Z" stroke="white" stroke-width="2.55" stroke-miterlimit="10"/>
</g>
<g style="mix-blend-mode:overlay" opacity="0.2">
<path d="M669.675 -2.82965H596.59V45.4943H669.675V-2.82965Z" stroke="white" stroke-width="2.55" stroke-miterlimit="10"/>
</g>
<g style="mix-blend-mode:overlay" opacity="0.2">
<path d="M435.188 17.7758H346.69V64.4763H435.188V17.7758Z" stroke="white" stroke-width="2.55" stroke-miterlimit="10"/>
</g>
<g style="mix-blend-mode:overlay" opacity="0.2">
<path d="M510.594 56.6549H462.99V91.0142H510.594V56.6549Z" stroke="white" stroke-width="2.55" stroke-miterlimit="10"/>
</g>
<g style="mix-blend-mode:overlay" opacity="0.2">
<path d="M380.918 92.7091H304.677V153.265H380.918V92.7091Z" stroke="white" stroke-width="2.55" stroke-miterlimit="10"/>
</g>
</g>
<g style="mix-blend-mode:overlay" opacity="0.2">
<g style="mix-blend-mode:overlay" opacity="0.2">
<path d="M1001.55 -50.483H791.591V115.288H1001.55V-50.483Z" stroke="white" stroke-width="2.55" stroke-miterlimit="10"/>
</g>
<g style="mix-blend-mode:overlay" opacity="0.2">
<path d="M1062.42 -87.4269H879.313V59.501H1062.42V-87.4269Z" stroke="white" stroke-width="2.55" stroke-miterlimit="10"/>
</g>
<g style="mix-blend-mode:overlay" opacity="0.2">
<path d="M826.693 12.3366H713.696V94.3451H826.693V12.3366Z" stroke="white" stroke-width="2.55" stroke-miterlimit="10"/>
</g>
<g style="mix-blend-mode:overlay" opacity="0.2">
<path d="M844.912 141.269H738.123V186.764H844.912V141.269Z" stroke="white" stroke-width="2.55" stroke-miterlimit="10"/>
</g>
<g style="mix-blend-mode:overlay" opacity="0.2">
<path d="M897.119 163.641H805.317V229.535H897.119V163.641Z" stroke="white" stroke-width="2.55" stroke-miterlimit="10"/>
</g>
<g style="mix-blend-mode:overlay" opacity="0.2">
<path d="M1024.89 100.455H892.081V160.222H1024.89V100.455Z" stroke="white" stroke-width="2.55" stroke-miterlimit="10"/>
</g>
<g style="mix-blend-mode:overlay" opacity="0.2">
<path d="M1046.04 139.439H953.289V199.763H1046.04V139.439Z" stroke="white" stroke-width="2.55" stroke-miterlimit="10"/>
</g>
<g style="mix-blend-mode:overlay" opacity="0.2">
<path d="M930.862 7.87573H850.693V50.1828H930.862V7.87573Z" stroke="white" stroke-width="2.55" stroke-miterlimit="10"/>
</g>
<g style="mix-blend-mode:overlay" opacity="0.2">
<path d="M999.171 43.095H956.048V74.2202H999.171V43.095Z" stroke="white" stroke-width="2.55" stroke-miterlimit="10"/>
</g>
<g style="mix-blend-mode:overlay" opacity="0.2">
<path d="M881.702 75.7592H812.634V130.619H881.702V75.7592Z" stroke="white" stroke-width="2.55" stroke-miterlimit="10"/>
</g>
</g>
<g style="mix-blend-mode:overlay" opacity="0.2">
<g style="mix-blend-mode:overlay" opacity="0.2">
<path d="M732.498 -86.9041H545.771V73.0778H732.498V-86.9041Z" stroke="white" stroke-width="2.55" stroke-miterlimit="10"/>
</g>
<g style="mix-blend-mode:overlay" opacity="0.2">
<path d="M786.646 -122.558H623.793V19.2473H786.646V-122.558Z" stroke="white" stroke-width="2.55" stroke-miterlimit="10"/>
</g>
<g style="mix-blend-mode:overlay" opacity="0.2">
<path d="M576.987 -26.2769H476.492V52.8687H576.987V-26.2769Z" stroke="white" stroke-width="2.55" stroke-miterlimit="10"/>
</g>
<g style="mix-blend-mode:overlay" opacity="0.2">
<path d="M593.194 98.1609H498.218V142.07H593.194V98.1609Z" stroke="white" stroke-width="2.55" stroke-miterlimit="10"/>
</g>
<g style="mix-blend-mode:overlay" opacity="0.2">
<path d="M639.624 119.749H557.978V183.344H639.624V119.749Z" stroke="white" stroke-width="2.55" stroke-miterlimit="10"/>
</g>
<g style="mix-blend-mode:overlay" opacity="0.2">
<path d="M753.258 58.7673H635.147V116.452H753.258V58.7673Z" stroke="white" stroke-width="2.55" stroke-miterlimit="10"/>
</g>
<g style="mix-blend-mode:overlay" opacity="0.2">
<path d="M772.068 96.3943H689.582V154.614H772.068V96.3943Z" stroke="white" stroke-width="2.55" stroke-miterlimit="10"/>
</g>
<g style="mix-blend-mode:overlay" opacity="0.2">
<path d="M669.637 -30.5818H598.337V10.2454H669.637V-30.5818Z" stroke="white" stroke-width="2.55" stroke-miterlimit="10"/>
</g>
<g style="mix-blend-mode:overlay" opacity="0.2">
<path d="M730.388 3.41058H692.034V33.4479H730.388V3.41058Z" stroke="white" stroke-width="2.55" stroke-miterlimit="10"/>
</g>
<g style="mix-blend-mode:overlay" opacity="0.2">
<path d="M625.911 34.9322H564.484V87.8772H625.911V34.9322Z" stroke="white" stroke-width="2.55" stroke-miterlimit="10"/>
</g>
</g>
</g>
</g>
<g opacity="0.35">
<path opacity="0.35" d="M166.896 61.8748V117.792H139.642C139.722 102.133 139.845 86.6628 139.938 77.0453H139.06C138.946 88.9439 138.828 103.608 138.748 117.801H103.95V100.358H71.4984V65.1678H125.874V-0.354661C126.505 -0.513039 127.064 -0.876746 127.465 -1.38832C127.865 -1.8999 128.083 -2.53021 128.085 -3.17966C128.084 -3.95203 127.777 -4.69244 127.23 -5.23859C126.684 -5.78474 125.943 -6.09202 125.17 -6.09314C124.396 -6.09314 123.654 -5.7863 123.106 -5.24003C122.559 -4.69377 122.251 -3.95276 122.25 -3.17966C122.252 -2.43706 122.537 -1.72309 123.047 -1.18332C123.558 -0.643543 124.255 -0.318571 124.997 -0.274575V64.3076H70.6208V100.358H38.1902V171.614H39.0678V101.247H70.6208V206.792H71.4984V101.247H103.072V118.665H138.744C138.596 145.966 138.613 171.336 139.165 171.901L139.49 172.036V171.614L139.87 171.429C139.448 170.096 139.495 144.28 139.63 118.682H167.786V61.8748H166.908H166.896ZM123.127 -3.17966C123.129 -3.72017 123.344 -4.23813 123.727 -4.61993C124.11 -5.00173 124.629 -5.21615 125.17 -5.21615C125.71 -5.21615 126.229 -5.00159 126.611 -4.61967C126.993 -4.23775 127.208 -3.71978 127.208 -3.17966C127.207 -2.63989 126.991 -2.12251 126.609 -1.74084C126.228 -1.35916 125.71 -1.14424 125.17 -1.14312C124.629 -1.14312 124.11 -1.35754 123.727 -1.73934C123.344 -2.12114 123.129 -2.63916 123.127 -3.17966Z" fill="white"/>
<path opacity="0.35" d="M89.0513 -21.5925H155.752C155.862 -20.3178 156.446 -19.1305 157.389 -18.2649C158.331 -17.3992 159.565 -16.9181 160.845 -16.9165C162.202 -16.9176 163.503 -17.4568 164.463 -18.4157C165.422 -19.3746 165.962 -20.6749 165.963 -22.031C165.962 -23.3871 165.422 -24.6873 164.463 -25.6462C163.503 -26.6051 162.202 -27.1443 160.845 -27.1454C159.565 -27.1438 158.331 -26.6627 157.389 -25.7971C156.446 -24.9315 155.862 -23.7442 155.752 -22.4695H88.1736V15.2291H-0.0125732V16.1061H89.0175L89.0513 -21.5925ZM160.845 -26.2684C161.966 -26.2673 163.04 -25.8234 163.835 -25.0336C164.629 -24.2437 165.079 -23.1719 165.085 -22.052C165.079 -20.9322 164.629 -19.8605 163.835 -19.0706C163.04 -18.2807 161.966 -17.8368 160.845 -17.8357C159.728 -17.8423 158.659 -18.2887 157.869 -19.078C157.079 -19.8673 156.632 -20.9358 156.625 -22.052C156.632 -23.1682 157.079 -24.2369 157.869 -25.0261C158.659 -25.8154 159.728 -26.2618 160.845 -26.2684Z" fill="white"/>
<path opacity="0.35" d="M62.2916 50.7352V50.3009H10.5276V51.1779H62.2916V50.7352Z" fill="white"/>
<path opacity="0.35" d="M374.572 9.09425H382.589H374.572ZM225.626 21.3681H228.238H225.626ZM413.049 9.09425H406.184H413.049ZM312.302 44.1618H307.107H312.302ZM420.29 65.6401V43.9299C420.954 43.6478 421.489 43.1291 421.793 42.4745C422.096 41.82 422.145 41.0763 421.93 40.3877C421.716 39.699 421.253 39.1146 420.631 38.7477C420.01 38.3809 419.274 38.2577 418.567 38.4022C417.86 38.5467 417.232 38.9485 416.805 39.5296C416.377 40.1108 416.181 40.8299 416.254 41.5474C416.327 42.2649 416.664 42.9297 417.2 43.4128C417.736 43.8959 418.433 44.1628 419.155 44.1618H419.412V64.7715H379.85V82.7501H309.529V45.0389H345.96V64.7883C344.685 64.8981 343.497 65.4817 342.632 66.4239C341.766 67.3662 341.285 68.5985 341.285 69.8775C341.286 71.2336 341.826 72.5338 342.785 73.4928C343.745 74.4517 345.046 74.9908 346.403 74.992C347.76 74.9897 349.06 74.4502 350.02 73.4915C350.979 72.5329 351.519 71.2332 351.521 69.8775C351.52 68.5974 351.037 67.3645 350.17 66.4223C349.303 65.4801 348.114 64.897 346.838 64.7883V45.0389H377.416V9.97124H409.64V9.09425H345.96V44.1618H297.614V102.656H257.504V61.4363H226.795V22.224H257.504V-2.7622H291.179C291.284 -2.0731 291.632 -1.4443 292.161 -0.98954C292.689 -0.534783 293.363 -0.284117 294.061 -0.282968C294.835 -0.2852 295.577 -0.594057 296.123 -1.14179C296.67 -1.68952 296.977 -2.43145 296.977 -3.20494C296.975 -3.97731 296.668 -4.71772 296.121 -5.26387C295.575 -5.81002 294.834 -6.11735 294.061 -6.11847C293.363 -6.11732 292.689 -5.86665 292.161 -5.4119C291.632 -4.95714 291.284 -4.32834 291.179 -3.63924H256.626V21.347H192.141V22.224H225.896V62.2796H256.605V102.622H233.791V171.614H234.668V103.533H256.609V152.443H257.487V103.533H298.474V45.0389H308.639V83.6187H379.85V109.039H387.104V171.614H387.981V109.039H419.412C419.568 128.047 419.703 156.36 419.412 157.595L420.256 157.797C420.678 156.01 420.281 110.532 420.256 108.601V108.179H387.981V82.7585H380.728V65.6569L420.29 65.6401ZM419.155 43.2933C418.752 43.2924 418.358 43.1723 418.023 42.948C417.689 42.7237 417.428 42.4053 417.275 42.0331C417.121 41.6609 417.081 41.2516 417.16 40.8569C417.24 40.4621 417.434 40.0996 417.719 39.8152C418.004 39.5308 418.367 39.3373 418.763 39.259C419.158 39.1808 419.567 39.2214 419.94 39.3757C420.312 39.5299 420.63 39.7909 420.854 40.1257C421.077 40.4605 421.197 40.8541 421.197 41.2567C421.193 41.7972 420.976 42.3144 420.591 42.6946C420.207 43.0748 419.687 43.2871 419.146 43.2848L419.155 43.2933ZM346.846 9.9839H376.547V44.1745H346.846V9.9839ZM346.424 65.6401C347.544 65.6423 348.619 66.0865 349.413 66.8762C350.207 67.6658 350.657 68.7369 350.665 69.8564C350.658 70.9763 350.208 72.048 349.414 72.8379C348.62 73.6278 347.545 74.0717 346.424 74.0728C345.307 74.0673 344.237 73.6213 343.447 72.8317C342.657 72.0422 342.21 70.973 342.205 69.8564C342.211 68.7439 342.655 67.6784 343.44 66.8897C344.226 66.101 345.29 65.6522 346.403 65.6401H346.424ZM294.103 -5.22038C294.643 -5.21927 295.161 -5.00434 295.543 -4.62266C295.925 -4.24099 296.14 -3.72361 296.141 -3.18384C296.141 -2.64333 295.927 -2.12492 295.544 -1.74233C295.162 -1.35974 294.644 -1.14424 294.103 -1.14313C293.562 -1.14424 293.044 -1.35974 292.662 -1.74233C292.28 -2.12492 292.065 -2.64333 292.065 -3.18384C292.065 -3.71673 292.274 -4.22845 292.647 -4.60918C293.02 -4.98991 293.528 -5.20935 294.061 -5.22038H294.103ZM387.146 83.6187V108.162H380.728V83.6187H387.146ZM308.42 44.1618H310.179H308.42Z" fill="white"/>
<path opacity="0.35" d="M489.121 -0.607605H488.244V34.519H456.661V64.7673H434.539C434.515 63.5418 434.019 62.3728 433.154 61.5031C432.29 60.6335 431.123 60.1302 429.897 60.0979C428.671 60.0656 427.48 60.5068 426.571 61.3297C425.662 62.1526 425.105 63.2939 425.016 64.5164C424.927 65.7389 425.314 66.9486 426.095 67.8938C426.875 68.8391 427.991 69.4473 429.209 69.592C430.427 69.7367 431.654 69.4067 432.635 68.6707C433.615 67.9347 434.275 66.8493 434.475 65.6401H457.539V35.396H489.121V-0.607605ZM429.775 68.7349C429.005 68.7349 428.252 68.5067 427.611 68.079C426.971 67.6514 426.472 67.0436 426.177 66.3325C425.882 65.6214 425.805 64.8389 425.955 64.084C426.105 63.3291 426.476 62.6356 427.021 62.0913C427.566 61.5471 428.26 61.1764 429.015 61.0263C429.771 60.8761 430.554 60.9531 431.265 61.2477C431.977 61.5423 432.585 62.0411 433.013 62.6811C433.441 63.3211 433.669 64.0735 433.669 64.8432C433.668 65.875 433.258 66.8642 432.528 67.5938C431.797 68.3234 430.807 68.7338 429.775 68.7349Z" fill="white"/>
<path opacity="0.35" d="M439.117 31.8584H396.842V32.2969V32.7354H439.994V9.31348H439.551H439.117V31.8584Z" fill="white"/>
<path opacity="0.35" d="M522.463 119.331H502.809C502.594 107.281 502.32 97.3177 502.29 96.3057V95.8841H461.826V84.0487H460.948V96.7611H501.455C501.51 98.8398 501.758 108.196 501.957 119.336H473.332V157.705H474.206V120.217H501.931C502.256 138.668 502.434 161.537 501.429 164.573L502.273 164.851C503.324 161.697 503.151 138.71 502.83 120.217H523.354V78.2892H522.476L522.463 119.331Z" fill="white"/>
<path opacity="0.35" d="M559.312 65.6401H620.725V-30.3794C622.04 -30.4924 623.26 -31.1084 624.131 -32.0987C625.002 -33.0891 625.457 -34.3773 625.4 -35.6945C625.343 -37.0117 624.78 -38.2562 623.827 -39.1683C622.874 -40.0804 621.606 -40.5895 620.287 -40.5895C618.967 -40.5895 617.699 -40.0804 616.746 -39.1683C615.793 -38.2562 615.23 -37.0117 615.173 -35.6945C615.117 -34.3773 615.571 -33.0891 616.442 -32.0987C617.313 -31.1084 618.533 -30.4924 619.848 -30.3794V64.7672H558.434V102.656H547.041V35.396H510.181V-22.0057C511.081 -22.1173 511.905 -22.568 512.485 -23.2658C513.065 -23.9635 513.356 -24.8559 513.3 -25.7611C513.244 -26.6663 512.845 -27.516 512.184 -28.1372C511.523 -28.7584 510.649 -29.1043 509.742 -29.1043C508.834 -29.1043 507.961 -28.7584 507.3 -28.1372C506.638 -27.516 506.239 -26.6663 506.183 -25.7611C506.127 -24.8559 506.419 -23.9635 506.998 -23.2658C507.578 -22.568 508.402 -22.1173 509.303 -22.0057V36.2688H546.151V103.528H558.434V157.7H559.312V103.533H581.253V125.205H572.033V126.078H581.244V157.7H582.134V102.656H559.312V65.6401ZM616.046 -35.4728C616.046 -36.3118 616.295 -37.1319 616.762 -37.8292C617.229 -38.5265 617.893 -39.0696 618.669 -39.3897C619.445 -39.7098 620.299 -39.7924 621.122 -39.6272C621.945 -39.462 622.7 -39.0563 623.293 -38.4616C623.885 -37.8668 624.287 -37.1099 624.448 -36.2865C624.609 -35.4631 624.522 -34.6105 624.198 -33.8365C623.874 -33.0626 623.327 -32.4023 622.627 -31.9392C621.927 -31.4761 621.105 -31.2312 620.265 -31.2353C619.145 -31.242 618.072 -31.6913 617.282 -32.4851C616.491 -33.2789 616.047 -34.3529 616.046 -35.4728Z" fill="white"/>
<path opacity="0.35" d="M532.113 129.202H531.235V152.434H532.113V129.202Z" fill="white"/>
<path opacity="0.35" d="M238.93 83.4036C240.287 83.4025 241.588 82.8633 242.548 81.9044C243.507 80.9455 244.047 79.6453 244.048 78.2892C244.046 76.9338 243.506 75.6346 242.546 74.6766C241.587 73.7186 240.286 73.18 238.93 73.1789C237.65 73.1795 236.417 73.6596 235.474 74.5246C234.531 75.3895 233.947 76.5763 233.837 77.8506H215.39V95.8883H197.841V50.3009H156.604V10.2453C157.88 10.1347 159.069 9.5503 159.935 8.60749C160.801 7.66468 161.282 6.4318 161.284 5.15194C161.283 3.79584 160.743 2.49563 159.783 1.53673C158.824 0.577822 157.523 0.0385922 156.166 0.0374756C154.809 0.0385932 153.508 0.577959 152.549 1.53698C151.59 2.49601 151.052 3.79623 151.052 5.15194C151.052 6.43141 151.532 7.66427 152.398 8.60718C153.263 9.55009 154.451 10.1346 155.727 10.2453V51.1821H196.963V95.8756H176.786V96.7526H196.963V164.699H197.841V96.7653H216.267V78.7276H233.837C233.947 80.0023 234.531 81.1897 235.473 82.0553C236.416 82.9209 237.649 83.402 238.93 83.4036ZM151.925 5.14772C151.932 4.02787 152.381 2.95613 153.176 2.16625C153.97 1.37636 155.045 0.932438 156.166 0.931344C157.287 0.93243 158.362 1.37623 159.157 2.16599C159.952 2.95576 160.403 4.02749 160.41 5.14772C160.403 6.26794 159.952 7.33973 159.157 8.12949C158.362 8.91926 157.287 9.363 156.166 9.36409C155.045 9.363 153.97 8.91912 153.176 8.12924C152.381 7.33935 151.932 6.26756 151.925 5.14772ZM238.93 74.0559C240.051 74.0559 241.126 74.4995 241.921 75.2896C242.715 76.0797 243.165 77.1521 243.17 78.2723C243.164 79.3921 242.714 80.4639 241.92 81.2537C241.125 82.0436 240.05 82.4876 238.93 82.4887C237.809 82.4876 236.734 82.0436 235.94 81.2537C235.146 80.4639 234.696 79.3921 234.689 78.2723C234.695 77.1521 235.144 76.0797 235.939 75.2896C236.733 74.4995 237.809 74.0559 238.93 74.0559Z" fill="white"/>
<path opacity="0.35" d="M238.93 80.6673C239.56 80.6662 240.164 80.4151 240.61 79.9692C241.055 79.5234 241.305 78.9192 241.305 78.2892C241.304 77.6599 241.054 77.0567 240.608 76.6118C240.163 76.1668 239.559 75.9164 238.93 75.9153C238.3 75.9164 237.696 76.1668 237.251 76.6118C236.806 77.0567 236.555 77.6599 236.554 78.2892C236.554 78.9192 236.804 79.5234 237.25 79.9692C237.695 80.4151 238.299 80.6662 238.93 80.6673ZM238.93 76.7923C239.327 76.7934 239.708 76.9514 239.989 77.2317C240.271 77.5121 240.43 77.8921 240.432 78.2892C240.431 78.6869 240.272 79.0681 239.991 79.3494C239.709 79.6306 239.328 79.7891 238.93 79.7902C238.532 79.7891 238.151 79.6305 237.87 79.3491C237.59 79.0677 237.432 78.6866 237.432 78.2892C237.433 77.8925 237.591 77.5124 237.872 77.232C238.152 76.9515 238.533 76.7934 238.93 76.7923Z" fill="white"/>
<path opacity="0.35" d="M522.902 67.9169C521.89 67.9169 520.9 68.2168 520.059 68.7788C519.217 69.3408 518.561 70.1396 518.174 71.0741C517.786 72.0087 517.685 73.037 517.882 74.0291C518.08 75.0212 518.567 75.9326 519.283 76.6478C519.999 77.3631 520.911 77.8502 521.904 78.0475C522.896 78.2449 523.926 78.1436 524.861 77.7565C525.796 77.3694 526.595 76.7139 527.158 75.8728C527.72 75.0317 528.02 74.0429 528.02 73.0313C528.019 71.6752 527.48 70.375 526.52 69.4161C525.56 68.4572 524.259 67.918 522.902 67.9169ZM522.902 77.2688C522.068 77.2646 521.255 77.0138 520.564 76.548C519.873 76.0821 519.335 75.4222 519.019 74.6514C518.703 73.8806 518.622 73.0335 518.787 72.217C518.953 71.4005 519.356 70.6512 519.947 70.0636C520.538 69.4761 521.29 69.0765 522.108 68.9155C522.926 68.7545 523.773 68.8393 524.543 69.159C525.313 69.4788 525.97 70.0192 526.433 70.7121C526.896 71.4051 527.143 72.2194 527.143 73.0524C527.136 74.1723 526.686 75.244 525.892 76.0339C525.098 76.8238 524.023 77.2677 522.902 77.2688Z" fill="white"/>
<path opacity="0.35" d="M522.902 70.6575C522.432 70.6575 521.973 70.7967 521.582 71.0576C521.192 71.3184 520.887 71.6892 520.707 72.1229C520.528 72.5567 520.481 73.034 520.572 73.4944C520.664 73.9549 520.89 74.3779 521.222 74.7099C521.555 75.0419 521.978 75.2679 522.439 75.3595C522.899 75.4511 523.377 75.4041 523.811 75.2245C524.245 75.0448 524.616 74.7405 524.877 74.3502C525.138 73.9598 525.278 73.5008 525.278 73.0313C525.278 72.4017 525.027 71.798 524.582 71.3528C524.136 70.9076 523.532 70.6575 522.902 70.6575ZM522.902 74.5281C522.606 74.5281 522.316 74.4404 522.07 74.2759C521.824 74.1114 521.632 73.8777 521.518 73.6042C521.405 73.3307 521.375 73.0297 521.433 72.7393C521.491 72.449 521.633 72.1823 521.843 71.9729C522.052 71.7636 522.319 71.621 522.61 71.5633C522.9 71.5055 523.202 71.5352 523.475 71.6485C523.749 71.7618 523.983 71.9536 524.148 72.1998C524.312 72.4459 524.4 72.7353 524.4 73.0313C524.4 73.2279 524.361 73.4226 524.286 73.6042C524.211 73.7858 524.1 73.9507 523.961 74.0897C523.822 74.2287 523.657 74.339 523.475 74.4142C523.294 74.4894 523.099 74.5281 522.902 74.5281Z" fill="white"/>
<path opacity="0.35" d="M600.987 5.06763C601.999 5.06763 602.989 4.76765 603.83 4.20567C604.672 3.64368 605.328 2.84494 605.715 1.91039C606.103 0.975845 606.204 -0.0525141 606.007 -1.04462C605.809 -2.03673 605.322 -2.94801 604.606 -3.66328C603.89 -4.37855 602.978 -4.8657 601.985 -5.06305C600.993 -5.26039 599.963 -5.15909 599.028 -4.77199C598.093 -4.38488 597.294 -3.72933 596.731 -2.88826C596.169 -2.04719 595.869 -1.05838 595.869 -0.0468369C595.871 1.30892 596.411 2.60853 597.37 3.56719C598.33 4.52586 599.63 5.0654 600.987 5.06763ZM600.987 -4.28431C601.82 -4.28014 602.632 -4.02982 603.323 -3.56493C604.014 -3.10003 604.551 -2.4413 604.868 -1.67173C605.185 -0.902152 605.267 -0.0561352 605.103 0.759792C604.94 1.57572 604.538 2.32508 603.949 2.91348C603.361 3.50188 602.611 3.90298 601.794 4.06634C600.978 4.2297 600.131 4.148 599.361 3.83149C598.591 3.51498 597.931 2.9778 597.466 2.28766C597.001 1.59752 596.75 0.785273 596.746 -0.0468369C596.75 -1.16887 597.198 -2.24388 597.993 -3.03649C598.787 -3.8291 599.864 -4.27476 600.987 -4.27587V-4.28431Z" fill="white"/>
<path opacity="0.35" d="M600.987 2.33551C601.457 2.33468 601.915 2.19472 602.306 1.93337C602.696 1.67202 602.999 1.301 603.179 0.867161C603.358 0.433321 603.404 -0.0438564 603.312 -0.504063C603.22 -0.96427 602.993 -1.38684 602.661 -1.71841C602.329 -2.04998 601.905 -2.27568 601.445 -2.36693C600.984 -2.45819 600.506 -2.4109 600.073 -2.2311C599.639 -2.05131 599.268 -1.74706 599.007 -1.35677C598.746 -0.966486 598.607 -0.507685 598.607 -0.0383584C598.608 0.591618 598.859 1.19539 599.306 1.64045C599.752 2.08552 600.356 2.33551 600.987 2.33551ZM600.987 -1.53944C601.284 -1.53944 601.574 -1.4514 601.821 -1.28647C602.068 -1.12153 602.261 -0.887103 602.375 -0.61282C602.488 -0.338537 602.518 -0.0367203 602.46 0.254457C602.402 0.545634 602.259 0.813138 602.049 1.02307C601.839 1.23299 601.571 1.37593 601.28 1.43385C600.989 1.49177 600.686 1.46202 600.412 1.34841C600.138 1.2348 599.903 1.04241 599.738 0.795566C599.573 0.548718 599.485 0.258523 599.485 -0.0383584C599.486 -0.436122 599.644 -0.817285 599.926 -1.09855C600.207 -1.37981 600.589 -1.53833 600.987 -1.53944Z" fill="white"/>
<path opacity="0.35" d="M359.095 93.3036C357.738 93.3047 356.437 93.8439 355.477 94.8028C354.518 95.7617 353.978 97.062 353.977 98.4181C353.98 99.6972 354.461 100.929 355.327 101.871C356.193 102.813 357.381 103.397 358.656 103.507V116.296H308.652V176.986H309.529V117.173H359.534V103.507C360.81 103.398 361.998 102.814 362.864 101.872C363.73 100.93 364.212 99.6975 364.213 98.4181C364.212 97.062 363.673 95.7617 362.713 94.8028C361.753 93.8439 360.452 93.3047 359.095 93.3036ZM359.095 102.655C357.974 102.654 356.9 102.211 356.105 101.421C355.311 100.631 354.861 99.559 354.855 98.4391C354.856 97.3156 355.303 96.2385 356.098 95.4441C356.893 94.6496 357.971 94.2028 359.095 94.2017C360.216 94.2084 361.288 94.6576 362.079 95.4515C362.869 96.2453 363.313 97.3192 363.315 98.4391C363.308 99.5553 362.861 100.624 362.071 101.413C361.282 102.203 360.212 102.649 359.095 102.655Z" fill="white"/>
<path opacity="0.35" d="M359.095 96.0443C358.465 96.0454 357.862 96.2958 357.417 96.7407C356.971 97.1857 356.721 97.7889 356.72 98.4181C356.724 99.0452 356.976 99.6451 357.421 100.087C357.866 100.529 358.468 100.778 359.095 100.779C359.72 100.775 360.319 100.525 360.761 100.083C361.203 99.641 361.454 99.043 361.458 98.4181C361.457 97.791 361.208 97.1898 360.765 96.7452C360.323 96.3006 359.723 96.0487 359.095 96.0443ZM359.095 99.9149C358.698 99.9149 358.317 99.7572 358.036 99.4765C357.755 99.1958 357.597 98.8151 357.597 98.4181C357.597 98.0211 357.755 97.6404 358.036 97.3597C358.317 97.079 358.698 96.9213 359.095 96.9213C359.293 96.919 359.49 96.9561 359.674 97.0303C359.858 97.1044 360.025 97.2142 360.167 97.3534C360.308 97.4926 360.42 97.6583 360.497 97.841C360.574 98.0238 360.614 98.2199 360.614 98.4181C360.616 98.6181 360.579 98.8164 360.503 99.0016C360.428 99.1868 360.316 99.3551 360.174 99.4965C360.033 99.6379 359.864 99.7496 359.679 99.8251C359.494 99.9006 359.295 99.9383 359.095 99.936V99.9149Z" fill="white"/>
<path opacity="0.35" d="M567.367 38.1704C568.724 38.1693 570.025 37.63 570.984 36.6711C571.944 35.7122 572.484 34.412 572.485 33.0559C572.485 32.9505 572.485 32.8451 572.485 32.7355H601.451V5.14771H600.578V31.8585H572.324C572.096 30.9275 571.611 30.0793 570.924 29.4108C570.237 28.7423 569.375 28.2804 568.437 28.0779C567.5 27.8754 566.524 27.9404 565.622 28.2655C564.72 28.5906 563.927 29.1627 563.335 29.9165C562.743 30.6703 562.374 31.5753 562.272 32.5283C562.17 33.4813 562.338 34.4438 562.757 35.3059C563.176 36.1679 563.829 36.8949 564.642 37.4036C565.455 37.9124 566.395 38.1825 567.354 38.183L567.367 38.1704ZM567.367 28.8184C568.205 28.8184 569.025 29.067 569.722 29.5326C570.42 29.9982 570.963 30.66 571.284 31.4343C571.605 32.2086 571.689 33.0606 571.526 33.8826C571.362 34.7046 570.958 35.4596 570.365 36.0523C569.772 36.6449 569.016 37.0485 568.194 37.212C567.371 37.3755 566.519 37.2916 565.744 36.9708C564.969 36.6501 564.307 36.107 563.841 35.4101C563.375 34.7133 563.126 33.894 563.126 33.0559C563.127 31.9324 563.574 30.8552 564.369 30.0608C565.164 29.2664 566.242 28.8196 567.367 28.8184Z" fill="white"/>
<path opacity="0.35" d="M413.315 84.209C412.758 84.2087 412.212 84.3679 411.743 84.6677C411.274 84.9676 410.9 85.3955 410.666 85.9009C410.433 86.4062 410.349 86.9679 410.425 87.5193C410.501 88.0708 410.733 88.5891 411.095 89.0127C411.456 89.4363 411.931 89.7476 412.464 89.9097C412.997 90.0719 413.565 90.078 414.102 89.9275C414.638 89.777 415.12 89.4761 415.49 89.0605C415.861 88.6448 416.105 88.1318 416.192 87.5821H442.623V152.459H443.501V86.684H416.197C416.091 85.9957 415.742 85.3679 415.214 84.914C414.685 84.4601 414.012 84.21 413.315 84.209ZM413.315 89.159C412.911 89.1598 412.515 89.0408 412.179 88.8169C411.842 88.593 411.58 88.2743 411.425 87.9012C411.27 87.5281 411.229 87.1175 411.307 86.7212C411.386 86.3249 411.581 85.9609 411.867 85.6753C412.152 85.3896 412.517 85.1952 412.913 85.1166C413.31 85.038 413.721 85.0788 414.094 85.2337C414.467 85.3887 414.786 85.6509 415.01 85.9871C415.234 86.3234 415.354 86.7185 415.353 87.1225C415.352 87.6623 415.137 88.1797 414.755 88.5613C414.373 88.943 413.855 89.1579 413.315 89.159Z" fill="white"/>
<path opacity="0.35" d="M171.081 118.931C170.308 118.932 169.567 119.239 169.021 119.785C168.474 120.331 168.167 121.072 168.166 121.844C168.167 122.54 168.417 123.213 168.871 123.74C169.326 124.268 169.954 124.615 170.642 124.72V157.7H171.52V124.724C172.209 124.619 172.837 124.272 173.291 123.744C173.745 123.217 173.996 122.544 173.997 121.848C173.997 121.075 173.69 120.334 173.143 119.787C172.597 119.24 171.855 118.932 171.081 118.931ZM171.081 123.881C170.545 123.878 170.032 123.664 169.653 123.286C169.273 122.908 169.057 122.397 169.052 121.861C169.052 121.321 169.266 120.803 169.649 120.421C170.031 120.039 170.549 119.825 171.09 119.825C171.63 119.825 172.149 120.039 172.531 120.421C172.913 120.803 173.128 121.321 173.128 121.861C173.123 122.4 172.905 122.915 172.522 123.293C172.138 123.672 171.62 123.883 171.081 123.881Z" fill="white"/>
<path opacity="0.35" d="M531.674 119.707C530.749 119.707 529.845 119.981 529.076 120.494C528.306 121.007 527.706 121.737 527.352 122.591C526.998 123.445 526.904 124.385 527.084 125.292C527.264 126.198 527.709 127.032 528.363 127.686C529.016 128.34 529.849 128.786 530.756 128.968C531.663 129.149 532.604 129.058 533.459 128.705C534.314 128.352 535.046 127.754 535.561 126.986C536.076 126.219 536.352 125.315 536.354 124.391C536.355 123.776 536.235 123.167 536 122.599C535.765 122.031 535.421 121.514 534.986 121.079C534.551 120.644 534.035 120.299 533.467 120.063C532.899 119.828 532.29 119.707 531.674 119.707Z" fill="white"/>
<path opacity="0.35" d="M439.551 9.31347C440.477 9.31431 441.383 9.04059 442.153 8.52692C442.923 8.01325 443.524 7.28278 443.878 6.42795C444.233 5.57311 444.326 4.63233 444.145 3.72478C443.964 2.81722 443.518 1.98368 442.863 1.32965C442.208 0.675622 441.373 0.230552 440.465 0.0507402C439.556 -0.129071 438.615 -0.0355167 437.76 0.319565C436.905 0.674646 436.174 1.27528 435.661 2.04544C435.148 2.81559 434.875 3.72062 434.876 4.64598C434.878 5.88392 435.372 7.07045 436.248 7.94542C437.125 8.82039 438.313 9.31236 439.551 9.31347Z" fill="white"/>
<path opacity="0.35" d="M410.855 12.3409C411.454 12.3409 412.04 12.1633 412.538 11.8307C413.036 11.498 413.425 11.0252 413.654 10.472C413.883 9.91884 413.943 9.31018 413.826 8.72292C413.709 8.13567 413.421 7.5962 412.997 7.17281C412.573 6.74943 412.034 6.46112 411.446 6.34431C410.858 6.22749 410.249 6.28744 409.696 6.51657C409.142 6.74571 408.669 7.13376 408.336 7.63161C408.003 8.12946 407.825 8.71473 407.825 9.31349C407.826 10.1161 408.146 10.8855 408.714 11.453C409.282 12.0205 410.052 12.3398 410.855 12.3409Z" fill="white"/>
<path opacity="0.35" d="M464.927 80.4944C464.928 79.7893 464.719 79.0999 464.328 78.5133C463.936 77.9268 463.38 77.4695 462.728 77.1993C462.076 76.9291 461.359 76.8582 460.667 76.9955C459.975 77.1328 459.339 77.4722 458.84 77.9708C458.342 78.4693 458.002 79.1045 457.864 79.7961C457.727 80.4876 457.798 81.2043 458.068 81.8556C458.339 82.5068 458.796 83.0632 459.383 83.4543C459.97 83.8455 460.66 84.0539 461.366 84.053C462.31 84.053 463.216 83.6781 463.884 83.0108C464.552 82.3434 464.927 81.4382 464.927 80.4944Z" fill="white"/>
<path opacity="0.35" d="M667.662 97.149C666.793 97.1488 665.954 97.4665 665.304 98.0421C664.653 98.6177 664.236 99.4114 664.131 100.273H644.413V65.4039C645.313 65.2923 646.136 64.8422 646.715 64.1452C647.294 63.4482 647.585 62.5569 647.529 61.6528C647.473 60.7488 647.074 59.9001 646.414 59.2797C645.753 58.6593 644.881 58.3138 643.974 58.3138C643.068 58.3138 642.196 58.6593 641.535 59.2797C640.875 59.9001 640.476 60.7488 640.42 61.6528C640.364 62.5569 640.655 63.4482 641.234 64.1452C641.813 64.8422 642.636 65.2923 643.536 65.4039V100.273H608.443V157.7H609.32V101.15H643.536V120.217H665.477V164.712H666.354V119.331H644.413V101.142H664.131C664.216 101.822 664.496 102.462 664.937 102.987C665.377 103.512 665.96 103.898 666.615 104.1C667.27 104.302 667.97 104.31 668.63 104.125C669.289 103.939 669.882 103.567 670.335 103.053C670.789 102.539 671.084 101.906 671.186 101.228C671.288 100.551 671.192 99.8585 670.91 99.2342C670.628 98.6099 670.171 98.0803 669.595 97.7089C669.019 97.3375 668.348 97.1402 667.662 97.1405V97.149Z" fill="white"/>
<path opacity="0.35" d="M393.277 28.7384C392.809 28.7379 392.345 28.8295 391.913 29.0081C391.48 29.1866 391.087 29.4487 390.756 29.7792C390.425 30.1097 390.162 30.5022 389.983 30.9342C389.804 31.3662 389.711 31.8293 389.711 32.297C389.711 33.2419 390.087 34.1481 390.756 34.8163C391.424 35.4844 392.331 35.8598 393.277 35.8598C393.745 35.8598 394.208 35.7676 394.641 35.5885C395.073 35.4094 395.466 35.1469 395.796 34.816C396.127 34.4851 396.389 34.0923 396.568 33.6601C396.747 33.2278 396.839 32.7646 396.838 32.297C396.838 31.3532 396.463 30.4481 395.795 29.7807C395.127 29.1133 394.221 28.7384 393.277 28.7384Z" fill="white"/>
<path opacity="0.35" d="M188.575 18.2438C187.629 18.2438 186.723 18.6192 186.054 19.2873C185.385 19.9555 185.01 20.8617 185.01 21.8066C185.01 22.2743 185.102 22.7374 185.281 23.1694C185.46 23.6015 185.723 23.994 186.054 24.3245C186.385 24.655 186.778 24.917 187.211 25.0956C187.644 25.2742 188.107 25.3658 188.575 25.3653C189.52 25.3653 190.426 24.9905 191.095 24.3232C191.763 23.656 192.139 22.7508 192.14 21.8066C192.14 20.8617 191.765 19.9555 191.096 19.2873C190.428 18.6192 189.521 18.2438 188.575 18.2438Z" fill="white"/>
<path opacity="0.35" d="M568.468 122.08C567.763 122.08 567.073 122.289 566.487 122.681C565.901 123.072 565.444 123.629 565.174 124.28C564.904 124.931 564.833 125.647 564.971 126.338C565.108 127.03 565.448 127.664 565.947 128.163C566.445 128.661 567.081 129 567.772 129.138C568.464 129.275 569.181 129.205 569.832 128.935C570.484 128.665 571.041 128.209 571.432 127.623C571.824 127.037 572.033 126.348 572.033 125.643C572.034 125.175 571.942 124.712 571.763 124.279C571.584 123.847 571.321 123.454 570.99 123.123C570.659 122.792 570.266 122.529 569.833 122.351C569.4 122.172 568.936 122.08 568.468 122.08Z" fill="white"/>
<path opacity="0.35" d="M136.79 74.3342C136.791 75.0518 137.077 75.7396 137.585 76.247C138.092 76.7544 138.781 77.0399 139.499 77.041C140.217 77.0399 140.904 76.7542 141.412 76.2467C141.919 75.7392 142.203 75.0514 142.203 74.3342C142.203 73.6174 141.918 72.93 141.411 72.4232C140.904 71.9163 140.216 71.6316 139.499 71.6316C138.781 71.6316 138.093 71.9162 137.585 72.4229C137.077 72.9296 136.791 73.6171 136.79 74.3342Z" fill="white"/>
<path opacity="0.35" d="M64.9963 53.4421C65.3518 53.4421 65.7039 53.372 66.0323 53.2359C66.3607 53.0999 66.6591 52.9004 66.9103 52.649C67.1615 52.3976 67.3606 52.0992 67.4963 51.7708C67.632 51.4424 67.7015 51.0905 67.7009 50.7352C67.7009 50.0184 67.416 49.3309 66.9088 48.8241C66.4015 48.3172 65.7136 48.0325 64.9963 48.0325C64.279 48.0325 63.591 48.3172 63.0838 48.8241C62.5766 49.3309 62.2916 50.0184 62.2916 50.7352C62.2911 51.0905 62.3606 51.4424 62.4963 51.7708C62.632 52.0992 62.8311 52.3976 63.0823 52.649C63.3335 52.9004 63.6319 53.0999 63.9603 53.2359C64.2887 53.372 64.6408 53.4421 64.9963 53.4421Z" fill="white"/>
<path opacity="0.35" d="M172.765 92.3086C171.698 92.3086 170.676 92.7319 169.921 93.4855C169.167 94.2391 168.744 95.2611 168.744 96.3268C168.743 96.8546 168.847 97.3774 169.049 97.8652C169.25 98.3529 169.547 98.7961 169.92 99.1694C170.294 99.5426 170.737 99.8385 171.225 100.04C171.713 100.242 172.237 100.346 172.765 100.345C173.831 100.345 174.854 99.9217 175.608 99.1681C176.362 98.4146 176.786 97.3925 176.786 96.3268C176.786 95.2611 176.362 94.2391 175.608 93.4855C174.854 92.7319 173.831 92.3086 172.765 92.3086Z" fill="white"/>
<path opacity="0.35" d="M171.356 57.8524C171.354 56.7863 170.93 55.7643 170.175 55.0109C169.42 54.2574 168.397 53.8342 167.33 53.8342C166.264 53.8342 165.241 54.2576 164.487 55.0111C163.733 55.7647 163.309 56.7867 163.309 57.8524C163.309 58.9185 163.733 59.941 164.487 60.6952C165.241 61.4494 166.263 61.8737 167.33 61.8748C168.398 61.8748 169.422 61.451 170.177 60.6967C170.931 59.9423 171.356 58.9192 171.356 57.8524Z" fill="white"/>
<path opacity="0.35" d="M1138.37 62.3134H1169.08V22.2578H1202.83V21.3808H1169.08V-20.783C1170.26 -21.01 1171.3 -21.6819 1172 -22.6593C1172.7 -23.6367 1172.99 -24.8444 1172.82 -26.0319C1172.65 -27.2194 1172.02 -28.2953 1171.08 -29.0365C1170.14 -29.7776 1168.94 -30.1271 1167.75 -30.0123C1166.55 -29.8974 1165.45 -29.3272 1164.66 -28.4198C1163.88 -27.5125 1163.47 -26.3377 1163.53 -25.1394C1163.59 -23.9411 1164.11 -22.8112 1164.98 -21.9843C1165.85 -21.1574 1167 -20.697 1168.2 -20.6986V21.385H1138.37V-3.61809H1103.82C1103.71 -4.34437 1103.33 -5.0021 1102.75 -5.45951C1102.17 -5.91692 1101.45 -6.14026 1100.71 -6.08481C1099.98 -6.02937 1099.3 -5.69925 1098.8 -5.16053C1098.3 -4.62181 1098.02 -3.91427 1098.02 -3.17962C1098.02 -2.44497 1098.3 -1.73744 1098.8 -1.19872C1099.3 -0.659998 1099.98 -0.329823 1100.71 -0.27438C1101.45 -0.218937 1102.17 -0.442272 1102.75 -0.899681C1103.33 -1.35709 1103.71 -2.01482 1103.82 -2.7411H1137.49V22.2451H1168.21V61.4574H1137.5V102.677H1097.39V44.1618H1086.36V-25.4083C1087.26 -25.52 1088.08 -25.9706 1088.66 -26.6684C1089.24 -27.3661 1089.53 -28.2586 1089.48 -29.1638C1089.42 -30.0689 1089.02 -30.9187 1088.36 -31.5399C1087.7 -32.1611 1086.83 -32.5069 1085.92 -32.5069C1085.01 -32.5069 1084.14 -32.1611 1083.48 -31.5399C1082.81 -30.9187 1082.42 -30.0689 1082.36 -29.1638C1082.3 -28.2586 1082.59 -27.3661 1083.17 -26.6684C1083.75 -25.9706 1084.58 -25.52 1085.48 -25.4083V44.1618H1049.04V9.09429H1018.47V-14.6018C1019.78 -14.7148 1021 -15.3308 1021.88 -16.3211C1022.75 -17.3114 1023.2 -18.5996 1023.14 -19.9169C1023.09 -21.2341 1022.52 -22.4786 1021.57 -23.3906C1020.62 -24.3027 1019.35 -24.8119 1018.03 -24.8119C1016.71 -24.8119 1015.44 -24.3027 1014.49 -23.3906C1013.54 -22.4786 1012.97 -21.2341 1012.92 -19.9169C1012.86 -18.5996 1013.32 -17.3114 1014.19 -16.3211C1015.06 -15.3308 1016.28 -14.7148 1017.59 -14.6018V9.09429H986.246V-14.8801C986.973 -14.9906 987.631 -15.3715 988.089 -15.9464C988.547 -16.5212 988.77 -17.2477 988.715 -17.9802C988.659 -18.7128 988.329 -19.3973 987.79 -19.8968C987.251 -20.3963 986.543 -20.6739 985.808 -20.6739C985.072 -20.6739 984.364 -20.3963 983.825 -19.8968C983.286 -19.3973 982.956 -18.7128 982.9 -17.9802C982.845 -17.2477 983.068 -16.5212 983.526 -15.9464C983.984 -15.3715 984.642 -14.9906 985.369 -14.8801V9.97128H1017.58V45.0389H1048.15V64.7884C1046.84 64.9014 1045.62 65.5174 1044.75 66.5077C1043.88 67.498 1043.42 68.7862 1043.48 70.1035C1043.54 71.4207 1044.1 72.6652 1045.05 73.5772C1046.01 74.4893 1047.27 74.9985 1048.59 74.9985C1049.91 74.9985 1051.18 74.4893 1052.13 73.5772C1053.09 72.6652 1053.65 71.4207 1053.71 70.1035C1053.76 68.7862 1053.31 67.498 1052.44 66.5077C1051.57 65.5174 1050.35 64.9014 1049.03 64.7884V45.0389H1085.47V82.7375H1015.15V64.7673H975.588V44.1492C975.677 44.1492 975.761 44.1492 975.85 44.1492C976.571 44.1467 977.266 43.8765 977.8 43.391C978.333 42.9055 978.668 42.2393 978.737 41.5216C978.807 40.8039 978.608 40.0858 978.178 39.5066C977.748 38.9275 977.118 38.5285 976.411 38.3871C975.703 38.2457 974.968 38.3719 974.348 38.7413C973.729 39.1107 973.268 39.6969 973.056 40.3862C972.845 41.0755 972.897 41.8189 973.202 42.4721C973.508 43.1253 974.045 43.6419 974.711 43.9215V65.6274H1014.27V82.7248H1007.03V108.15H974.732V108.571C974.732 110.507 974.31 155.989 974.732 157.772L975.575 157.574C975.289 156.334 975.419 128.026 975.575 109.014H1007.03V171.614H1007.88V109.039H1015.13V83.6145H1086.36V45.0389H1096.52V103.533H1137.5V152.443H1138.38V103.533H1160.32V171.614H1161.2V102.656H1138.39L1138.37 62.3134ZM1100.93 -1.14308C1100.53 -1.14391 1100.14 -1.26406 1099.8 -1.48834C1099.47 -1.71262 1099.21 -2.03096 1099.06 -2.40315C1098.9 -2.77535 1098.86 -3.18472 1098.94 -3.57949C1099.02 -3.97425 1099.21 -4.33674 1099.5 -4.62113C1099.78 -4.90552 1100.15 -5.09902 1100.54 -5.17725C1100.94 -5.25549 1101.35 -5.21494 1101.72 -5.06067C1102.09 -4.90641 1102.41 -4.64537 1102.63 -4.31056C1102.86 -3.97575 1102.98 -3.58223 1102.98 -3.17962C1102.98 -2.63912 1102.76 -2.1211 1102.38 -1.7393C1101.99 -1.3575 1101.48 -1.14308 1100.93 -1.14308ZM1013.78 -19.6951C1013.78 -20.529 1014.03 -21.3442 1014.49 -22.0376C1014.95 -22.731 1015.61 -23.2714 1016.38 -23.5905C1017.15 -23.9097 1018 -23.9932 1018.82 -23.8305C1019.64 -23.6678 1020.39 -23.2662 1020.98 -22.6765C1021.57 -22.0869 1021.97 -21.3356 1022.14 -20.5177C1022.3 -19.6998 1022.22 -18.8521 1021.9 -18.0816C1021.58 -17.3112 1021.04 -16.6526 1020.34 -16.1893C1019.65 -15.726 1018.83 -15.4788 1018 -15.4788C1016.88 -15.4865 1015.81 -15.9328 1015.03 -16.721C1014.24 -17.5093 1013.79 -18.5762 1013.78 -19.6909L1013.78 -19.6951ZM983.757 -17.7598C983.756 -18.1638 983.875 -18.559 984.099 -18.8952C984.323 -19.2314 984.642 -19.4936 985.016 -19.6486C985.389 -19.8036 985.8 -19.8444 986.197 -19.7657C986.593 -19.6871 986.957 -19.4927 987.243 -19.207C987.529 -18.9214 987.724 -18.5574 987.802 -18.1611C987.881 -17.7649 987.84 -17.3542 987.685 -16.9811C987.53 -16.6081 987.268 -16.2894 986.931 -16.0655C986.595 -15.8415 986.199 -15.7225 985.795 -15.7233C985.255 -15.7233 984.737 -15.9373 984.355 -16.3183C983.973 -16.6993 983.758 -17.2162 983.757 -17.7556V-17.7598ZM1052.83 69.8733C1052.83 70.7072 1052.59 71.5224 1052.12 72.2158C1051.66 72.9092 1051 73.4496 1050.23 73.7688C1049.46 74.0879 1048.61 74.1713 1047.79 74.0087C1046.97 73.846 1046.22 73.4444 1045.63 72.8548C1045.04 72.2651 1044.64 71.5138 1044.48 70.6959C1044.31 69.878 1044.4 69.0302 1044.72 68.2598C1045.04 67.4893 1045.58 66.8308 1046.27 66.3675C1046.96 65.9042 1047.78 65.6569 1048.61 65.6569C1049.73 65.6647 1050.8 66.1119 1051.59 66.9019C1052.38 67.6919 1052.83 68.7609 1052.83 69.8775V69.8733ZM1018.46 44.1534V9.96284H1048.15V44.1534H1018.46ZM973.808 41.2399C973.807 40.8361 973.926 40.4411 974.15 40.105C974.374 39.7688 974.692 39.5066 975.065 39.3515C975.438 39.1964 975.849 39.1554 976.246 39.2337C976.642 39.3119 977.006 39.506 977.292 39.7912C977.578 40.0764 977.773 40.44 977.852 40.836C977.932 41.232 977.891 41.6425 977.737 42.0157C977.582 42.3888 977.321 42.7078 976.985 42.9322C976.649 43.1566 976.254 43.2764 975.85 43.2764C975.31 43.2764 974.793 43.0632 974.41 42.6832C974.028 42.3032 973.811 41.7874 973.808 41.2484V41.2399ZM1014.27 108.154H1007.88V83.606H1014.25L1014.27 108.154Z" fill="white"/>
<path opacity="0.35" d="M960.521 65.6399C960.727 66.8437 961.389 67.9217 962.37 68.6501C963.351 69.3784 964.575 69.701 965.788 69.5508C967.001 69.4006 968.109 68.7892 968.883 67.8436C969.656 66.898 970.035 65.6909 969.941 64.4733C969.847 63.2558 969.287 62.1213 968.377 61.3057C967.467 60.4901 966.278 60.056 965.057 60.0939C963.835 60.1317 962.675 60.6384 961.818 61.5088C960.961 62.3791 960.472 63.5461 960.453 64.7671H938.335V34.5189H906.752V-0.607605H905.875V35.396H937.457V65.6399H960.521ZM965.221 60.9682C965.992 60.9682 966.745 61.1965 967.385 61.6244C968.026 62.0522 968.525 62.6602 968.82 63.3716C969.114 64.083 969.191 64.8657 969.041 65.6207C968.89 66.3757 968.519 67.0691 967.974 67.6132C967.429 68.1573 966.734 68.5277 965.978 68.6774C965.223 68.827 964.439 68.7494 963.728 68.4542C963.016 68.159 962.408 67.6595 961.981 67.019C961.554 66.3784 961.326 65.6256 961.327 64.8557C961.328 63.8243 961.739 62.8355 962.469 62.1066C963.199 61.3777 964.189 60.9682 965.221 60.9682Z" fill="white"/>
<path opacity="0.35" d="M955.006 32.7354H998.158V32.2969V31.8584H955.883V9.31348H955.445H955.006V32.7354Z" fill="white"/>
<path opacity="0.35" d="M933.191 95.8883H892.723V96.3099C892.693 97.3219 892.419 107.272 892.204 119.336H872.541V78.2849H871.664V120.213H892.187C891.862 138.722 891.693 161.693 892.744 164.847L893.588 164.569C892.583 161.55 892.744 138.663 893.086 120.213H920.807V157.7H921.685V119.331H893.098C893.297 108.192 893.52 98.8355 893.6 96.7568H934.107V84.0445H933.191V95.8883Z" fill="white"/>
<path opacity="0.35" d="M751.46 65.4039C752.361 65.2922 753.185 64.8416 753.765 64.1438C754.345 63.446 754.636 62.5536 754.58 61.6484C754.524 60.7433 754.125 59.8935 753.464 59.2723C752.802 58.6511 751.929 58.3053 751.022 58.3053C750.114 58.3053 749.241 58.6511 748.579 59.2723C747.918 59.8935 747.519 60.7433 747.463 61.6484C747.407 62.5536 747.699 63.446 748.278 64.1438C748.858 64.8416 749.682 65.2922 750.583 65.4039V100.273H730.865C730.754 99.3744 730.303 98.5519 729.606 97.9734C728.908 97.3949 728.016 97.104 727.111 97.1599C726.207 97.2159 725.357 97.6144 724.737 98.2744C724.116 98.9343 723.77 99.806 723.77 100.712C723.77 101.618 724.116 102.489 724.737 103.149C725.357 103.809 726.207 104.208 727.111 104.264C728.016 104.32 728.908 104.029 729.606 103.45C730.303 102.872 730.754 102.049 730.865 101.15H750.583V119.331H728.642V164.704H729.519V120.217H751.46V101.15H785.676V157.7H786.553V100.273H751.46V65.4039Z" fill="white"/>
<path opacity="0.35" d="M885.693 -22.0057C886.594 -22.1173 887.418 -22.568 887.998 -23.2658C888.577 -23.9635 888.869 -24.8559 888.813 -25.7611C888.757 -26.6663 888.358 -27.516 887.697 -28.1372C887.035 -28.7584 886.162 -29.1043 885.254 -29.1043C884.347 -29.1043 883.473 -28.7584 882.812 -28.1372C882.151 -27.516 881.752 -26.6663 881.696 -25.7611C881.64 -24.8559 881.931 -23.9635 882.511 -23.2658C883.091 -22.568 883.915 -22.1173 884.816 -22.0057V35.396H847.959V102.656H836.566V64.7672H775.148V-30.3794C776.463 -30.4924 777.683 -31.1084 778.554 -32.0987C779.425 -33.0891 779.879 -34.3773 779.823 -35.6945C779.766 -37.0117 779.203 -38.2562 778.25 -39.1683C777.297 -40.0804 776.029 -40.5895 774.709 -40.5895C773.39 -40.5895 772.122 -40.0804 771.169 -39.1683C770.216 -38.2562 769.653 -37.0117 769.596 -35.6945C769.539 -34.3773 769.994 -33.0891 770.865 -32.0987C771.736 -31.1084 772.956 -30.4924 774.271 -30.3794V65.6401H835.684V102.656H812.874V157.7H813.752V126.078H822.963V125.201H813.752V103.528H835.693V157.7H836.566V103.533H848.849V36.2688H885.697L885.693 -22.0057ZM770.469 -35.4728C770.469 -36.3118 770.718 -37.1319 771.185 -37.8292C771.652 -38.5265 772.315 -39.0696 773.091 -39.3897C773.868 -39.7098 774.721 -39.7924 775.544 -39.6272C776.368 -39.462 777.123 -39.0563 777.715 -38.4616C778.308 -37.8668 778.71 -37.1099 778.871 -36.2865C779.032 -35.4631 778.945 -34.6105 778.621 -33.8365C778.297 -33.0626 777.75 -32.4023 777.05 -31.9392C776.35 -31.4761 775.528 -31.2312 774.688 -31.2353C773.568 -31.242 772.495 -31.6913 771.705 -32.4851C770.914 -33.2789 770.47 -34.3529 770.469 -35.4728Z" fill="white"/>
<path opacity="0.35" d="M863.761 129.202H862.883V152.434H863.761V129.202Z" fill="white"/>
<path opacity="0.35" d="M734.789 16.1061H751.46V-14.6018C752.775 -14.7148 753.995 -15.3308 754.866 -16.3211C755.737 -17.3115 756.192 -18.5997 756.135 -19.9169C756.078 -21.2341 755.515 -22.4786 754.562 -23.3907C753.609 -24.3027 752.341 -24.8119 751.021 -24.8119C749.702 -24.8119 748.434 -24.3027 747.481 -23.3907C746.528 -22.4786 745.965 -21.2341 745.908 -19.9169C745.851 -18.5997 746.306 -17.3115 747.177 -16.3211C748.048 -15.3308 749.268 -14.7148 750.583 -14.6018V15.2291H733.912V57.3128H661.084V15.2291H644.413V-14.6018C645.728 -14.7148 646.948 -15.3308 647.819 -16.3211C648.69 -17.3115 649.144 -18.5997 649.088 -19.9169C649.031 -21.2341 648.468 -22.4786 647.515 -23.3907C646.562 -24.3027 645.294 -24.8119 643.974 -24.8119C642.655 -24.8119 641.387 -24.3027 640.434 -23.3907C639.481 -22.4786 638.918 -21.2341 638.861 -19.9169C638.804 -18.5997 639.259 -17.3115 640.13 -16.3211C641.001 -15.3308 642.221 -14.7148 643.536 -14.6018V16.1061H660.194V58.194H734.789V16.1061ZM746.781 -19.6909C746.781 -20.5249 747.028 -21.3401 747.492 -22.0335C747.956 -22.7268 748.615 -23.2672 749.386 -23.5864C750.157 -23.9055 751.005 -23.989 751.824 -23.8263C752.642 -23.6636 753.394 -23.262 753.984 -22.6724C754.574 -22.0827 754.976 -21.3314 755.139 -20.5135C755.302 -19.6956 755.218 -18.8479 754.899 -18.0774C754.579 -17.307 754.038 -16.6484 753.345 -16.1851C752.651 -15.7218 751.835 -15.4746 751 -15.4746C749.883 -15.4812 748.814 -15.9276 748.024 -16.7169C747.234 -17.5062 746.788 -18.5747 746.781 -19.6909ZM639.734 -19.6909C639.734 -20.5249 639.981 -21.3401 640.445 -22.0335C640.909 -22.7268 641.568 -23.2672 642.339 -23.5864C643.11 -23.9055 643.958 -23.989 644.776 -23.8263C645.595 -23.6636 646.347 -23.262 646.937 -22.6724C647.527 -22.0827 647.929 -21.3314 648.092 -20.5135C648.254 -19.6956 648.171 -18.8479 647.852 -18.0774C647.532 -17.307 646.991 -16.6484 646.297 -16.1851C645.604 -15.7218 644.788 -15.4746 643.953 -15.4746C642.836 -15.4812 641.767 -15.9276 640.977 -16.7169C640.187 -17.5062 639.74 -18.5747 639.734 -19.6909Z" fill="white"/>
<path opacity="0.35" d="M794.448 31.8584V5.14771H793.57V32.7354H822.541C822.541 32.8451 822.541 32.9505 822.541 33.0559C822.534 34.3667 823.029 35.6305 823.924 36.5887C824.82 37.547 826.047 38.1272 827.356 38.2108C828.666 38.2944 829.957 37.8749 830.967 37.0383C831.977 36.2017 832.629 35.0112 832.789 33.7102C832.95 32.4092 832.607 31.0961 831.83 30.0395C831.054 28.9829 829.903 28.2626 828.613 28.0261C827.322 27.7895 825.99 28.0546 824.889 28.7669C823.788 29.4793 823.001 30.5853 822.689 31.8584H794.448ZM827.642 28.8184C828.481 28.8184 829.301 29.0669 829.998 29.5325C830.695 29.9982 831.239 30.66 831.56 31.4343C831.881 32.2086 831.965 33.0606 831.801 33.8826C831.638 34.7046 831.234 35.4596 830.641 36.0522C830.048 36.6448 829.292 37.0484 828.47 37.2119C827.647 37.3754 826.794 37.2915 826.019 36.9708C825.245 36.6501 824.582 36.1069 824.116 35.4101C823.65 34.7132 823.402 33.894 823.402 33.0559C823.403 31.9324 823.85 30.8552 824.645 30.0608C825.44 29.2663 826.518 28.8195 827.642 28.8184Z" fill="white"/>
<path opacity="0.35" d="M877.212 73.0313C877.212 72.0198 876.912 71.031 876.35 70.1899C875.787 69.3488 874.988 68.6933 874.053 68.3062C873.117 67.9191 872.088 67.8178 871.095 68.0151C870.103 68.2125 869.191 68.6996 868.475 69.4149C867.759 70.1301 867.272 71.0415 867.074 72.0336C866.877 73.0257 866.978 74.054 867.365 74.9886C867.753 75.9231 868.409 76.7219 869.251 77.2839C870.092 77.8459 871.082 78.1458 872.094 78.1458C873.451 78.1447 874.752 77.6055 875.712 76.6466C876.671 75.6877 877.211 74.3874 877.212 73.0313ZM867.853 73.0313C867.853 72.1974 868.101 71.3822 868.565 70.6888C869.028 69.9955 869.687 69.455 870.458 69.1359C871.229 68.8168 872.078 68.7333 872.896 68.896C873.715 69.0587 874.466 69.4602 875.056 70.0499C875.647 70.6396 876.048 71.3909 876.211 72.2088C876.374 73.0267 876.291 73.8745 875.971 74.6449C875.652 75.4153 875.111 76.0738 874.417 76.5371C873.723 77.0004 872.907 77.2477 872.073 77.2477C870.956 77.2411 869.887 76.7947 869.097 76.0054C868.307 75.2162 867.86 74.1475 867.853 73.0313Z" fill="white"/>
<path opacity="0.35" d="M874.47 73.0313C874.47 72.5618 874.33 72.1029 874.069 71.7125C873.808 71.3221 873.437 71.0179 873.003 70.8382C872.569 70.6585 872.091 70.6116 871.631 70.7032C871.17 70.7947 870.746 71.0208 870.414 71.3528C870.082 71.6848 869.856 72.1078 869.764 72.5683C869.672 73.0287 869.72 73.506 869.899 73.9398C870.079 74.3735 870.384 74.7443 870.774 75.0051C871.165 75.266 871.624 75.4052 872.094 75.4052C872.406 75.4052 872.715 75.3438 873.003 75.2245C873.291 75.1052 873.553 74.9303 873.774 74.7099C873.994 74.4895 874.169 74.2278 874.289 73.9398C874.408 73.6518 874.47 73.3431 874.47 73.0313ZM870.596 73.0313C870.596 72.7353 870.684 72.4459 870.849 72.1998C871.013 71.9536 871.247 71.7618 871.521 71.6485C871.794 71.5352 872.096 71.5056 872.386 71.5633C872.677 71.6211 872.944 71.7636 873.153 71.973C873.363 72.1823 873.505 72.449 873.563 72.7393C873.621 73.0297 873.591 73.3307 873.478 73.6042C873.365 73.8777 873.173 74.1114 872.926 74.2759C872.68 74.4404 872.39 74.5282 872.094 74.5282C871.697 74.5282 871.316 74.3705 871.035 74.0897C870.754 73.809 870.596 73.4283 870.596 73.0313Z" fill="white"/>
<path opacity="0.35" d="M794.009 5.06763C795.022 5.06679 796.011 4.76591 796.852 4.20304C797.694 3.64017 798.349 2.8406 798.736 1.90549C799.122 0.970377 799.222 -0.0582423 799.024 -1.05031C798.825 -2.04237 798.336 -2.95328 797.62 -3.66779C796.903 -4.3823 795.99 -4.86832 794.997 -5.06437C794.003 -5.26041 792.974 -5.15771 792.039 -4.76919C791.105 -4.38067 790.306 -3.72384 789.745 -2.88175C789.184 -2.03966 788.885 -1.05014 788.887 -0.038413C788.89 1.31696 789.431 2.61564 790.392 3.57285C791.352 4.53005 792.653 5.06763 794.009 5.06763ZM794.009 -4.28434C794.843 -4.28433 795.658 -4.03752 796.351 -3.57515C797.045 -3.11277 797.585 -2.45553 797.905 -1.68631C798.225 -0.917098 798.31 -0.0704088 798.149 0.74691C797.988 1.56423 797.588 2.31556 797 2.90606C796.412 3.49656 795.662 3.89978 794.845 4.06485C794.028 4.22991 793.18 4.14944 792.409 3.83354C791.638 3.51764 790.977 2.98047 790.511 2.28987C790.045 1.59926 789.794 0.786158 789.79 -0.0468545C789.793 -1.16526 790.238 -2.23709 791.028 -3.0291C791.819 -3.82112 792.89 -4.26924 794.009 -4.2759V-4.28434Z" fill="white"/>
<path opacity="0.35" d="M794.009 2.33551C794.479 2.33551 794.938 2.19627 795.329 1.93543C795.72 1.67459 796.024 1.30386 796.204 0.870095C796.384 0.436328 796.431 -0.0410039 796.339 -0.501489C796.247 -0.961974 796.021 -1.38497 795.689 -1.71696C795.357 -2.04895 794.933 -2.27503 794.473 -2.36662C794.012 -2.45822 793.534 -2.41119 793.1 -2.23151C792.666 -2.05184 792.295 -1.74762 792.034 -1.35724C791.773 -0.966856 791.634 -0.507864 791.634 -0.0383577C791.634 0.591231 791.884 1.19501 792.329 1.6402C792.775 2.08538 793.379 2.33551 794.009 2.33551ZM794.009 -1.53944C794.306 -1.54028 794.597 -1.45295 794.845 -1.28852C795.092 -1.12409 795.286 -0.88991 795.4 -0.615702C795.514 -0.341494 795.545 -0.0395703 795.487 0.251884C795.43 0.543338 795.287 0.811172 795.077 1.02152C794.867 1.23187 794.599 1.37528 794.308 1.43354C794.016 1.4918 793.714 1.46231 793.44 1.34882C793.165 1.23534 792.93 1.04297 792.765 0.79603C792.599 0.549091 792.511 0.258703 792.511 -0.0383577C792.511 -0.435734 792.669 -0.816906 792.95 -1.09829C793.23 -1.37967 793.611 -1.53833 794.009 -1.53944Z" fill="white"/>
<path opacity="0.35" d="M981.681 90.036C982.238 90.0355 982.783 89.8756 983.252 89.5752C983.721 89.2749 984.094 88.8467 984.327 88.3413C984.56 87.8358 984.643 87.2743 984.566 86.723C984.49 86.1718 984.257 85.6539 983.896 85.2307C983.534 84.8075 983.059 84.4966 982.526 84.3349C981.993 84.1731 981.425 84.1671 980.889 84.3178C980.353 84.4684 979.871 84.7693 979.501 85.1849C979.131 85.6005 978.887 86.1134 978.799 86.6629H951.495V152.438H952.373V87.561H978.799C978.905 88.2493 979.254 88.8772 979.782 89.3311C980.311 89.785 980.984 90.035 981.681 90.036ZM981.681 85.0818C982.085 85.0809 982.48 85.1999 982.817 85.4236C983.153 85.6474 983.416 85.9658 983.571 86.3386C983.726 86.7114 983.767 87.1219 983.689 87.518C983.61 87.9142 983.416 88.2782 983.131 88.564C982.845 88.8498 982.482 89.0446 982.085 89.1237C981.689 89.2027 981.278 89.1626 980.905 89.0083C980.531 88.8539 980.212 88.5924 979.988 88.2567C979.763 87.921 979.643 87.5263 979.643 87.1225C979.643 86.582 979.858 86.0636 980.24 85.681C980.622 85.2984 981.14 85.0829 981.681 85.0818Z" fill="white"/>
<path opacity="0.35" d="M863.322 119.707C862.397 119.707 861.492 119.981 860.723 120.494C859.954 121.007 859.354 121.737 858.999 122.591C858.645 123.445 858.552 124.385 858.732 125.292C858.911 126.198 859.356 127.032 860.01 127.686C860.664 128.34 861.497 128.786 862.404 128.968C863.311 129.149 864.251 129.058 865.107 128.705C865.962 128.352 866.693 127.754 867.208 126.986C867.724 126.219 867.999 125.315 868.001 124.391C868.003 123.776 867.883 123.167 867.649 122.598C867.414 122.03 867.07 121.513 866.635 121.078C866.2 120.643 865.684 120.298 865.115 120.062C864.547 119.827 863.937 119.706 863.322 119.707Z" fill="white"/>
<path opacity="0.35" d="M955.445 9.31348C956.37 9.31348 957.275 9.03928 958.044 8.52548C958.814 8.01168 959.414 7.28139 959.768 6.42697C960.122 5.57256 960.215 4.63234 960.034 3.7253C959.854 2.81825 959.408 1.98509 958.754 1.33115C958.099 0.677208 957.265 0.231892 956.358 0.0514693C955.45 -0.128953 954.509 -0.0363974 953.654 0.317514C952.799 0.671426 952.068 1.27077 951.554 2.03973C951.04 2.80869 950.765 3.71272 950.765 4.63754C950.766 5.87734 951.26 7.06603 952.137 7.94269C953.014 8.81936 954.204 9.31236 955.445 9.31348Z" fill="white"/>
<path opacity="0.35" d="M933.613 76.9315C932.908 76.9315 932.219 77.1405 931.632 77.5319C931.046 77.9234 930.589 78.4798 930.319 79.1309C930.049 79.7819 929.979 80.4982 930.116 81.1893C930.254 81.8804 930.593 82.5153 931.092 83.0135C931.591 83.5118 932.226 83.8511 932.918 83.9885C933.609 84.126 934.326 84.0555 934.978 83.7858C935.629 83.5162 936.186 83.0595 936.578 82.4736C936.97 81.8877 937.179 81.1989 937.179 80.4943C937.179 80.0262 937.087 79.5627 936.909 79.1302C936.73 78.6977 936.467 78.3047 936.136 77.9737C935.805 77.6428 935.411 77.3804 934.978 77.2016C934.546 77.0227 934.082 76.9309 933.613 76.9315Z" fill="white"/>
<path opacity="0.35" d="M1001.72 35.8472C1002.42 35.8481 1003.11 35.6398 1003.7 35.2488C1004.29 34.8578 1004.75 34.3017 1005.02 33.6507C1005.29 32.9998 1005.36 32.2832 1005.22 31.5918C1005.08 30.9004 1004.74 30.2652 1004.25 29.7665C1003.75 29.2678 1003.11 28.928 1002.42 28.7902C1001.73 28.6524 1001.01 28.7227 1000.36 28.9923C999.708 29.2618 999.151 29.7184 998.759 30.3045C998.367 30.8905 998.158 31.5795 998.158 32.2844C998.158 33.2286 998.533 34.1341 999.201 34.8022C999.868 35.4702 1000.77 35.8461 1001.72 35.8472Z" fill="white"/>
<path opacity="0.35" d="M826.528 129.202C827.234 129.202 827.923 128.993 828.51 128.601C829.096 128.209 829.553 127.653 829.823 127.002C830.093 126.35 830.163 125.634 830.025 124.942C829.887 124.251 829.547 123.616 829.048 123.118C828.549 122.62 827.913 122.281 827.221 122.144C826.529 122.007 825.812 122.078 825.161 122.349C824.51 122.619 823.953 123.076 823.562 123.663C823.17 124.249 822.962 124.938 822.963 125.643C822.963 126.111 823.055 126.574 823.234 127.006C823.414 127.438 823.676 127.831 824.007 128.161C824.339 128.492 824.732 128.754 825.164 128.932C825.597 129.111 826.06 129.202 826.528 129.202Z" fill="white"/>
</g>
</g>
<defs>
<clipPath id="clip0_112_376">
<rect width="1395" height="914" fill="white" transform="translate(0 -651)"/>
</clipPath>
</defs>
</svg>
